%FSTAX66Y66*%
%MOMM*%
%SFA1B1*%

%IPPOS*%
%ADD27C,4.499991*%
%ADD28C,4.499991*%
%ADD29C,4.499991*%
%ADD30C,4.499991*%
%ADD31C,0.299999*%
%LNmtrl_pth_drill-1*%
%LPD*%
G54D27*
X00000499999Y000044999986D03*
G54D28*
X000224999981Y000094999987D03*
G54D29*
X000224999956Y000005001615D03*
G54D30*
X00000499999Y000005000015D03*
G54D31*
X000171603314Y000007829575D03*
X000172372045Y000004966055D03*
X00016802801Y000009554489D03*
X000163828018D03*
X000173373364Y000001521891D03*
X000173600211Y000000346532D03*
X000173103159Y00000268798D03*
X000169800676Y000009278213D03*
X000171294933Y000008343188D03*
X000172218223Y000006147358D03*
X000165028016Y000009554489D03*
X000166228014D03*
X000168622421Y00000948441D03*
X000167428011Y000009554489D03*
X00016322802D03*
X000172354163Y000005564479D03*
X000169214723Y000009398838D03*
X000164428017Y000009554489D03*
X000172760538Y000003834663D03*
X000173491245Y000000935075D03*
X000172055917Y00000672343D03*
X000165628015Y000009554489D03*
X000172539914Y000004390745D03*
X000171856806Y000007287717D03*
X000170882437Y00000877796D03*
X000170368137Y00000908558D03*
X000166828012Y000009554489D03*
X000173244383Y000002106345D03*
X000172943977Y000003264966D03*
X000177056008D03*
X000176755602Y000002106345D03*
X000183171998Y000009554489D03*
X000179631848Y00000908558D03*
X000179117548Y00000877796D03*
X000178143179Y000007287717D03*
X000177460071Y000004390745D03*
X00018437197Y000009554489D03*
X000177944068Y00000672343D03*
X00017650874Y000000935075D03*
X000177239447Y000003834663D03*
X000185571968Y000009554489D03*
X000180785236Y000009398838D03*
X000177645822Y000005564479D03*
X000186771965Y000009554489D03*
X000182571974D03*
X000181377539Y00000948441D03*
X000183771971Y000009554489D03*
X000184971969D03*
X000177781762Y000006147358D03*
X000178705027Y000008343188D03*
X000180199284Y000009278213D03*
X000176896826Y00000268798D03*
X000176399799Y000000346532D03*
X000176626596Y000001521891D03*
X000186171992Y000009554489D03*
X000181971975D03*
X00017762794Y000004966055D03*
X000178396671Y000007829575D03*
X000165755929Y00000208191D03*
X00016515593Y000008081899D03*
X000186644051Y000004481906D03*
X000186044052Y000003281908D03*
X000180644038Y000004481906D03*
X000163955933Y000003281908D03*
X000183644057Y000008081899D03*
X000168155924Y000006881901D03*
X000164555932D03*
X000163955933Y000005681903D03*
X000180044064Y000003281908D03*
X000163355959Y000006881901D03*
X000170555945Y000004481906D03*
Y000006881901D03*
X000168755949Y000008081899D03*
X000163955933Y000000881913D03*
X000180644038Y000006881901D03*
X000171755943Y00000208191D03*
X000181844035Y000004481906D03*
X000180044064Y000008081899D03*
Y000005681903D03*
X000182444059Y000008081899D03*
X000168755949Y000000881913D03*
X000184844055Y000003281908D03*
X000170555945Y00000208191D03*
X000185444053Y000004481906D03*
X000186644051Y000006881901D03*
X000183044058Y00000208191D03*
X000169355947Y000004481906D03*
X000166355953Y000008081899D03*
X000164555932Y000004481906D03*
X00016515593Y000000881913D03*
X000184244056Y000004481906D03*
X000168155924Y00000208191D03*
Y000004481906D03*
X000184244056Y000006881901D03*
X000185444053Y00000208191D03*
X000183644057Y000000881913D03*
X000171155918Y000003281908D03*
X000163355959Y000004481906D03*
X000186044052Y000005681903D03*
X000181244036Y000000881913D03*
X000167555926Y000005681903D03*
X000183044058Y000006881901D03*
X000183644057Y000005681903D03*
X000185444053Y000006881901D03*
X000182444059Y000003281908D03*
X000163955933Y000008081899D03*
X000180044064Y000000881913D03*
X000165755929Y000004481906D03*
X000178844041Y000003281908D03*
X000166955927Y000006881901D03*
X000186044052Y000008081899D03*
X000178844041Y000005681903D03*
X000183644057Y000003281908D03*
X000178244042Y00000208191D03*
X000166955927D03*
X000169955946Y000000881913D03*
Y000003281908D03*
X000166355953Y000005681903D03*
Y000003281908D03*
X000182444059Y000000881913D03*
X000167555926D03*
X000171155918D03*
X000168755949Y000003281908D03*
X00016515593D03*
X000166955927Y000004481906D03*
X000169955946Y000005681903D03*
X000184244056Y00000208191D03*
X000166355953Y000000881913D03*
X000169355947Y00000208191D03*
X000164555932D03*
X00017944404Y000006881901D03*
X000177644044Y000000881913D03*
X00017944404Y00000208191D03*
X000181844035Y000006881901D03*
X000171155918Y000005681903D03*
X000169955946Y000008081899D03*
X000184844055Y000000881913D03*
X000172355941D03*
X000184844055Y000008081899D03*
X000163355959Y00000208191D03*
X000181844035D03*
X000181244036Y000003281908D03*
X000180644038Y00000208191D03*
X00016515593Y000005681903D03*
X000167555926Y000008081899D03*
X000181244036D03*
X000183044058Y000004481906D03*
X000182444059Y000005681903D03*
X000186644051Y00000208191D03*
X000165755929Y000006881901D03*
X000169355947D03*
X000181244036Y000005681903D03*
X00017944404Y000004481906D03*
X000178844041Y000000881913D03*
X000186044052D03*
X000167555926Y000003281908D03*
X000168755949Y000005681903D03*
X000184844055D03*
X000154844038Y000005681497D03*
X000138755932D03*
X000137555935Y000003281502D03*
X000156044061Y000000881507D03*
X00014884405D03*
X000149444049Y000004481499D03*
X000151244046Y000005681497D03*
X000139355957Y000006881495D03*
X000135755938D03*
X000156644035Y000002081504D03*
X000152444043Y000005681497D03*
X000153044067Y000004481499D03*
X000151244046Y000008081518D03*
X000137555935D03*
X00013515594Y000005681497D03*
X000150644047Y000002081504D03*
X000151244046Y000003281502D03*
X000151844044Y000002081504D03*
X000133355943D03*
X000154844038Y000008081518D03*
X000142355951Y000000881507D03*
X000154844038D03*
X00013995593Y000008081518D03*
X000141155928Y000005681497D03*
X000151844044Y000006881495D03*
X000149444049Y000002081504D03*
X000147644053Y000000881507D03*
X000149444049Y000006881495D03*
X000134555941Y000002081504D03*
X000139355957D03*
X000136355937Y000000881507D03*
X00015424404Y000002081504D03*
X00013995593Y000005681497D03*
X000136955936Y000004481499D03*
X00013515594Y000003281502D03*
X000138755932D03*
X000141155928Y000000881507D03*
X000137555935D03*
X000152444043D03*
X000136355937Y000003281502D03*
Y000005681497D03*
X00013995593Y000003281502D03*
Y000000881507D03*
X000136955936Y000002081504D03*
X000148244052D03*
X000153644041Y000003281502D03*
X00014884405Y000005681497D03*
X000156044061Y000008081518D03*
X000136955936Y000006881495D03*
X00014884405Y000003281502D03*
X000135755938Y000004481499D03*
X000150044048Y000000881507D03*
X000133955942Y000008081518D03*
X000152444043Y000003281502D03*
X000155444037Y000006881495D03*
X000153644041Y000005681497D03*
X000153044067Y000006881495D03*
X000137555935Y000005681497D03*
X000151244046Y000000881507D03*
X000156044061Y000005681497D03*
X000133355943Y000004481499D03*
X000141155928Y000003281502D03*
X000153644041Y000000881507D03*
X000155444037Y000002081504D03*
X00015424404Y000006881495D03*
X000138155934Y000004481499D03*
Y000002081504D03*
X00015424404Y000004481499D03*
X00013515594Y000000881507D03*
X000134555941Y000004481499D03*
X000136355937Y000008081518D03*
X000139355957Y000004481499D03*
X000153044067Y000002081504D03*
X000156644035Y000006881495D03*
X000155444037Y000004481499D03*
X000140555929Y000002081504D03*
X000154844038Y000003281502D03*
X000138755932Y000000881507D03*
X000152444043Y000008081518D03*
X000150044048Y000005681497D03*
Y000008081518D03*
X000151844044Y000004481499D03*
X000141755926Y000002081504D03*
X000150644047Y000006881495D03*
X000133955942Y000000881507D03*
X000138755932Y000008081518D03*
X000140555929Y000006881495D03*
Y000004481499D03*
X000133355943Y000006881495D03*
X000150044048Y000003281502D03*
X000133955942Y000005681497D03*
X000134555941Y000006881495D03*
X000138155934D03*
X000153644041Y000008081518D03*
X000133955942Y000003281502D03*
X000150644047Y000004481499D03*
X000156044061Y000003281502D03*
X000156644035Y000004481499D03*
X00013515594Y000008081518D03*
X000135755938Y000002081504D03*
X000148396655Y000007829169D03*
X000147627949Y000004965674D03*
X000151971959Y000009554083D03*
X000156171976D03*
X000146626605Y000001521485D03*
X000146399783Y000000346125D03*
X000146896836Y000002687599D03*
X000150199293Y000009277807D03*
X000148705036Y000008342782D03*
X000147781772Y000006146952D03*
X000154971978Y000009554083D03*
X000153771981D03*
X000151377548Y000009484029D03*
X000152571983Y000009554083D03*
X000156771975D03*
X000147645831Y000005564073D03*
X000150785245Y000009398457D03*
X000155571977Y000009554083D03*
X000147239456Y000003834257D03*
X000146508749Y000000934669D03*
X000147944078Y000006723024D03*
X000154371979Y000009554083D03*
X000147460055Y000004390339D03*
X000148143188Y00000728731D03*
X000149117558Y000008777554D03*
X000149631857Y000009085173D03*
X000153171982Y000009554083D03*
X000146755612Y000002105964D03*
X000147056017Y00000326456D03*
X000142943961D03*
X000143244392Y000002105964D03*
X000136827996Y000009554083D03*
X000140368147Y000009085173D03*
X000140882446Y000008777554D03*
X00014185679Y00000728731D03*
X000142539923Y000004390339D03*
X000135627999Y000009554083D03*
X0001420559Y000006723024D03*
X000143491254Y000000934669D03*
X000142760522Y000003834257D03*
X000134428001Y000009554083D03*
X000139214733Y000009398457D03*
X000142354147Y000005564073D03*
X000133228029Y000009554083D03*
X000137427995D03*
X00013862243Y000009484029D03*
X000136228023Y000009554083D03*
X000135028D03*
X000142218206Y000006146952D03*
X000141294942Y000008342782D03*
X000139800685Y000009277807D03*
X000143103142Y000002687599D03*
X000143600195Y000000346125D03*
X000143373373Y000001521485D03*
X000133828002Y000009554083D03*
X000138028019D03*
X000142372054Y000004965674D03*
X000141603298Y000007829169D03*
X000111603307Y000007828788D03*
X000112372038Y000004965268D03*
X000108028003Y000009553676D03*
X000103828011D03*
X000113373382Y000001521079D03*
X000113600204Y000000345719D03*
X000113103152Y000002687193D03*
X000109800694Y0000092774D03*
X000111294951Y000008342375D03*
X000112218216Y000006146546D03*
X000105028009Y000009553676D03*
X000106228007D03*
X000108622439Y000009483623D03*
X000107428004Y000009553676D03*
X000103228013D03*
X000112354156Y000005563666D03*
X000109214716Y00000939805D03*
X00010442801Y000009553676D03*
X000112760531Y00000383385D03*
X000113491238Y000000934262D03*
X00011205591Y000006722618D03*
X000105628008Y000009553676D03*
X000112539907Y000004389958D03*
X000111856799Y000007286904D03*
X00011088243Y000008777147D03*
X00011036813Y000009084767D03*
X000106828005Y000009553676D03*
X000113244376Y000002105558D03*
X00011294397Y000003264154D03*
X000117056027D03*
X000116755595Y000002105558D03*
X000123171966Y000009553676D03*
X000119631841Y000009084767D03*
X000119117567Y000008777147D03*
X000118143197Y000007286904D03*
X000117460064Y000004389958D03*
X000124371989Y000009553676D03*
X000117944087Y000006722618D03*
X000116508758Y000000934262D03*
X000117239465Y00000383385D03*
X000125571986Y000009553676D03*
X000120785255Y00000939805D03*
X000117645815Y000005563666D03*
X000126771984Y000009553676D03*
X000122571967D03*
X000121377557Y000009483623D03*
X000123771964Y000009553676D03*
X000124971987D03*
X000117781755Y000006146546D03*
X000118705045Y000008342375D03*
X000120199277Y0000092774D03*
X000116896819Y000002687193D03*
X000116399767Y000000345719D03*
X000116626614Y000001521079D03*
X000126171985Y000009553676D03*
X000121971968D03*
X000117627958Y000004965268D03*
X000118396689Y000007828788D03*
X000105755948Y000002081098D03*
X000105155949Y000008081086D03*
X000126644044Y000004481093D03*
X000126044045Y000003281095D03*
X000120644056Y000004481093D03*
X000103955926Y000003281095D03*
X00012364405Y000008081086D03*
X000108155943Y000006881088D03*
X000104555925D03*
X000103955926Y000005681091D03*
X000120044057Y000003281095D03*
X000103355927Y000006881088D03*
X000110555938Y000004481093D03*
Y000006881088D03*
X000108755942Y000008081086D03*
X000103955926Y0000008811D03*
X000120644056Y000006881088D03*
X000111755936Y000002081098D03*
X000121844054Y000004481093D03*
X000120044057Y000008081086D03*
Y000005681091D03*
X000122444052Y000008081086D03*
X000108755942Y0000008811D03*
X000124844048Y000003281095D03*
X000110555938Y000002081098D03*
X000125444046Y000004481093D03*
X000126644044Y000006881088D03*
X000123044051Y000002081098D03*
X00010935594Y000004481093D03*
X000106355946Y000008081086D03*
X000104555925Y000004481093D03*
X000105155949Y0000008811D03*
X000124244049Y000004481093D03*
X000108155943Y000002081098D03*
Y000004481093D03*
X000124244049Y000006881088D03*
X000125444046Y000002081098D03*
X00012364405Y0000008811D03*
X000111155937Y000003281095D03*
X000103355927Y000004481093D03*
X000126044045Y000005681091D03*
X000121244055Y0000008811D03*
X000107555944Y000005681091D03*
X000123044051Y000006881088D03*
X00012364405Y000005681091D03*
X000125444046Y000006881088D03*
X000122444052Y000003281095D03*
X000103955926Y000008081086D03*
X000120044057Y0000008811D03*
X000105755948Y000004481093D03*
X00011884406Y000003281095D03*
X000106955945Y000006881088D03*
X000126044045Y000008081086D03*
X00011884406Y000005681091D03*
X00012364405Y000003281095D03*
X000118244035Y000002081098D03*
X000106955945D03*
X000109955939Y0000008811D03*
Y000003281095D03*
X000106355946Y000005681091D03*
Y000003281095D03*
X000122444052Y0000008811D03*
X000107555944D03*
X000111155937D03*
X000108755942Y000003281095D03*
X000105155949D03*
X000106955945Y000004481093D03*
X000109955939Y000005681091D03*
X000124244049Y000002081098D03*
X000106355946Y0000008811D03*
X00010935594Y000002081098D03*
X000104555925D03*
X000119444058Y000006881088D03*
X000117644037Y0000008811D03*
X000119444058Y000002081098D03*
X000121844054Y000006881088D03*
X000111155937Y000005681091D03*
X000109955939Y000008081086D03*
X000124844048Y0000008811D03*
X000112355934D03*
X000124844048Y000008081086D03*
X000103355927Y000002081098D03*
X000121844054D03*
X000121244055Y000003281095D03*
X000120644056Y000002081098D03*
X000105155949Y000005681091D03*
X000107555944Y000008081086D03*
X000121244055D03*
X000123044051Y000004481093D03*
X000122444052Y000005681091D03*
X000126644044Y000002081098D03*
X000105755948Y000006881088D03*
X00010935594D03*
X000121244055Y000005681091D03*
X000119444058Y000004481093D03*
X00011884406Y0000008811D03*
X000126044045D03*
X000107555944Y000003281095D03*
X000108755942Y000005681091D03*
X000124844048D03*
X000094844057Y00000568071D03*
X000078755925D03*
X000077555928Y000003280689D03*
X000096044054Y000000880694D03*
X000088844043D03*
X000089444042Y000004480687D03*
X000091244039Y00000568071D03*
X00007935595Y000006880707D03*
X000075755931D03*
X000096644053Y000002080691D03*
X000092444036Y00000568071D03*
X000093044035Y000004480687D03*
X000091244039Y000008080705D03*
X000077555928D03*
X000075155933Y00000568071D03*
X00009064404Y000002080691D03*
X000091244039Y000003280689D03*
X000091844037Y000002080691D03*
X000073355936D03*
X000094844057Y000008080705D03*
X000082355944Y000000880694D03*
X000094844057D03*
X000079955948Y000008080705D03*
X000081155946Y00000568071D03*
X000091844037Y000006880707D03*
X000089444042Y000002080691D03*
X000087644046Y000000880694D03*
X000089444042Y000006880707D03*
X000074555934Y000002080691D03*
X00007935595D03*
X00007635593Y000000880694D03*
X000094244058Y000002080691D03*
X000079955948Y00000568071D03*
X000076955929Y000004480687D03*
X000075155933Y000003280689D03*
X000078755925D03*
X000081155946Y000000880694D03*
X000077555928D03*
X000092444036D03*
X00007635593Y000003280689D03*
Y00000568071D03*
X000079955948Y000003280689D03*
Y000000880694D03*
X000076955929Y000002080691D03*
X000088244045D03*
X000093644059Y000003280689D03*
X000088844043Y00000568071D03*
X000096044054Y000008080705D03*
X000076955929Y000006880707D03*
X000088844043Y000003280689D03*
X000075755931Y000004480687D03*
X000090044041Y000000880694D03*
X000073955935Y000008080705D03*
X000092444036Y000003280689D03*
X000095444056Y000006880707D03*
X000093644059Y00000568071D03*
X000093044035Y000006880707D03*
X000077555928Y00000568071D03*
X000091244039Y000000880694D03*
X000096044054Y00000568071D03*
X000073355936Y000004480687D03*
X000081155946Y000003280689D03*
X000093644059Y000000880694D03*
X000095444056Y000002080691D03*
X000094244058Y000006880707D03*
X000078155927Y000004480687D03*
Y000002080691D03*
X000094244058Y000004480687D03*
X000075155933Y000000880694D03*
X000074555934Y000004480687D03*
X00007635593Y000008080705D03*
X00007935595Y000004480687D03*
X000093044035Y000002080691D03*
X000096644053Y000006880707D03*
X000095444056Y000004480687D03*
X000080555947Y000002080691D03*
X000094844057Y000003280689D03*
X000078755925Y000000880694D03*
X000092444036Y000008080705D03*
X000090044041Y00000568071D03*
Y000008080705D03*
X000091844037Y000004480687D03*
X000081755945Y000002080691D03*
X00009064404Y000006880707D03*
X000073955935Y000000880694D03*
X000078755925Y000008080705D03*
X000080555947Y000006880707D03*
Y000004480687D03*
X000073355936Y000006880707D03*
X000090044041Y000003280689D03*
X000073955935Y00000568071D03*
X000074555934Y000006880707D03*
X000078155927D03*
X000093644059Y000008080705D03*
X000073955935Y000003280689D03*
X00009064404Y000004480687D03*
X000096044054Y000003280689D03*
X000096644053Y000004480687D03*
X000075155933Y000008080705D03*
X000075755931Y000002080691D03*
X000088396673Y000007828381D03*
X000087627942Y000004964861D03*
X000091971977Y000009553295D03*
X000096171969D03*
X000086626598Y000001520698D03*
X000086399776Y000000345338D03*
X000086896829Y000002686786D03*
X000090199286Y000009276994D03*
X000088705029Y000008341969D03*
X000087781765Y000006146165D03*
X000094971971Y000009553295D03*
X000093771974D03*
X000091377566Y000009483217D03*
X000092571976Y000009553295D03*
X000096771968D03*
X000087645824Y000005563285D03*
X000090785264Y000009397644D03*
X00009557197Y000009553295D03*
X000087239449Y000003833444D03*
X000086508742Y000000933856D03*
X000087944071Y000006722237D03*
X000094371972Y000009553295D03*
X000087460074Y000004389551D03*
X000088143181Y000007286498D03*
X000089117551Y000008776741D03*
X00008963185Y00000908436D03*
X000093171975Y000009553295D03*
X000086755579Y000002105152D03*
X00008705601Y000003263747D03*
X000082943979D03*
X000083244385Y000002105152D03*
X000076828015Y000009553295D03*
X00008036814Y00000908436D03*
X000080882439Y000008776741D03*
X000081856808Y000007286498D03*
X000082539916Y000004389551D03*
X000075627992Y000009553295D03*
X000082055919Y000006722237D03*
X000083491247Y000000933856D03*
X000082760515Y000003833444D03*
X000074427994Y000009553295D03*
X000079214726Y000009397644D03*
X000082354166Y000005563285D03*
X000073227996Y000009553295D03*
X000077428013D03*
X000078622423Y000009483217D03*
X000076228016Y000009553295D03*
X000075028018D03*
X000082218225Y000006146165D03*
X000081294935Y000008341969D03*
X000079800704Y000009276994D03*
X000083103161Y000002686786D03*
X000083600213Y000000345338D03*
X000083373366Y000001520698D03*
X000073827995Y000009553295D03*
X000078028012D03*
X000082372047Y000004964861D03*
X000081603316Y000007828381D03*
X0000516033Y000007827975D03*
X000052372031Y000004964455D03*
X000048027996Y000009552889D03*
X000043828004D03*
X000053373375Y000001520291D03*
X000053600197Y000000344932D03*
X000053103145Y00000268638D03*
X000049800687Y000009276588D03*
X000051294944Y000008341563D03*
X000052218209Y000006145758D03*
X000045028002Y000009552889D03*
X000046228D03*
X000048622432Y00000948281D03*
X000047427997Y000009552889D03*
X000043228006D03*
X000052354149Y000005562879D03*
X000049214709Y000009397238D03*
X000044428003Y000009552889D03*
X000052760524Y000003833037D03*
X000053491231Y000000933475D03*
X000052055903Y00000672183D03*
X000045628001Y000009552889D03*
X000052539925Y000004389145D03*
X000051856792Y000007286117D03*
X000050882423Y000008776335D03*
X000050368149Y000009083954D03*
X000046827998Y000009552889D03*
X000053244394Y000002104745D03*
X000052943963Y000003263366D03*
X00005705602D03*
X000056755588Y000002104745D03*
X000063171984Y000009552889D03*
X000059631834Y000009083954D03*
X00005911756Y000008776335D03*
X00005814319Y000007286117D03*
X000057460057Y000004389145D03*
X000064371982Y000009552889D03*
X00005794408Y00000672183D03*
X000056508751Y000000933475D03*
X000057239458Y000003833037D03*
X000065571979Y000009552889D03*
X000060785248Y000009397238D03*
X000057645833Y000005562879D03*
X000066771977Y000009552889D03*
X000062571985D03*
X00006137755Y00000948281D03*
X000063771983Y000009552889D03*
X00006497198D03*
X000057781774Y000006145758D03*
X000058705038Y000008341563D03*
X000060199295Y000009276588D03*
X000056896838Y00000268638D03*
X00005639976Y000000344932D03*
X000056626607Y000001520291D03*
X000066171978Y000009552889D03*
X000061971986D03*
X000057627951Y000004964455D03*
X000058396682Y000007827975D03*
X000045755941Y000002080285D03*
X000045155942Y000008080298D03*
X000066644037Y000004480306D03*
X000066044038Y000003280308D03*
X000060644049Y000004480306D03*
X000043955944Y000003280308D03*
X000063644043Y000008080298D03*
X000048155936Y000006880301D03*
X000044555943D03*
X000043955944Y000005680303D03*
X00006004405Y000003280308D03*
X000043355945Y000006880301D03*
X000050555931Y000004480306D03*
Y000006880301D03*
X000048755935Y000008080298D03*
X000043955944Y000000880287D03*
X000060644049Y000006880301D03*
X000051755929Y000002080285D03*
X000061844047Y000004480306D03*
X00006004405Y000008080298D03*
Y000005680303D03*
X000062444045Y000008080298D03*
X000048755935Y000000880287D03*
X000064844041Y000003280308D03*
X000050555931Y000002080285D03*
X000065444039Y000004480306D03*
X000066644037Y000006880301D03*
X000063044044Y000002080285D03*
X000049355933Y000004480306D03*
X000046355939Y000008080298D03*
X000044555943Y000004480306D03*
X000045155942Y000000880287D03*
X000064244042Y000004480306D03*
X000048155936Y000002080285D03*
Y000004480306D03*
X000064244042Y000006880301D03*
X000065444039Y000002080285D03*
X000063644043Y000000880287D03*
X00005115593Y000003280308D03*
X000043355945Y000004480306D03*
X000066044038Y000005680303D03*
X000061244048Y000000880287D03*
X000047555937Y000005680303D03*
X000063044044Y000006880301D03*
X000063644043Y000005680303D03*
X000065444039Y000006880301D03*
X000062444045Y000003280308D03*
X000043955944Y000008080298D03*
X00006004405Y000000880287D03*
X000045755941Y000004480306D03*
X000058844053Y000003280308D03*
X000046955938Y000006880301D03*
X000066044038Y000008080298D03*
X000058844053Y000005680303D03*
X000063644043Y000003280308D03*
X000058244028Y000002080285D03*
X000046955938D03*
X000049955932Y000000880287D03*
Y000003280308D03*
X000046355939Y000005680303D03*
Y000003280308D03*
X000062444045Y000000880287D03*
X000047555937D03*
X00005115593D03*
X000048755935Y000003280308D03*
X000045155942D03*
X000046955938Y000004480306D03*
X000049955932Y000005680303D03*
X000064244042Y000002080285D03*
X000046355939Y000000880287D03*
X000049355933Y000002080285D03*
X000044555943D03*
X000059444026Y000006880301D03*
X000057644055Y000000880287D03*
X000059444026Y000002080285D03*
X000061844047Y000006880301D03*
X00005115593Y000005680303D03*
X000049955932Y000008080298D03*
X000064844041Y000000880287D03*
X000052355927D03*
X000064844041Y000008080298D03*
X000043355945Y000002080285D03*
X000061844047D03*
X000061244048Y000003280308D03*
X000060644049Y000002080285D03*
X000045155942Y000005680303D03*
X000047555937Y000008080298D03*
X000061244048D03*
X000063044044Y000004480306D03*
X000062444045Y000005680303D03*
X000066644037Y000002080285D03*
X000045755941Y000006880301D03*
X000049355933D03*
X000061244048Y000005680303D03*
X000059444026Y000004480306D03*
X000058844053Y000000880287D03*
X000066044038D03*
X000047555937Y000003280308D03*
X000048755935Y000005680303D03*
X000064844041D03*
X00003484405Y000005679897D03*
X000018755944D03*
X000017555946Y000003279902D03*
X000036044047Y000000879906D03*
X000028844036D03*
X000029444035Y000004479899D03*
X000031244032Y000005679897D03*
X000019355943Y000006879894D03*
X000015755924D03*
X000036644046Y000002079904D03*
X000032444029Y000005679897D03*
X000033044028Y000004479899D03*
X000031244032Y000008079892D03*
X000017555946D03*
X000015155926Y000005679897D03*
X000030644033Y000002079904D03*
X000031244032Y000003279902D03*
X00003184403Y000002079904D03*
X000013355929D03*
X00003484405Y000008079892D03*
X000022355937Y000000879906D03*
X00003484405D03*
X000019955941Y000008079892D03*
X000021155939Y000005679897D03*
X00003184403Y000006879894D03*
X000029444035Y000002079904D03*
X000027644039Y000000879906D03*
X000029444035Y000006879894D03*
X000014555927Y000002079904D03*
X000019355943D03*
X000016355949Y000000879906D03*
X000034244026Y000002079904D03*
X000019955941Y000005679897D03*
X000016955947Y000004479899D03*
X000015155926Y000003279902D03*
X000018755944D03*
X000021155939Y000000879906D03*
X000017555946D03*
X000032444029D03*
X000016355949Y000003279902D03*
Y000005679897D03*
X000019955941Y000003279902D03*
Y000000879906D03*
X000016955947Y000002079904D03*
X000028244038D03*
X000033644052Y000003279902D03*
X000028844036Y000005679897D03*
X000036044047Y000008079892D03*
X000016955947Y000006879894D03*
X000028844036Y000003279902D03*
X000015755924Y000004479899D03*
X000030044034Y000000879906D03*
X000013955928Y000008079892D03*
X000032444029Y000003279902D03*
X000035444049Y000006879894D03*
X000033644052Y000005679897D03*
X000033044028Y000006879894D03*
X000017555946Y000005679897D03*
X000031244032Y000000879906D03*
X000036044047Y000005679897D03*
X000013355929Y000004479899D03*
X000021155939Y000003279902D03*
X000033644052Y000000879906D03*
X000035444049Y000002079904D03*
X000034244026Y000006879894D03*
X000018155945Y000004479899D03*
Y000002079904D03*
X000034244026Y000004479899D03*
X000015155926Y000000879906D03*
X000014555927Y000004479899D03*
X000016355949Y000008079892D03*
X000019355943Y000004479899D03*
X000033044028Y000002079904D03*
X000036644046Y000006879894D03*
X000035444049Y000004479899D03*
X00002055594Y000002079904D03*
X00003484405Y000003279902D03*
X000018755944Y000000879906D03*
X000032444029Y000008079892D03*
X000030044034Y000005679897D03*
Y000008079892D03*
X00003184403Y000004479899D03*
X000021755938Y000002079904D03*
X000030644033Y000006879894D03*
X000013955928Y000000879906D03*
X000018755944Y000008079892D03*
X00002055594Y000006879894D03*
Y000004479899D03*
X000013355929Y000006879894D03*
X000030044034Y000003279902D03*
X000013955928Y000005679897D03*
X000014555927Y000006879894D03*
X000018155945D03*
X000033644052Y000008079892D03*
X000013955928Y000003279902D03*
X000030644033Y000004479899D03*
X000036044047Y000003279902D03*
X000036644046Y000004479899D03*
X000015155926Y000008079892D03*
X000015755924Y000002079904D03*
X000028396666Y000007827568D03*
X000027627935Y000004964074D03*
X00003197197Y000009552482D03*
X000036171987D03*
X000026626616Y000001519885D03*
X000026399769Y000000344525D03*
X000026896822Y000002685973D03*
X000030199279Y000009276207D03*
X000028705022Y000008341156D03*
X000027781758Y000006145352D03*
X00003497199Y000009552482D03*
X000033771967D03*
X000031377559Y000009482404D03*
X000032571969Y000009552482D03*
X000036771986D03*
X000027645817Y000005562473D03*
X000030785257Y000009396857D03*
X000035571988Y000009552482D03*
X000027239442Y000003832656D03*
X000026508735Y000000933069D03*
X000027944064Y000006721424D03*
X000034371965Y000009552482D03*
X000027460067Y000004388739D03*
X000028143174Y00000728571D03*
X000029117544Y000008775954D03*
X000029631843Y000009083548D03*
X000033171968Y000009552482D03*
X000026755598Y000002104339D03*
X000027056003Y00000326296D03*
X000022943972D03*
X000023244378Y000002104339D03*
X000016828008Y000009552482D03*
X000020368133Y000009083548D03*
X000020882432Y000008775954D03*
X000021856801Y00000728571D03*
X000022539909Y000004388739D03*
X000015627985Y000009552482D03*
X000022055912Y000006721424D03*
X000023491215Y000000933069D03*
X000022760533Y000003832656D03*
X000014427987Y000009552482D03*
X000019214719Y000009396857D03*
X000022354159Y000005562473D03*
X000013227989Y000009552482D03*
X000017428006D03*
X000018622416Y000009482404D03*
X000016228009Y000009552482D03*
X000015027986D03*
X000022218218Y000006145352D03*
X000021294953Y000008341156D03*
X000019800697Y000009276207D03*
X000023103154Y000002685973D03*
X000023600206Y000000344525D03*
X000023373359Y000001519885D03*
X000013827988Y000009552482D03*
X000018028005D03*
X000022372015Y000004964074D03*
X000021603309Y000007827568D03*
X000201603305Y000007830185D03*
X000202372036Y000004966665D03*
X000198028001Y000009555099D03*
X000193828009D03*
X000203373355Y000001522501D03*
X000203600227Y000000347141D03*
X000203103149Y00000268859D03*
X000199800692Y000009278797D03*
X000201294949Y000008343772D03*
X000202218213Y000006147968D03*
X000195028007Y000009555099D03*
X000196228004D03*
X000198622437Y00000948502D03*
X000197428002Y000009555099D03*
X00019322801D03*
X000202354154Y000005565089D03*
X00019921474Y000009399447D03*
X000194428008Y000009555099D03*
X000202760529Y000003835247D03*
X000203491236Y000000935685D03*
X000202055907Y00000672404D03*
X000195628006Y000009555099D03*
X000202539904Y000004391355D03*
X000201856797Y000007288301D03*
X000200882427Y000008778544D03*
X000200368128Y000009086164D03*
X000196828003Y000009555099D03*
X000203244399Y000002106955D03*
X000202943968Y000003265576D03*
X000207056024D03*
X000206755619Y000002106955D03*
X000213171989Y000009555099D03*
X000209631864Y000009086164D03*
X000209117565Y000008778544D03*
X000208143195Y000007288301D03*
X000207460062Y000004391355D03*
X000214371986Y000009555099D03*
X000207944085Y00000672404D03*
X000206508756Y000000935685D03*
X000207239463Y000003835247D03*
X000215571984Y000009555099D03*
X000210785278Y000009399447D03*
X000207645838Y000005565089D03*
X000216771982Y000009555099D03*
X000212571965D03*
X000211377555Y00000948502D03*
X000213771988Y000009555099D03*
X00021497196D03*
X000207781779Y000006147968D03*
X000208705043Y000008343772D03*
X000210199274Y000009278797D03*
X000206896817Y00000268859D03*
X00020639979Y000000347141D03*
X000206626612Y000001522501D03*
X000216171983Y000009555099D03*
X000211971966D03*
X000207627956Y000004966665D03*
X000208396662Y000007830185D03*
X000195755945Y000002082495D03*
X000195155921Y000008082508D03*
X000216644042Y000004482515D03*
X000216044068Y000003282518D03*
X000210644054Y000004482515D03*
X000193955949Y000003282518D03*
X000213644048Y000008082508D03*
X000198155915Y000006882511D03*
X000194555948D03*
X000193955949Y000005682513D03*
X000210044055Y000003282518D03*
X00019335595Y000006882511D03*
X000200555936Y000004482515D03*
Y000006882511D03*
X000198755939Y000008082508D03*
X000193955949Y000000882497D03*
X000210644054Y000006882511D03*
X000201755933Y000002082495D03*
X000211844051Y000004482515D03*
X000210044055Y000008082508D03*
Y000005682513D03*
X00021244405Y000008082508D03*
X000198755939Y000000882497D03*
X000214844045Y000003282518D03*
X000200555936Y000002082495D03*
X000215444044Y000004482515D03*
X000216644042Y000006882511D03*
X000213044049Y000002082495D03*
X000199355938Y000004482515D03*
X000196355944Y000008082508D03*
X000194555948Y000004482515D03*
X000195155921Y000000882497D03*
X000214244047Y000004482515D03*
X000198155915Y000002082495D03*
Y000004482515D03*
X000214244047Y000006882511D03*
X000215444044Y000002082495D03*
X000213644048Y000000882497D03*
X000201155935Y000003282518D03*
X00019335595Y000004482515D03*
X000216044068Y000005682513D03*
X000211244053Y000000882497D03*
X000197555942Y000005682513D03*
X000213044049Y000006882511D03*
X000213644048Y000005682513D03*
X000215444044Y000006882511D03*
X00021244405Y000003282518D03*
X000193955949Y000008082508D03*
X000210044055Y000000882497D03*
X000195755945Y000004482515D03*
X000208844057Y000003282518D03*
X000196955943Y000006882511D03*
X000216044068Y000008082508D03*
X000208844057Y000005682513D03*
X000213644048Y000003282518D03*
X000208244059Y000002082495D03*
X000196955943D03*
X000199955937Y000000882497D03*
Y000003282518D03*
X000196355944Y000005682513D03*
Y000003282518D03*
X00021244405Y000000882497D03*
X000197555942D03*
X000201155935D03*
X000198755939Y000003282518D03*
X000195155921D03*
X000196955943Y000004482515D03*
X000199955937Y000005682513D03*
X000214244047Y000002082495D03*
X000196355944Y000000882497D03*
X000199355938Y000002082495D03*
X000194555948D03*
X000209444056Y000006882511D03*
X000207644034Y000000882497D03*
X000209444056Y000002082495D03*
X000211844051Y000006882511D03*
X000201155935Y000005682513D03*
X000199955937Y000008082508D03*
X000214844045Y000000882497D03*
X000202355958D03*
X000214844045Y000008082508D03*
X00019335595Y000002082495D03*
X000211844051D03*
X000211244053Y000003282518D03*
X000210644054Y000002082495D03*
X000195155921Y000005682513D03*
X000197555942Y000008082508D03*
X000211244053D03*
X000213044049Y000004482515D03*
X00021244405Y000005682513D03*
X000216644042Y000002082495D03*
X000195755945Y000006882511D03*
X000199355938D03*
X000211244053Y000005682513D03*
X000209444056Y000004482515D03*
X000208844057Y000000882497D03*
X000216044068D03*
X000197555942Y000003282518D03*
X000198755939Y000005682513D03*
X000214844045D03*
X000195155921Y000094320664D03*
X000211244053D03*
X00021244405Y000096720685D03*
X000193955949Y00009912068D03*
X000201155935D03*
X000200555936Y000095520687D03*
X000198755939Y000094320664D03*
X000210644054Y000093120667D03*
X000214244047D03*
X00019335595Y000097920683D03*
X000197555942Y000094320664D03*
X000196955943Y000095520687D03*
X000198755939Y000091920669D03*
X00021244405D03*
X000214844045Y000094320664D03*
X000199355938Y000097920683D03*
X000198755939Y000096720685D03*
X000198155915Y000097920683D03*
X000216644042D03*
X000195155921Y000091920669D03*
X000207644034Y00009912068D03*
X000195155921D03*
X000210044055Y000091920669D03*
X000208844057Y000094320664D03*
X000198155915Y000093120667D03*
X000200555936Y000097920683D03*
X000202355958Y00009912068D03*
X000200555936Y000093120667D03*
X000215444044Y000097920683D03*
X000210644054D03*
X000213644048Y00009912068D03*
X000195755945Y000097920683D03*
X000210044055Y000094320664D03*
X000213044049Y000095520687D03*
X000214844045Y000096720685D03*
X000211244053D03*
X000208844057Y00009912068D03*
X00021244405D03*
X000197555942D03*
X000213644048Y000096720685D03*
Y000094320664D03*
X000210044055Y000096720685D03*
Y00009912068D03*
X000213044049Y000097920683D03*
X000201755933D03*
X000196355944Y000096720685D03*
X000201155935Y000094320664D03*
X000193955949Y000091920669D03*
X000213044049Y000093120667D03*
X000201155935Y000096720685D03*
X000214244047Y000095520687D03*
X000199955937Y00009912068D03*
X000216044068Y000091920669D03*
X000197555942Y000096720685D03*
X000194555948Y000093120667D03*
X000196355944Y000094320664D03*
X000196955943Y000093120667D03*
X00021244405Y000094320664D03*
X000198755939Y00009912068D03*
X000193955949Y000094320664D03*
X000216644042Y000095520687D03*
X000208844057Y000096720685D03*
X000196355944Y00009912068D03*
X000194555948Y000097920683D03*
X000195755945Y000093120667D03*
X000211844051Y000095520687D03*
Y000097920683D03*
X000195755945Y000095520687D03*
X000214844045Y00009912068D03*
X000215444044Y000095520687D03*
X000213644048Y000091920669D03*
X000210644054Y000095520687D03*
X000196955943Y000097920683D03*
X00019335595Y000093120667D03*
X000194555948Y000095520687D03*
X000209444056Y000097920683D03*
X000195155921Y000096720685D03*
X000211244053Y00009912068D03*
X000197555942Y000091920669D03*
X000199955937Y000094320664D03*
Y000091920669D03*
X000198155915Y000095520687D03*
X000208244059Y000097920683D03*
X000199355938Y000093120667D03*
X000216044068Y00009912068D03*
X000211244053Y000091920669D03*
X000209444056Y000093120667D03*
Y000095520687D03*
X000216644042Y000093120667D03*
X000199955937Y000096720685D03*
X000216044068Y000094320664D03*
X000215444044Y000093120667D03*
X000211844051D03*
X000196355944Y000091920669D03*
X000216044068Y000096720685D03*
X000199355938Y000095520687D03*
X000193955949Y000096720685D03*
X00019335595Y000095520687D03*
X000214844045Y000091920669D03*
X000214244047Y000097920683D03*
X000201603305Y000092172993D03*
X000202372036Y000095036513D03*
X000198028001Y000090448104D03*
X000193828009D03*
X000203373355Y000098480676D03*
X000203600227Y000099656036D03*
X000203103149Y000097314588D03*
X000199800692Y00009072438D03*
X000201294949Y000091659405D03*
X000202218213Y000093855235D03*
X000195028007Y000090448104D03*
X000196228004D03*
X000198622437Y000090518157D03*
X000197428002Y000090448104D03*
X00019322801D03*
X000202354154Y000094438089D03*
X00019921474Y00009060373D03*
X000194428008Y000090448104D03*
X000202760529Y00009616793D03*
X000203491236Y000099067518D03*
X000202055907Y000093279163D03*
X000195628006Y000090448104D03*
X000202539904Y000095611823D03*
X000201856797Y000092714876D03*
X000200882427Y000091224633D03*
X000200368128Y000090917014D03*
X000196828003Y000090448104D03*
X000203244399Y000097896222D03*
X000202943968Y000096737627D03*
X000207056024D03*
X000206755619Y000097896222D03*
X000213171989Y000090448104D03*
X000209631864Y000090917014D03*
X000209117565Y000091224633D03*
X000208143195Y000092714876D03*
X000207460062Y000095611823D03*
X000214371986Y000090448104D03*
X000207944085Y000093279163D03*
X000206508756Y000099067518D03*
X000207239463Y00009616793D03*
X000215571984Y000090448104D03*
X000210785278Y00009060373D03*
X000207645838Y000094438089D03*
X000216771982Y000090448104D03*
X000212571965D03*
X000211377555Y000090518157D03*
X000213771988Y000090448104D03*
X00021497196D03*
X000207781779Y000093855235D03*
X000208705043Y000091659405D03*
X000210199274Y00009072438D03*
X000206896817Y000097314588D03*
X00020639979Y000099656036D03*
X000206626612Y000098480676D03*
X000216171983Y000090448104D03*
X000211971966D03*
X000207627956Y000095036513D03*
X000208396662Y000092172993D03*
X000206020466Y000035002393D03*
X0002039795D03*
X000204999996D03*
X00020557048Y000035702392D03*
X0002039795Y000036402391D03*
X000206020466D03*
X000204999996D03*
X000204429487Y000035702392D03*
X000205570505Y000064300785D03*
X000204999996Y000063600787D03*
X0002039795D03*
X000206020492D03*
X000204429487Y000064300785D03*
X000204999996Y000065000784D03*
X000206020492D03*
X0002039795D03*
X000058396682Y000044670776D03*
X000057627951Y000047534296D03*
X000061971986Y000042945888D03*
X000066171978D03*
X000056626607Y000050978485D03*
X00005639976Y000052153845D03*
X000056896838Y000049812397D03*
X000060199295Y000043222164D03*
X000058705038Y000044157188D03*
X000057781774Y000046353018D03*
X00006497198Y000042945888D03*
X000063771983D03*
X00006137755Y000043015966D03*
X000062571985Y000042945888D03*
X000066771977D03*
X000057645833Y000046935898D03*
X000060785248Y000043101539D03*
X000065571979Y000042945888D03*
X000057239458Y000048665714D03*
X000056508751Y000051565302D03*
X00005794408Y000045776946D03*
X000064371982Y000042945888D03*
X000057460057Y000048109606D03*
X00005814319Y00004521266D03*
X00005911756Y000043722417D03*
X000059631834Y000043414797D03*
X000063171984Y000042945888D03*
X000056755588Y000050394006D03*
X00005705602Y00004923541D03*
X000052943963D03*
X000053244394Y000050394006D03*
X000046827998Y000042945888D03*
X000050368149Y000043414797D03*
X000050882423Y000043722417D03*
X000051856792Y00004521266D03*
X000052539925Y000048109606D03*
X000045628001Y000042945888D03*
X000052055903Y000045776946D03*
X000053491231Y000051565302D03*
X000052760524Y000048665714D03*
X000044428003Y000042945888D03*
X000049214709Y000043101539D03*
X000052354149Y000046935898D03*
X000043228006Y000042945888D03*
X000047427997D03*
X000048622432Y000043015966D03*
X000046228Y000042945888D03*
X000045028002D03*
X000052218209Y000046353018D03*
X000051294944Y000044157188D03*
X000049800687Y000043222164D03*
X000053103145Y000049812397D03*
X000053600197Y000052153845D03*
X000053373375Y000050978485D03*
X000043828004Y000042945888D03*
X000048027996D03*
X000052372031Y000047534296D03*
X0000516033Y000044670776D03*
X000064244042Y000050418466D03*
X000064844041Y000044418478D03*
X000043355945Y000048018471D03*
X000043955944Y000049218469D03*
X000049355933Y000048018471D03*
X000066044038Y000049218469D03*
X000046355939Y000044418478D03*
X000061844047Y000045618476D03*
X000065444039D03*
X000066044038Y000046818473D03*
X000049955932Y000049218469D03*
X000066644037Y000045618476D03*
X000059444026Y000048018471D03*
Y000045618476D03*
X000061244048Y000044418478D03*
X000066044038Y000051618464D03*
X000049355933Y000045618476D03*
X000058244028Y000050418466D03*
X000048155936Y000048018471D03*
X000049955932Y000044418478D03*
Y000046818473D03*
X000047555937Y000044418478D03*
X000061244048Y000051618464D03*
X000045155942Y000049218469D03*
X000059444026Y000050418466D03*
X000044555943Y000048018471D03*
X000043355945Y000045618476D03*
X000046955938Y000050418466D03*
X000060644049Y000048018471D03*
X000063644043Y000044418478D03*
X000065444039Y000048018471D03*
X000064844041Y000051618464D03*
X000045755941Y000048018471D03*
X000061844047Y000050418466D03*
Y000048018471D03*
X000045755941Y000045618476D03*
X000044555943Y000050418466D03*
X000046355939Y000051618464D03*
X000058844053Y000049218469D03*
X000066644037Y000048018471D03*
X000043955944Y000046818473D03*
X000048755935Y000051618464D03*
X000062444045Y000046818473D03*
X000046955938Y000045618476D03*
X000046355939Y000046818473D03*
X000044555943Y000045618476D03*
X000047555937Y000049218469D03*
X000066044038Y000044418478D03*
X000049955932Y000051618464D03*
X000064244042Y000048018471D03*
X00005115593Y000049218469D03*
X000063044044Y000045618476D03*
X000043955944Y000044418478D03*
X00005115593Y000046818473D03*
X000046355939Y000049218469D03*
X000051755929Y000050418466D03*
X000063044044D03*
X00006004405Y000051618464D03*
Y000049218469D03*
X000063644043Y000046818473D03*
Y000049218469D03*
X000047555937Y000051618464D03*
X000062444045D03*
X000058844053D03*
X000061244048Y000049218469D03*
X000064844041D03*
X000063044044Y000048018471D03*
X00006004405Y000046818473D03*
X000045755941Y000050418466D03*
X000063644043Y000051618464D03*
X000060644049Y000050418466D03*
X000065444039D03*
X000050555931Y000045618476D03*
X000052355927Y000051618464D03*
X000050555931Y000050418466D03*
X000048155936Y000045618476D03*
X000058844053Y000046818473D03*
X00006004405Y000044418478D03*
X000045155942Y000051618464D03*
X000057644055D03*
X000045155942Y000044418478D03*
X000066644037Y000050418466D03*
X000048155936D03*
X000048755935Y000049218469D03*
X000049355933Y000050418466D03*
X000064844041Y000046818473D03*
X000062444045Y000044418478D03*
X000048755935D03*
X000046955938Y000048018471D03*
X000047555937Y000046818473D03*
X000043355945Y000050418466D03*
X000064244042Y000045618476D03*
X000060644049D03*
X000048755935Y000046818473D03*
X000050555931Y000048018471D03*
X00005115593Y000051618464D03*
X000043955944D03*
X000062444045Y000049218469D03*
X000061244048Y000046818473D03*
X000045155942D03*
X000075155933Y000054318865D03*
X000091244039D03*
X000092444036Y000056718885D03*
X000073955935Y000059118881D03*
X000081155946D03*
X000080555947Y000055518888D03*
X000078755925Y000054318865D03*
X00009064404Y000053118867D03*
X000094244058D03*
X000073355936Y000057918883D03*
X000077555928Y000054318865D03*
X000076955929Y000055518888D03*
X000078755925Y00005191887D03*
X000092444036D03*
X000094844057Y000054318865D03*
X00007935595Y000057918883D03*
X000078755925Y000056718885D03*
X000078155927Y000057918883D03*
X000096644053D03*
X000075155933Y00005191887D03*
X000087644046Y000059118881D03*
X000075155933D03*
X000090044041Y00005191887D03*
X000088844043Y000054318865D03*
X000078155927Y000053118867D03*
X000080555947Y000057918883D03*
X000082355944Y000059118881D03*
X000080555947Y000053118867D03*
X000095444056Y000057918883D03*
X00009064404D03*
X000093644059Y000059118881D03*
X000075755931Y000057918883D03*
X000090044041Y000054318865D03*
X000093044035Y000055518888D03*
X000094844057Y000056718885D03*
X000091244039D03*
X000088844043Y000059118881D03*
X000092444036D03*
X000077555928D03*
X000093644059Y000056718885D03*
Y000054318865D03*
X000090044041Y000056718885D03*
Y000059118881D03*
X000093044035Y000057918883D03*
X000081755945D03*
X00007635593Y000056718885D03*
X000081155946Y000054318865D03*
X000073955935Y00005191887D03*
X000093044035Y000053118867D03*
X000081155946Y000056718885D03*
X000094244058Y000055518888D03*
X000079955948Y000059118881D03*
X000096044054Y00005191887D03*
X000077555928Y000056718885D03*
X000074555934Y000053118867D03*
X00007635593Y000054318865D03*
X000076955929Y000053118867D03*
X000092444036Y000054318865D03*
X000078755925Y000059118881D03*
X000073955935Y000054318865D03*
X000096644053Y000055518888D03*
X000088844043Y000056718885D03*
X00007635593Y000059118881D03*
X000074555934Y000057918883D03*
X000075755931Y000053118867D03*
X000091844037Y000055518888D03*
Y000057918883D03*
X000075755931Y000055518888D03*
X000094844057Y000059118881D03*
X000095444056Y000055518888D03*
X000093644059Y00005191887D03*
X00009064404Y000055518888D03*
X000076955929Y000057918883D03*
X000073355936Y000053118867D03*
X000074555934Y000055518888D03*
X000089444042Y000057918883D03*
X000075155933Y000056718885D03*
X000091244039Y000059118881D03*
X000077555928Y00005191887D03*
X000079955948Y000054318865D03*
Y00005191887D03*
X000078155927Y000055518888D03*
X000088244045Y000057918883D03*
X00007935595Y000053118867D03*
X000096044054Y000059118881D03*
X000091244039Y00005191887D03*
X000089444042Y000053118867D03*
Y000055518888D03*
X000096644053Y000053118867D03*
X000079955948Y000056718885D03*
X000096044054Y000054318865D03*
X000095444056Y000053118867D03*
X000091844037D03*
X00007635593Y00005191887D03*
X000096044054Y000056718885D03*
X00007935595Y000055518888D03*
X000073955935Y000056718885D03*
X000073355936Y000055518888D03*
X000094844057Y00005191887D03*
X000094244058Y000057918883D03*
X000081603316Y000052171193D03*
X000082372047Y000055034713D03*
X000078028012Y000050446279D03*
X000073827995D03*
X000083373366Y000058478877D03*
X000083600213Y000059654236D03*
X000083103161Y000057312788D03*
X000079800704Y00005072258D03*
X000081294935Y000051657605D03*
X000082218225Y00005385341D03*
X000075028018Y000050446279D03*
X000076228016D03*
X000078622423Y000050516358D03*
X000077428013Y000050446279D03*
X000073227996D03*
X000082354166Y000054436289D03*
X000079214726Y00005060193D03*
X000074427994Y000050446279D03*
X000082760515Y000056166105D03*
X000083491247Y000059065718D03*
X000082055919Y000053277338D03*
X000075627992Y000050446279D03*
X000082539916Y000055610023D03*
X000081856808Y000052713077D03*
X000080882439Y000051222808D03*
X00008036814Y000050915214D03*
X000076828015Y000050446279D03*
X000083244385Y000057894423D03*
X000082943979Y000056735827D03*
X00008705601D03*
X000086755579Y000057894423D03*
X000093171975Y000050446279D03*
X00008963185Y000050915214D03*
X000089117551Y000051222808D03*
X000088143181Y000052713077D03*
X000087460074Y000055610023D03*
X000094371972Y000050446279D03*
X000087944071Y000053277338D03*
X000086508742Y000059065718D03*
X000087239449Y000056166105D03*
X00009557197Y000050446279D03*
X000090785264Y00005060193D03*
X000087645824Y000054436289D03*
X000096771968Y000050446279D03*
X000092571976D03*
X000091377566Y000050516358D03*
X000093771974Y000050446279D03*
X000094971971D03*
X000087781765Y00005385341D03*
X000088705029Y000051657605D03*
X000090199286Y00005072258D03*
X000086896829Y000057312788D03*
X000086399776Y000059654236D03*
X000086626598Y000058478877D03*
X000096171969Y000050446279D03*
X000091971977D03*
X000087627942Y000055034713D03*
X000088396673Y000052171193D03*
X000118396689Y00005717159D03*
X000117627958Y000060035109D03*
X000121971968Y000055446676D03*
X000126171985D03*
X000116626614Y000063479299D03*
X000116399767Y000064654658D03*
X000116896819Y000062313185D03*
X000120199277Y000055722977D03*
X000118705045Y000056658002D03*
X000117781755Y000058853806D03*
X000124971987Y000055446676D03*
X000123771964D03*
X000121377557Y000055516754D03*
X000122571967Y000055446676D03*
X000126771984D03*
X000117645815Y000059436685D03*
X000120785255Y000055602327D03*
X000125571986Y000055446676D03*
X000117239465Y000061166527D03*
X000116508758Y000064066115D03*
X000117944087Y00005827776D03*
X000124371989Y000055446676D03*
X000117460064Y000060610419D03*
X000118143197Y000057713473D03*
X000119117567Y00005622323D03*
X000119631841Y00005591561D03*
X000123171966Y000055446676D03*
X000116755595Y000062894819D03*
X000117056027Y000061736224D03*
X00011294397D03*
X000113244376Y000062894819D03*
X000106828005Y000055446676D03*
X00011036813Y00005591561D03*
X00011088243Y00005622323D03*
X000111856799Y000057713473D03*
X000112539907Y000060610419D03*
X000105628008Y000055446676D03*
X00011205591Y00005827776D03*
X000113491238Y000064066115D03*
X000112760531Y000061166527D03*
X00010442801Y000055446676D03*
X000109214716Y000055602327D03*
X000112354156Y000059436685D03*
X000103228013Y000055446676D03*
X000107428004D03*
X000108622439Y000055516754D03*
X000106228007Y000055446676D03*
X000105028009D03*
X000112218216Y000058853806D03*
X000111294951Y000056658002D03*
X000109800694Y000055722977D03*
X000113103152Y000062313185D03*
X000113600204Y000064654658D03*
X000113373382Y000063479299D03*
X000103828011Y000055446676D03*
X000108028003D03*
X000112372038Y000060035109D03*
X000111603307Y00005717159D03*
X000124244049Y000062919279D03*
X000124844048Y000056919266D03*
X000103355927Y000060519284D03*
X000103955926Y000061719282D03*
X00010935594Y000060519284D03*
X000126044045Y000061719282D03*
X000106355946Y000056919266D03*
X000121844054Y000058119289D03*
X000125444046D03*
X000126044045Y000059319287D03*
X000109955939Y000061719282D03*
X000126644044Y000058119289D03*
X000119444058Y000060519284D03*
Y000058119289D03*
X000121244055Y000056919266D03*
X000126044045Y000064119277D03*
X00010935594Y000058119289D03*
X000118244035Y000062919279D03*
X000108155943Y000060519284D03*
X000109955939Y000056919266D03*
Y000059319287D03*
X000107555944Y000056919266D03*
X000121244055Y000064119277D03*
X000105155949Y000061719282D03*
X000119444058Y000062919279D03*
X000104555925Y000060519284D03*
X000103355927Y000058119289D03*
X000106955945Y000062919279D03*
X000120644056Y000060519284D03*
X00012364405Y000056919266D03*
X000125444046Y000060519284D03*
X000124844048Y000064119277D03*
X000105755948Y000060519284D03*
X000121844054Y000062919279D03*
Y000060519284D03*
X000105755948Y000058119289D03*
X000104555925Y000062919279D03*
X000106355946Y000064119277D03*
X00011884406Y000061719282D03*
X000126644044Y000060519284D03*
X000103955926Y000059319287D03*
X000108755942Y000064119277D03*
X000122444052Y000059319287D03*
X000106955945Y000058119289D03*
X000106355946Y000059319287D03*
X000104555925Y000058119289D03*
X000107555944Y000061719282D03*
X000126044045Y000056919266D03*
X000109955939Y000064119277D03*
X000124244049Y000060519284D03*
X000111155937Y000061719282D03*
X000123044051Y000058119289D03*
X000103955926Y000056919266D03*
X000111155937Y000059319287D03*
X000106355946Y000061719282D03*
X000111755936Y000062919279D03*
X000123044051D03*
X000120044057Y000064119277D03*
Y000061719282D03*
X00012364405Y000059319287D03*
Y000061719282D03*
X000107555944Y000064119277D03*
X000122444052D03*
X00011884406D03*
X000121244055Y000061719282D03*
X000124844048D03*
X000123044051Y000060519284D03*
X000120044057Y000059319287D03*
X000105755948Y000062919279D03*
X00012364405Y000064119277D03*
X000120644056Y000062919279D03*
X000125444046D03*
X000110555938Y000058119289D03*
X000112355934Y000064119277D03*
X000110555938Y000062919279D03*
X000108155943Y000058119289D03*
X00011884406Y000059319287D03*
X000120044057Y000056919266D03*
X000105155949Y000064119277D03*
X000117644037D03*
X000105155949Y000056919266D03*
X000126644044Y000062919279D03*
X000108155943D03*
X000108755942Y000061719282D03*
X00010935594Y000062919279D03*
X000124844048Y000059319287D03*
X000122444052Y000056919266D03*
X000108755942D03*
X000106955945Y000060519284D03*
X000107555944Y000059319287D03*
X000103355927Y000062919279D03*
X000124244049Y000058119289D03*
X000120644056D03*
X000108755942Y000059319287D03*
X000110555938Y000060519284D03*
X000111155937Y000064119277D03*
X000103955926D03*
X000122444052Y000061719282D03*
X000121244055Y000059319287D03*
X000105155949D03*
X00013515594Y000094319674D03*
X000151244046D03*
X000152444043Y000096719669D03*
X000133955942Y00009911969D03*
X000141155928D03*
X000140555929Y000095519671D03*
X000138755932Y000094319674D03*
X000150644047Y000093119676D03*
X00015424404D03*
X000133355943Y000097919667D03*
X000137555935Y000094319674D03*
X000136955936Y000095519671D03*
X000138755932Y000091919679D03*
X000152444043D03*
X000154844038Y000094319674D03*
X000139355957Y000097919667D03*
X000138755932Y000096719669D03*
X000138155934Y000097919667D03*
X000156644035D03*
X00013515594Y000091919679D03*
X000147644053Y00009911969D03*
X00013515594D03*
X000150044048Y000091919679D03*
X00014884405Y000094319674D03*
X000138155934Y000093119676D03*
X000140555929Y000097919667D03*
X000142355951Y00009911969D03*
X000140555929Y000093119676D03*
X000155444037Y000097919667D03*
X000150644047D03*
X000153644041Y00009911969D03*
X000135755938Y000097919667D03*
X000150044048Y000094319674D03*
X000153044067Y000095519671D03*
X000154844038Y000096719669D03*
X000151244046D03*
X00014884405Y00009911969D03*
X000152444043D03*
X000137555935D03*
X000153644041Y000096719669D03*
Y000094319674D03*
X000150044048Y000096719669D03*
Y00009911969D03*
X000153044067Y000097919667D03*
X000141755926D03*
X000136355937Y000096719669D03*
X000141155928Y000094319674D03*
X000133955942Y000091919679D03*
X000153044067Y000093119676D03*
X000141155928Y000096719669D03*
X00015424404Y000095519671D03*
X00013995593Y00009911969D03*
X000156044061Y000091919679D03*
X000137555935Y000096719669D03*
X000134555941Y000093119676D03*
X000136355937Y000094319674D03*
X000136955936Y000093119676D03*
X000152444043Y000094319674D03*
X000138755932Y00009911969D03*
X000133955942Y000094319674D03*
X000156644035Y000095519671D03*
X00014884405Y000096719669D03*
X000136355937Y00009911969D03*
X000134555941Y000097919667D03*
X000135755938Y000093119676D03*
X000151844044Y000095519671D03*
Y000097919667D03*
X000135755938Y000095519671D03*
X000154844038Y00009911969D03*
X000155444037Y000095519671D03*
X000153644041Y000091919679D03*
X000150644047Y000095519671D03*
X000136955936Y000097919667D03*
X000133355943Y000093119676D03*
X000134555941Y000095519671D03*
X000149444049Y000097919667D03*
X00013515594Y000096719669D03*
X000151244046Y00009911969D03*
X000137555935Y000091919679D03*
X00013995593Y000094319674D03*
Y000091919679D03*
X000138155934Y000095519671D03*
X000148244052Y000097919667D03*
X000139355957Y000093119676D03*
X000156044061Y00009911969D03*
X000151244046Y000091919679D03*
X000149444049Y000093119676D03*
Y000095519671D03*
X000156644035Y000093119676D03*
X00013995593Y000096719669D03*
X000156044061Y000094319674D03*
X000155444037Y000093119676D03*
X000151844044D03*
X000136355937Y000091919679D03*
X000156044061Y000096719669D03*
X000139355957Y000095519671D03*
X000133955942Y000096719669D03*
X000133355943Y000095519671D03*
X000154844038Y000091919679D03*
X00015424404Y000097919667D03*
X000141603298Y000092172002D03*
X000142372054Y000095035497D03*
X000138028019Y000090447088D03*
X000133828002D03*
X000143373373Y000098479686D03*
X000143600195Y000099655045D03*
X000143103142Y000097313597D03*
X000139800685Y000090723389D03*
X000141294942Y000091658414D03*
X000142218206Y000093854219D03*
X000135028Y000090447088D03*
X000136228023D03*
X00013862243Y000090517167D03*
X000137427995Y000090447088D03*
X000133228029D03*
X000142354147Y000094437098D03*
X000139214733Y000090602739D03*
X000134428001Y000090447088D03*
X000142760522Y00009616694D03*
X000143491254Y000099066502D03*
X0001420559Y000093278147D03*
X000135627999Y000090447088D03*
X000142539923Y000095610832D03*
X00014185679Y00009271386D03*
X000140882446Y000091223617D03*
X000140368147Y000090916023D03*
X000136827996Y000090447088D03*
X000143244392Y000097895206D03*
X000142943961Y000096736611D03*
X000147056017D03*
X000146755612Y000097895206D03*
X000153171982Y000090447088D03*
X000149631857Y000090916023D03*
X000149117558Y000091223617D03*
X000148143188Y00009271386D03*
X000147460055Y000095610832D03*
X000154371979Y000090447088D03*
X000147944078Y000093278147D03*
X000146508749Y000099066502D03*
X000147239456Y00009616694D03*
X000155571977Y000090447088D03*
X000150785245Y000090602739D03*
X000147645831Y000094437098D03*
X000156771975Y000090447088D03*
X000152571983D03*
X000151377548Y000090517167D03*
X000153771981Y000090447088D03*
X000154971978D03*
X000147781772Y000093854219D03*
X000148705036Y000091658414D03*
X000150199293Y000090723389D03*
X000146896836Y000097313597D03*
X000146399783Y000099655045D03*
X000146626605Y000098479686D03*
X000156171976Y000090447088D03*
X000151971959D03*
X000147627949Y000095035497D03*
X000148396655Y000092172002D03*
X000178396671Y000092172409D03*
X00017762794Y000095035903D03*
X000181971975Y000090447495D03*
X000186171992D03*
X000176626596Y000098480092D03*
X000176399799Y000099655452D03*
X000176896826Y000097314004D03*
X000180199284Y00009072377D03*
X000178705027Y000091658795D03*
X000177781762Y000093854625D03*
X000184971969Y000090447495D03*
X000183771971D03*
X000181377539Y000090517573D03*
X000182571974Y000090447495D03*
X000186771965D03*
X000177645822Y000094437504D03*
X000180785236Y00009060312D03*
X000185571968Y000090447495D03*
X000177239447Y000096167321D03*
X00017650874Y000099066908D03*
X000177944068Y000093278553D03*
X00018437197Y000090447495D03*
X000177460071Y000095611238D03*
X000178143179Y000092714267D03*
X000179117548Y000091224023D03*
X000179631848Y000090916429D03*
X000183171998Y000090447495D03*
X000176755602Y000097895638D03*
X000177056008Y000096737017D03*
X000172943977D03*
X000173244383Y000097895638D03*
X000166828012Y000090447495D03*
X000170368137Y000090916429D03*
X000170882437Y000091224023D03*
X000171856806Y000092714267D03*
X000172539914Y000095611238D03*
X000165628015Y000090447495D03*
X000172055917Y000093278553D03*
X000173491245Y000099066908D03*
X000172760538Y000096167321D03*
X000164428017Y000090447495D03*
X000169214723Y00009060312D03*
X000172354163Y000094437504D03*
X00016322802Y000090447495D03*
X000167428011D03*
X000168622421Y000090517573D03*
X000166228014Y000090447495D03*
X000165028016D03*
X000172218223Y000093854625D03*
X000171294933Y000091658795D03*
X000169800676Y00009072377D03*
X000173103159Y000097314004D03*
X000173600211Y000099655452D03*
X000173373364Y000098480092D03*
X000163828018Y000090447495D03*
X00016802801D03*
X000172372045Y000095035903D03*
X000171603314Y000092172409D03*
X000184244056Y000097920073D03*
X000184844055Y000091920085D03*
X000163355959Y000095520078D03*
X000163955933Y000096720075D03*
X000169355947Y000095520078D03*
X000186044052Y000096720075D03*
X000166355953Y000091920085D03*
X000181844035Y000093120083D03*
X000185444053D03*
X000186044052Y00009432008D03*
X000169955946Y000096720075D03*
X000186644051Y000093120083D03*
X00017944404Y000095520078D03*
Y000093120083D03*
X000181244036Y000091920085D03*
X000186044052Y000099120071D03*
X000169355947Y000093120083D03*
X000178244042Y000097920073D03*
X000168155924Y000095520078D03*
X000169955946Y000091920085D03*
Y00009432008D03*
X000167555926Y000091920085D03*
X000181244036Y000099120071D03*
X00016515593Y000096720075D03*
X00017944404Y000097920073D03*
X000164555932Y000095520078D03*
X000163355959Y000093120083D03*
X000166955927Y000097920073D03*
X000180644038Y000095520078D03*
X000183644057Y000091920085D03*
X000185444053Y000095520078D03*
X000184844055Y000099120071D03*
X000165755929Y000095520078D03*
X000181844035Y000097920073D03*
Y000095520078D03*
X000165755929Y000093120083D03*
X000164555932Y000097920073D03*
X000166355953Y000099120071D03*
X000178844041Y000096720075D03*
X000186644051Y000095520078D03*
X000163955933Y00009432008D03*
X000168755949Y000099120071D03*
X000182444059Y00009432008D03*
X000166955927Y000093120083D03*
X000166355953Y00009432008D03*
X000164555932Y000093120083D03*
X000167555926Y000096720075D03*
X000186044052Y000091920085D03*
X000169955946Y000099120071D03*
X000184244056Y000095520078D03*
X000171155918Y000096720075D03*
X000183044058Y000093120083D03*
X000163955933Y000091920085D03*
X000171155918Y00009432008D03*
X000166355953Y000096720075D03*
X000171755943Y000097920073D03*
X000183044058D03*
X000180044064Y000099120071D03*
Y000096720075D03*
X000183644057Y00009432008D03*
Y000096720075D03*
X000167555926Y000099120071D03*
X000182444059D03*
X000178844041D03*
X000181244036Y000096720075D03*
X000184844055D03*
X000183044058Y000095520078D03*
X000180044064Y00009432008D03*
X000165755929Y000097920073D03*
X000183644057Y000099120071D03*
X000180644038Y000097920073D03*
X000185444053D03*
X000170555945Y000093120083D03*
X000172355941Y000099120071D03*
X000170555945Y000097920073D03*
X000168155924Y000093120083D03*
X000178844041Y00009432008D03*
X000180044064Y000091920085D03*
X00016515593Y000099120071D03*
X000177644044D03*
X00016515593Y000091920085D03*
X000186644051Y000097920073D03*
X000168155924D03*
X000168755949Y000096720075D03*
X000169355947Y000097920073D03*
X000184844055Y00009432008D03*
X000182444059Y000091920085D03*
X000168755949D03*
X000166955927Y000095520078D03*
X000167555926Y00009432008D03*
X000163355959Y000097920073D03*
X000184244056Y000093120083D03*
X000180644038D03*
X000168755949Y00009432008D03*
X000170555945Y000095520078D03*
X000171155918Y000099120071D03*
X000163955933D03*
X000182444059Y000096720075D03*
X000181244036Y00009432008D03*
X00016515593D03*
X000015155926Y000044318275D03*
X000031244032D03*
X000032444029Y00004671827D03*
X000013955928Y000049118266D03*
X000021155939D03*
X00002055594Y000045518273D03*
X000018755944Y000044318275D03*
X000030644033Y000043118278D03*
X000034244026D03*
X000013355929Y000047918268D03*
X000017555946Y000044318275D03*
X000016955947Y000045518273D03*
X000018755944Y00004191828D03*
X000032444029D03*
X00003484405Y000044318275D03*
X000019355943Y000047918268D03*
X000018755944Y00004671827D03*
X000018155945Y000047918268D03*
X000036644046D03*
X000015155926Y00004191828D03*
X000027644039Y000049118266D03*
X000015155926D03*
X000030044034Y00004191828D03*
X000028844036Y000044318275D03*
X000018155945Y000043118278D03*
X00002055594Y000047918268D03*
X000022355937Y000049118266D03*
X00002055594Y000043118278D03*
X000035444049Y000047918268D03*
X000030644033D03*
X000033644052Y000049118266D03*
X000015755924Y000047918268D03*
X000030044034Y000044318275D03*
X000033044028Y000045518273D03*
X00003484405Y00004671827D03*
X000031244032D03*
X000028844036Y000049118266D03*
X000032444029D03*
X000017555946D03*
X000033644052Y00004671827D03*
Y000044318275D03*
X000030044034Y00004671827D03*
Y000049118266D03*
X000033044028Y000047918268D03*
X000021755938D03*
X000016355949Y00004671827D03*
X000021155939Y000044318275D03*
X000013955928Y00004191828D03*
X000033044028Y000043118278D03*
X000021155939Y00004671827D03*
X000034244026Y000045518273D03*
X000019955941Y000049118266D03*
X000036044047Y00004191828D03*
X000017555946Y00004671827D03*
X000014555927Y000043118278D03*
X000016355949Y000044318275D03*
X000016955947Y000043118278D03*
X000032444029Y000044318275D03*
X000018755944Y000049118266D03*
X000013955928Y000044318275D03*
X000036644046Y000045518273D03*
X000028844036Y00004671827D03*
X000016355949Y000049118266D03*
X000014555927Y000047918268D03*
X000015755924Y000043118278D03*
X00003184403Y000045518273D03*
Y000047918268D03*
X000015755924Y000045518273D03*
X00003484405Y000049118266D03*
X000035444049Y000045518273D03*
X000033644052Y00004191828D03*
X000030644033Y000045518273D03*
X000016955947Y000047918268D03*
X000013355929Y000043118278D03*
X000014555927Y000045518273D03*
X000029444035Y000047918268D03*
X000015155926Y00004671827D03*
X000031244032Y000049118266D03*
X000017555946Y00004191828D03*
X000019955941Y000044318275D03*
Y00004191828D03*
X000018155945Y000045518273D03*
X000028244038Y000047918268D03*
X000019355943Y000043118278D03*
X000036044047Y000049118266D03*
X000031244032Y00004191828D03*
X000029444035Y000043118278D03*
Y000045518273D03*
X000036644046Y000043118278D03*
X000019955941Y00004671827D03*
X000036044047Y000044318275D03*
X000035444049Y000043118278D03*
X00003184403D03*
X000016355949Y00004191828D03*
X000036044047Y00004671827D03*
X000019355943Y000045518273D03*
X000013955928Y00004671827D03*
X000013355929Y000045518273D03*
X00003484405Y00004191828D03*
X000034244026Y000047918268D03*
X000021603309Y000042170604D03*
X000022372015Y000045034098D03*
X000018028005Y00004044569D03*
X000013827988D03*
X000023373359Y000048478287D03*
X000023600206Y000049653647D03*
X000023103154Y000047312199D03*
X000019800697Y000040721965D03*
X000021294953Y00004165699D03*
X000022218218Y00004385282D03*
X000015027986Y00004044569D03*
X000016228009D03*
X000018622416Y000040515768D03*
X000017428006Y00004044569D03*
X000013227989D03*
X000022354159Y000044435699D03*
X000019214719Y000040601315D03*
X000014427987Y00004044569D03*
X000022760533Y000046165516D03*
X000023491215Y000049065103D03*
X000022055912Y000043276748D03*
X000015627985Y00004044569D03*
X000022539909Y000045609433D03*
X000021856801Y000042712462D03*
X000020882432Y000041222218D03*
X000020368133Y000040914599D03*
X000016828008Y00004044569D03*
X000023244378Y000047893808D03*
X000022943972Y000046735212D03*
X000027056003D03*
X000026755598Y000047893808D03*
X000033171968Y00004044569D03*
X000029631843Y000040914599D03*
X000029117544Y000041222218D03*
X000028143174Y000042712462D03*
X000027460067Y000045609433D03*
X000034371965Y00004044569D03*
X000027944064Y000043276748D03*
X000026508735Y000049065103D03*
X000027239442Y000046165516D03*
X000035571988Y00004044569D03*
X000030785257Y000040601315D03*
X000027645817Y000044435699D03*
X000036771986Y00004044569D03*
X000032571969D03*
X000031377559Y000040515768D03*
X000033771967Y00004044569D03*
X00003497199D03*
X000027781758Y00004385282D03*
X000028705022Y00004165699D03*
X000030199279Y000040721965D03*
X000026896822Y000047312199D03*
X000026399769Y000049653647D03*
X000026626616Y000048478287D03*
X000036171987Y00004044569D03*
X00003197197D03*
X000027627935Y000045034098D03*
X000028396666Y000042170604D03*
X000173979509Y00007500018D03*
X000176020501D03*
X000175000005D03*
X000174429496Y000074300181D03*
X000176020501Y000073600183D03*
X000173979509D03*
X000175000005D03*
X000175570489Y000074300181D03*
X000174429496Y000025701802D03*
X000175000005Y000026401801D03*
X000176020476D03*
X000173979509D03*
X000175570489Y000025701802D03*
X000175000005Y000025001804D03*
X000173979509D03*
X000176020476D03*
M02*