%FSTAX66Y66*%
%MOMM*%
%SFA1B1*%

%IPPOS*%
%LNmtrl_0mm_thru_paste_bot-1*%
%LPD*%
G36*
X000111824998Y000060481972D02*
X000111342398Y000059999372D01*
X000109894598*
X000109411998Y000060481972*
Y000064516787*
X000109894598Y000064999387*
X000111824998*
Y000060481972*
G37*
G36*
X000090587982Y000059516365D02*
Y000055481575D01*
X000090105382Y000054998975*
X000088657582*
X000088174982Y000055481575*
Y000059998965*
X000090105382*
X000090587982Y000059516365*
G37*
G36*
X000081824982Y000055481575D02*
X000081342382Y000054998975D01*
X000079894582*
X000079411982Y000055481575*
Y000059516365*
X000079894582Y000059998965*
X000081824982*
Y000055481575*
G37*
G36*
X000060587991Y000052015974D02*
Y000047981184D01*
X000060105391Y000047498584*
X000058657591*
X000058174991Y000047981184*
Y000052498574*
X000060105391*
X000060587991Y000052015974*
G37*
G36*
X000051824991Y000047981184D02*
X000051342391Y000047498584D01*
X000049894591*
X000049411991Y000047981184*
Y000052015974*
X000049894591Y000052498574*
X000051824991*
Y000047981184*
G37*
G36*
X000030587975Y000049515776D02*
Y000045480986D01*
X000030105375Y000044998386*
X000028657575*
X000028174975Y000045480986*
Y000049998376*
X000030105375*
X000030587975Y000049515776*
G37*
G36*
X000021824975Y000045480986D02*
X000021342375Y000044998386D01*
X000019894575*
X000019411975Y000045480986*
Y000049515776*
X000019894575Y000049998376*
X000021824975*
Y000045480986*
G37*
G36*
X000111824998Y000004518406D02*
Y00000000099D01*
X000109894598*
X000109411998Y00000048359*
Y000004518406*
X000109894598Y000005001006*
X000111342398*
X000111824998Y000004518406*
G37*
G36*
X000090587982Y000004517999D02*
Y000000483184D01*
X000090105382Y000000000584*
X000088174982*
Y000004517999*
X000088657582Y000005000599*
X000090105382*
X000090587982Y000004517999*
G37*
G36*
X000081824982D02*
Y000000000584D01*
X000079894582*
X000079411982Y000000483184*
Y000004517999*
X000079894582Y000005000599*
X000081342382*
X000081824982Y000004517999*
G37*
G36*
X000060587991Y000004517593D02*
Y000000482777D01*
X000060105391Y000000000177*
X000058174991*
Y000004517593*
X000058657591Y000005000193*
X000060105391*
X000060587991Y000004517593*
G37*
G36*
X000051824991D02*
Y000000000177D01*
X000049894591*
X000049411991Y000000482777*
Y000004517593*
X000049894591Y000005000193*
X000051342391*
X000051824991Y000004517593*
G37*
G36*
X000030587975Y000004517186D02*
Y000000482396D01*
X000030105375Y-000000000177*
X000028174975*
Y000004517186*
X000028657575Y000004999786*
X000030105375*
X000030587975Y000004517186*
G37*
G36*
X000021824975D02*
Y-000000000177D01*
X000019894575*
X000019411975Y000000482396*
Y000004517186*
X000019894575Y000004999786*
X000021342375*
X000021824975Y000004517186*
G37*
G36*
X000120587998Y000004518406D02*
Y00000048359D01*
X000120105398Y00000000099*
X000118174998*
Y000004518406*
X000118657598Y000005001006*
X000120105398*
X000120587998Y000004518406*
G37*
G36*
X000141824989Y000004518787D02*
Y000000001397D01*
X000139894589*
X000139411989Y000000483997*
Y000004518787*
X000139894589Y000005001387*
X000141342389*
X000141824989Y000004518787*
G37*
G36*
X000150587989D02*
Y000000483997D01*
X000150105389Y000000001397*
X000148174989*
Y000004518787*
X000148657589Y000005001387*
X000150105389*
X000150587989Y000004518787*
G37*
G36*
X000171825005Y000004519193D02*
Y000000001803D01*
X000169894605*
X00016941198Y000000484403*
Y000004519193*
X000169894605Y000005001793*
X000171342405*
X000171825005Y000004519193*
G37*
G36*
X000180588005D02*
Y000000484403D01*
X000180105405Y000000001803*
X00017817498*
Y000004519193*
X000178657605Y000005001793*
X000180105405*
X000180588005Y000004519193*
G37*
G36*
X000201824996Y000004519803D02*
Y000000002387D01*
X000199894596*
X000199411996Y000000484987*
Y000004519803*
X000199894596Y000005002403*
X000201342396*
X000201824996Y000004519803*
G37*
G36*
X000210587996D02*
Y000000484987D01*
X000210105396Y000000002387*
X000208174996*
Y000004519803*
X000208657596Y000005002403*
X000210105396*
X000210587996Y000004519803*
G37*
G36*
X000120587998Y000064516787D02*
Y000060481972D01*
X000120105398Y000059999372*
X000118657598*
X000118174998Y000060481972*
Y000064999387*
X000120105398*
X000120587998Y000064516787*
G37*
G36*
X000141824989Y000095482384D02*
X000141342389Y000094999784D01*
X000139894589*
X000139411989Y000095482384*
Y0000995172*
X000139894589Y0000999998*
X000141824989*
Y000095482384*
G37*
G36*
X000150587989Y0000995172D02*
Y000095482384D01*
X000150105389Y000094999784*
X000148657589*
X000148174989Y000095482384*
Y0000999998*
X000150105389*
X000150587989Y0000995172*
G37*
G36*
X000171825005Y000095482791D02*
X000171342405Y000095000191D01*
X000169894605*
X00016941198Y000095482791*
Y000099517581*
X000169894605Y000100000181*
X000171825005*
Y000095482791*
G37*
G36*
X000180588005Y000099517581D02*
Y000095482791D01*
X000180105405Y000095000191*
X000178657605*
X00017817498Y000095482791*
Y000100000181*
X000180105405*
X000180588005Y000099517581*
G37*
G36*
X000201824996Y000095483375D02*
X000201342396Y000095000775D01*
X000199894596*
X000199411996Y000095483375*
Y00009951819*
X000199894596Y00010000079*
X000201824996*
Y000095483375*
G37*
G36*
X000210587996Y00009951819D02*
Y000095483375D01*
X000210105396Y000095000775*
X000208657596*
X000208174996Y000095483375*
Y00010000079*
X000210105396*
X000210587996Y00009951819*
G37*
M02*