%FSTAX66Y66*%
%MOMM*%
%SFA1B1*%

%IPPOS*%
%ADD23C,0.253999*%
%ADD24C,0.349999*%
%LNmtrl_0mm_thru_legend_top-1*%
%LPD*%
G54D23*
X000182412716Y000026525804D02*
X000182920741Y000025001804D01*
X000183428716Y000026525804*
X000182920741Y00007500018D02*
X000183428716Y00007347618D01*
X000182412716D02*
X000182920741Y00007500018D01*
Y000025001804D02*
Y000032472757D01*
Y000065829205D02*
Y00007500018D01*
X000182666716Y000025001804D02*
X000187221977D01*
X000182666716Y00007500018D02*
X000187221977D01*
X000189484482Y000005015738D02*
Y000004507915D01*
X000189738381Y000004253992*
X00019075405*
X000191008Y000004507915*
Y000005015738*
X00019075405Y000005269661*
X000189738381*
X000189484482Y000005015738*
X000191008Y000006031407D02*
X000189738381D01*
X000190246228*
Y000005777484*
Y000006285331*
Y000006031407*
X000189738381*
X000189484482Y000006285331*
X000191008Y000007301001D02*
X000189738381D01*
X000190246228*
Y000007047077*
Y000007554925*
Y000007301001*
X000189738381*
X000189484482Y000007554925*
X000191008Y000008316671D02*
Y000009078417D01*
X00019075405Y000009332341*
X000190500127Y000009078417*
Y000008570595*
X000190246228Y000008316671*
X000189992304Y000008570595*
Y000009332341*
X000191008Y000010601934D02*
Y000010094087D01*
X00019075405Y000009840188*
X000190246228*
X000189992304Y000010094087*
Y000010601934*
X000190246228Y000010855858*
X000190500127*
Y000009840188*
X000189738381Y000011617604D02*
X000189992304D01*
Y00001136368*
Y000011871528*
Y000011617604*
X00019075405*
X000191008Y000011871528*
X000190246228Y000012633274D02*
Y000013648944D01*
X000191008Y000014156766D02*
Y000014918537D01*
X00019075405Y000015172436*
X000190500127Y000014918537*
Y00001441069*
X000190246228Y000014156766*
X000189992304Y00001441069*
Y000015172436*
X000189484482Y000015680283D02*
X000191008D01*
X000190246228*
X000189992304Y000015934207*
Y000016442029*
X000190246228Y000016695953*
X000191008*
Y000017457699D02*
Y000017965547D01*
X00019075405Y00001821947*
X000190246228*
X000189992304Y000017965547*
Y000017457699*
X000190246228Y000017203801*
X00019075405*
X000191008Y000017457699*
X000189992304Y000018727293D02*
X000191008D01*
X000190500127*
X000190246228Y000018981216*
X000189992304Y00001923514*
Y000019489064*
X000189738381Y000020504734D02*
X000189992304D01*
Y00002025081*
Y000020758658*
Y000020504734*
X00019075405*
X000191008Y000020758658*
Y000023551743D02*
X000190500127Y000023043896D01*
X000189992304*
X000189484482Y000023551743*
X000191008Y000024313489D02*
Y000024821337D01*
Y000024567413*
X000189484482*
X000189738381Y000024313489*
Y000025583083D02*
X000189484482Y000025837007D01*
Y000026344829*
X000189738381Y000026598753*
X00019075405*
X000191008Y000026344829*
Y000025837007*
X00019075405Y000025583083*
X000189738381*
X000191008Y000027106575D02*
X000189992304D01*
Y000027360499*
X000190246228Y000027614422*
X000191008*
X000190246228*
X000189992304Y000027868346*
X000190246228Y000028122245*
X000191008*
Y000028630092D02*
X000189992304D01*
Y000028884016*
X000190246228Y000029137914*
X000191008*
X000190246228*
X000189992304Y000029391838*
X000190246228Y000029645762*
X000191008*
Y00003015361D02*
X000190500127Y000030661432D01*
X000189992304*
X000189484482Y00003015361*
X000159741006Y000005269661D02*
X000159487082Y000005015738D01*
Y000004507915*
X000159741006Y000004253992*
X000159994904*
X000160248828Y000004507915*
Y000005015738*
X000160502752Y000005269661*
X000160756676*
X0001610106Y000005015738*
Y000004507915*
X000160756676Y000004253992*
X000159487082Y000005777484D02*
X0001610106D01*
X000160248828*
X000159994904Y000006031407*
Y000006539255*
X000160248828Y000006793179*
X0001610106*
Y000007554925D02*
Y000008062747D01*
X000160756676Y000008316671*
X000160248828*
X000159994904Y000008062747*
Y000007554925*
X000160248828Y000007301001*
X000160756676*
X0001610106Y000007554925*
X000159994904Y000008824518D02*
X0001610106D01*
X000160502752*
X000160248828Y000009078417*
X000159994904Y000009332341*
Y000009586264*
X000159741006Y000010601934D02*
X000159994904D01*
Y00001034801*
Y000010855858*
Y000010601934*
X000160756676*
X0001610106Y000010855858*
Y000013648944D02*
X000160502752Y000013141096D01*
X000159994904*
X000159487082Y000013648944*
X000159741006Y00001441069D02*
X000159487082Y000014664613D01*
Y000015172436*
X000159741006Y000015426359*
X000160756676*
X0001610106Y000015172436*
Y000014664613*
X000160756676Y00001441069*
X000159741006*
X0001610106Y000015934207D02*
X000159994904D01*
Y000016188131*
X000160248828Y000016442029*
X0001610106*
X000160248828*
X000159994904Y000016695953*
X000160248828Y000016949877*
X0001610106*
Y000017457699D02*
X000159994904D01*
Y000017711623*
X000160248828Y000017965547*
X0001610106*
X000160248828*
X000159994904Y00001821947*
X000160248828Y000018473394*
X0001610106*
Y000018981216D02*
X000160502752Y000019489064D01*
X000159994904*
X000159487082Y000018981216*
X000129489682Y000004253992D02*
X0001310132D01*
Y000005269661*
Y000005777484D02*
Y000006285331D01*
Y000006031407*
X000129997504*
Y000005777484*
X0001310132Y000007047077D02*
X000129997504D01*
Y000007808849*
X000130251428Y000008062747*
X0001310132*
Y000009332341D02*
Y000008824518D01*
X000130759276Y000008570595*
X000130251428*
X000129997504Y000008824518*
Y000009332341*
X000130251428Y000009586264*
X000130505352*
Y000008570595*
X000129489682Y000012633274D02*
Y000011617604D01*
X000130251428*
X000129997504Y000012125426*
Y00001237935*
X000130251428Y000012633274*
X000130759276*
X0001310132Y00001237935*
Y000011871528*
X000130759276Y000011617604*
X0001310132Y000015172436D02*
X000130505352Y000014664613D01*
X000129997504*
X000129489682Y000015172436*
Y000016949877D02*
Y000015934207D01*
X000130251428*
X000129997504Y000016442029*
Y000016695953*
X000130251428Y000016949877*
X000130759276*
X0001310132Y000016695953*
Y000016188131*
X000130759276Y000015934207*
X000129743606Y000017457699D02*
X000129489682Y000017711623D01*
Y00001821947*
X000129743606Y000018473394*
X000130759276*
X0001310132Y00001821947*
Y000017711623*
X000130759276Y000017457699*
X000129743606*
X0001310132Y000018981216D02*
X000129997504D01*
Y00001923514*
X000130251428Y000019489064*
X0001310132*
X000130251428*
X000129997504Y000019742988*
X000130251428Y000019996886*
X0001310132*
Y000020504734D02*
X000129997504D01*
Y000020758658*
X000130251428Y000021012556*
X0001310132*
X000130251428*
X000129997504Y00002126648*
X000130251428Y000021520404*
X0001310132*
Y000022028226D02*
X000130505352Y000022536073D01*
X000129997504*
X000129489682Y000022028226*
X000099492282Y000004253992D02*
X0001010158D01*
Y000005269661*
Y000005777484D02*
Y000006285331D01*
Y000006031407*
X000100000104*
Y000005777484*
X0001010158Y000007047077D02*
X000100000104D01*
Y000007808849*
X000100254028Y000008062747*
X0001010158*
Y000009332341D02*
Y000008824518D01*
X000100761876Y000008570595*
X000100254028*
X000100000104Y000008824518*
Y000009332341*
X000100254028Y000009586264*
X000100507952*
Y000008570595*
X0001010158Y00001237935D02*
X000099492282D01*
X000100254028Y000011617604*
Y000012633274*
X0001010158Y000015172436D02*
X000100507952Y000014664613D01*
X000100000104*
X000099492282Y000015172436*
X0001010158Y000015934207D02*
Y000016442029D01*
Y000016188131*
X000099492282*
X000099746206Y000015934207*
X000099492282Y00001821947D02*
Y000017203801D01*
X000100254028*
X000100000104Y000017711623*
Y000017965547*
X000100254028Y00001821947*
X000100761876*
X0001010158Y000017965547*
Y000017457699*
X000100761876Y000017203801*
X0001010158Y000018727293D02*
X000100000104D01*
Y000018981216*
X000100254028Y00001923514*
X0001010158*
X000100254028*
X000100000104Y000019489064*
X000100254028Y000019742988*
X0001010158*
Y00002025081D02*
X000100000104D01*
Y000020504734*
X000100254028Y000020758658*
X0001010158*
X000100254028*
X000100000104Y000021012556*
X000100254028Y00002126648*
X0001010158*
Y000021774327D02*
X000100507952Y00002228215D01*
X000100000104*
X000099492282Y000021774327*
X000069494882Y000004253992D02*
X0000710184D01*
Y000005269661*
Y000005777484D02*
Y000006285331D01*
Y000006031407*
X000070002704*
Y000005777484*
X0000710184Y000007047077D02*
X000070002704D01*
Y000007808849*
X000070256628Y000008062747*
X0000710184*
Y000009332341D02*
Y000008824518D01*
X000070764476Y000008570595*
X000070256628*
X000070002704Y000008824518*
Y000009332341*
X000070256628Y000009586264*
X000070510552*
Y000008570595*
X000069748806Y000011617604D02*
X000069494882Y000011871528D01*
Y00001237935*
X000069748806Y000012633274*
X000070002704*
X000070256628Y00001237935*
Y000012125426*
Y00001237935*
X000070510552Y000012633274*
X000070764476*
X0000710184Y00001237935*
Y000011871528*
X000070764476Y000011617604*
X0000710184Y000015172436D02*
X000070510552Y000014664613D01*
X000070002704*
X000069494882Y000015172436*
X0000710184Y000015934207D02*
Y000016442029D01*
Y000016188131*
X000069494882*
X000069748806Y000015934207*
Y000017203801D02*
X000069494882Y000017457699D01*
Y000017965547*
X000069748806Y00001821947*
X000070764476*
X0000710184Y000017965547*
Y000017457699*
X000070764476Y000017203801*
X000069748806*
X0000710184Y000018727293D02*
X000070002704D01*
Y000018981216*
X000070256628Y00001923514*
X0000710184*
X000070256628*
X000070002704Y000019489064*
X000070256628Y000019742988*
X0000710184*
Y00002025081D02*
X000070002704D01*
Y000020504734*
X000070256628Y000020758658*
X0000710184*
X000070256628*
X000070002704Y000021012556*
X000070256628Y00002126648*
X0000710184*
Y000021774327D02*
X000070510552Y00002228215D01*
X000070002704*
X000069494882Y000021774327*
X000039497482Y000004253992D02*
X000041021D01*
Y000005269661*
Y000005777484D02*
Y000006285331D01*
Y000006031407*
X000040005304*
Y000005777484*
X000041021Y000007047077D02*
X000040005304D01*
Y000007808849*
X000040259228Y000008062747*
X000041021*
Y000009332341D02*
Y000008824518D01*
X000040767076Y000008570595*
X000040259228*
X000040005304Y000008824518*
Y000009332341*
X000040259228Y000009586264*
X000040513152*
Y000008570595*
X000041021Y000012633274D02*
Y000011617604D01*
X000040005304Y000012633274*
X000039751406*
X000039497482Y00001237935*
Y000011871528*
X000039751406Y000011617604*
X000041021Y000015172436D02*
X000040513152Y000014664613D01*
X000040005304*
X000039497482Y000015172436*
X000041021Y000016949877D02*
Y000015934207D01*
X000040005304Y000016949877*
X000039751406*
X000039497482Y000016695953*
Y000016188131*
X000039751406Y000015934207*
X000041021Y000017457699D02*
X000040767076D01*
Y000017711623*
X000041021*
Y000017457699*
X000039497482Y000019742988D02*
Y000018727293D01*
X000040259228*
X000040005304Y00001923514*
Y000019489064*
X000040259228Y000019742988*
X000040767076*
X000041021Y000019489064*
Y000018981216*
X000040767076Y000018727293*
X000041021Y00002025081D02*
X000040005304D01*
Y000020504734*
X000040259228Y000020758658*
X000041021*
X000040259228*
X000040005304Y000021012556*
X000040259228Y00002126648*
X000041021*
Y000021774327D02*
X000040005304D01*
Y000022028226*
X000040259228Y00002228215*
X000041021*
X000040259228*
X000040005304Y000022536073*
X000040259228Y000022789997*
X000041021*
Y000023297819D02*
X000040513152Y000023805667D01*
X000040005304*
X000039497482Y000023297819*
X000009500082Y000004253992D02*
X0000110236D01*
Y000005269661*
Y000005777484D02*
Y000006285331D01*
Y000006031407*
X000010007904*
Y000005777484*
X0000110236Y000007047077D02*
X000010007904D01*
Y000007808849*
X000010261828Y000008062747*
X0000110236*
Y000009332341D02*
Y000008824518D01*
X000010769676Y000008570595*
X000010261828*
X000010007904Y000008824518*
Y000009332341*
X000010261828Y000009586264*
X000010515752*
Y000008570595*
X0000110236Y000011617604D02*
Y000012125426D01*
Y000011871528*
X000009500082*
X000009754006Y000011617604*
X0000110236Y000014918537D02*
X000010515752Y00001441069D01*
X000010007904*
X000009500082Y000014918537*
X000009754006Y000015680283D02*
X000009500082Y000015934207D01*
Y000016442029*
X000009754006Y000016695953*
X000010769676*
X0000110236Y000016442029*
Y000015934207*
X000010769676Y000015680283*
X000009754006*
X0000110236Y000017203801D02*
X000010007904D01*
Y000017457699*
X000010261828Y000017711623*
X0000110236*
X000010261828*
X000010007904Y000017965547*
X000010261828Y00001821947*
X0000110236*
Y000018727293D02*
X000010007904D01*
Y000018981216*
X000010261828Y00001923514*
X0000110236*
X000010261828*
X000010007904Y000019489064*
X000010261828Y000019742988*
X0000110236*
Y00002025081D02*
X000010515752Y000020758658D01*
X000010007904*
X000009500082Y00002025081*
G54D24*
X000182604283Y000034655658D02*
X000182271035Y000034322435D01*
Y00003365599*
X000182604283Y000033322767*
X000183937173*
X000184270396Y00003365599*
Y000034322435*
X000183937173Y000034655658*
X000182937505Y000035655351D02*
Y000036321796D01*
X000183270728Y000036655019*
X000184270396*
Y000035655351*
X000183937173Y000035322129*
X00018360395Y000035655351*
Y000036655019*
X000184270396Y00003732149D02*
Y000037987935D01*
Y000037654712*
X000182271035*
Y00003732149*
X000184270396Y000038987603D02*
Y000039654048D01*
Y000039320825*
X000182937505*
Y000038987603*
X000182271035Y000040653741D02*
X000184270396D01*
Y000041653409*
X000183937173Y000041986631*
X00018360395*
X000183270728*
X000182937505Y000041653409*
Y000040653741*
Y000042653077D02*
X000184270396D01*
X00018360395*
X000183270728Y000042986325*
X000182937505Y000043319547*
Y00004365277*
Y00004498566D02*
Y000045652131D01*
X000183270728Y000045985353*
X000184270396*
Y00004498566*
X000183937173Y000044652438*
X00018360395Y00004498566*
Y000045985353*
X000182604283Y000046985021D02*
X000182937505D01*
Y000046651799*
Y000047318244*
Y000046985021*
X000183937173*
X000184270396Y000047318244*
Y000048317937D02*
Y000048984382D01*
Y00004865116*
X000182937505*
Y000048317937*
X000184270396Y000050317298D02*
Y000050983743D01*
X000183937173Y000051316966*
X000183270728*
X000182937505Y000050983743*
Y000050317298*
X000183270728Y00004998405*
X000183937173*
X000184270396Y000050317298*
Y000051983411D02*
X000182937505D01*
Y000052983079*
X000183270728Y000053316327*
X000184270396*
Y000055982133D02*
X000182271035D01*
Y000056981801*
X000182604283Y000057315023*
X000183270728*
X00018360395Y000056981801*
Y000055982133*
X000184270396Y000057981469D02*
Y000058647939D01*
Y000058314717*
X000182271035*
Y000057981469*
X000182937505Y00005998083D02*
Y000060647275D01*
X000183270728Y000060980523*
X000184270396*
Y00005998083*
X000183937173Y000059647607*
X00018360395Y00005998083*
Y000060980523*
X000184270396Y000061646968D02*
X000182937505D01*
Y000062646636*
X000183270728Y000062979858*
X000184270396*
Y000064645997D02*
Y000063979552D01*
X000183937173Y000063646329*
X000183270728*
X000182937505Y000063979552*
Y000064645997*
X000183270728Y000064979219*
X00018360395*
Y000063646329*
M02*