%FSTAX66Y66*%
%MOMM*%
%SFA1B1*%

%IPPOS*%
%LNmtrl_0mm_thru_legend_bot-1*%
%LPD*%
G36*
X000200449713Y000076306959D02*
X000200575214D01*
Y000076286055*
X000200679812*
Y000076265125*
X000200784409*
Y000076244196*
X000200847172*
Y000076223291*
X00020093084*
Y000076202362*
X000200993603*
Y000076181458*
X000201056367*
Y000076160528*
X0002010982*
Y000076139598*
X000201140034*
Y000076118694*
X000201181868*
Y000076097765*
X000201244631*
Y00007607686*
X000201286465*
Y000076055931*
X000201328299*
Y000076035027*
X000201349229*
Y000076014097*
X000201391062*
Y000075993167*
X000201432896*
Y000075972263*
X00020147473*
Y000075951334*
X00020149566*
Y000075930429*
X000201537493*
Y0000759095*
X000201558423*
Y000075888596*
X000201600257*
Y000075867666*
X000201621186*
Y000075846736*
X000201642091*
Y000075825832*
X000201683924*
Y000075804903*
X000201704854*
Y000075783998*
X000201725758*
Y000075763069*
X000201746688*
Y000075742139*
X000201788522*
Y000075721235*
X000201809426*
Y000075700305*
X000201830355*
Y000075679401*
X000201851285*
Y000075658472*
X000201872189*
Y000075637567*
X000201893119*
Y000075616638*
X000201914048*
Y000075595708*
X000201934953*
Y000075574804*
X000201955882*
Y000075553874*
X000201976786*
Y000075532945*
X000201997716*
Y000075512041*
X000202018646*
Y000075491136*
X00020203955*
Y000075470207*
X000202060479*
Y000075449277*
X000202081409*
Y000075407443*
X000202102313*
Y000075386539*
X000202123243*
Y00007536561*
X000202144147*
Y00007534468*
X000202165051*
Y000075302846*
X000202185981*
Y000075281942*
X000202206885*
Y000075240108*
X000202227815*
Y000075219179*
X000202248744*
Y000075177345*
X000202269648*
Y000075156415*
X000202290578*
Y000075114581*
X000202311508*
Y000075093677*
X000202332412*
Y000075051818*
X000202353341*
Y000075009984*
X000202374246*
Y00007496815*
X000202395175*
Y000074926317*
X000202416105*
Y000074884483*
X000202437009*
Y000074842649*
X000202457939*
Y000074779886*
X000202478868*
Y000074738026*
X000202499772*
Y000074675288*
X000202520702*
Y000074612525*
X000202541606*
Y000074549762*
X000202562536*
Y000074487024*
X000202583465*
Y000074403331*
X00020260437*
Y000074298759*
X000202625274*
Y000074152302*
X000202646203*
Y000040598318*
Y000040577414*
Y00002616426*
X000202625274*
Y000025975995*
X00020260437*
Y000025850469*
X000202583465*
Y000025745871*
X000202562536*
Y000025662204*
X000202541606*
Y00002559944*
X000202520702*
Y000025515773*
X000202499772*
Y000025453009*
X000202478868*
Y000025411176*
X000202457939*
Y000025348412*
X000202437009*
Y000025306578*
X000202416105*
Y000025243815*
X000202395175*
Y000025201981*
X000202374246*
Y000025160147*
X000202353341*
Y000025118314*
X000202332412*
Y000025076454*
X000202311508*
Y000025034621*
X000202290578*
Y000025013716*
X000202269648*
Y000024971883*
X000202248744*
Y000024930049*
X000202227815*
Y000024909119*
X000202206885*
Y000024867285*
X000202185981*
Y000024846356*
X000202165051*
Y000024804522*
X000202144147*
Y000024783618*
X000202123243*
Y000024762688*
X000202102313*
Y000024720854*
X000202081409*
Y000024699925*
X000202060479*
Y000024678995*
X00020203955*
Y000024637161*
X000202018646*
Y000024616257*
X000201997716*
Y000024595328*
X000201976786*
Y000024574423*
X000201955882*
Y000024553494*
X000201934953*
Y00002453259*
X000201914048*
Y00002451166*
X000201893119*
Y00002449073*
X000201872189*
Y000024469826*
X000201851285*
Y000024448897*
X000201830355*
Y000024427967*
X000201809426*
Y000024407063*
X000201788522*
Y000024386133*
X000201767617*
Y000024365229*
X000201746688*
Y000024344299*
X000201704854*
Y000024323395*
X000201683924*
Y000024302466*
X000201662995*
Y000024281536*
X000201642091*
Y000024260632*
X000201600257*
Y000024239702*
X000201579327*
Y000024218798*
X000201558423*
Y000024197868*
X000201516589*
Y000024176939*
X00020149566*
Y000024156035*
X000201453826*
Y000024135105*
X000201432896*
Y000024114201*
X000201391062*
Y000024093271*
X000201349229*
Y000024072367*
X000201307395*
Y000024051437*
X000201265536*
Y000024030508*
X000201223702*
Y000024009604*
X000201181868*
Y000023988674*
X000201140034*
Y00002396777*
X0002010982*
Y00002394684*
X000201056367*
Y000023925936*
X000200993603*
Y000023905006*
X00020093084*
Y000023884077*
X000200868076*
Y000023863173*
X000200784409*
Y000023842243*
X000200721645*
Y000023821339*
X000200596144*
Y000023800409*
X000200449713*
Y000023779505*
X000160076159*
Y000023800409*
X000159887869*
Y000023821339*
X000159783272*
Y000023842243*
X000159699604*
Y000023863173*
X000159615936*
Y000023884077*
X000159553173*
Y000023905006*
X00015949041*
Y000023925936*
X000159427646*
Y00002394684*
X000159385812*
Y00002396777*
X000159323049*
Y000023988674*
X000159281215*
Y000024009604*
X000159239381*
Y000024030508*
X000159197548*
Y000024051437*
X000159155714*
Y000024072367*
X00015911388*
Y000024093271*
X000159072046*
Y000024114201*
X000159051117*
Y000024135105*
X000159009283*
Y000024156035*
X000158967449*
Y000024176939*
X000158946519*
Y000024197868*
X000158904686*
Y000024218798*
X000158883756*
Y000024239702*
X000158841922*
Y000024260632*
X000158820993*
Y000024281536*
X000158800088*
Y000024302466*
X000158758255*
Y000024323395*
X000158737325*
Y000024344299*
X000158716421*
Y000024365229*
X000158695491*
Y000024386133*
X000158674587*
Y000024407063*
X000158653657*
Y000024427967*
X000158611824*
Y000024448897*
X000158590894*
Y000024469826*
X00015856999*
Y00002449073*
X000158549086*
Y00002451166*
X000158528131*
Y00002453259*
X000158507226*
Y000024553494*
X000158486297*
Y000024574423*
X000158465367*
Y000024595328*
X000158444463*
Y000024637161*
X000158423533*
Y000024658091*
X000158402629*
Y000024678995*
X000158381725*
Y000024699925*
X000158360795*
Y000024720854*
X000158339866*
Y000024762688*
X000158318962*
Y000024783618*
X000158298032*
Y000024804522*
X000158277128*
Y000024846356*
X000158256198*
Y000024867285*
X000158235269*
Y000024909119*
X000158214364*
Y000024930049*
X00015819346*
Y000024971883*
X000158172531*
Y000024992787*
X000158151626*
Y000025034621*
X000158130697*
Y000025076454*
X000158109767*
Y000025118314*
X000158088863*
Y000025160147*
X000158067933*
Y000025201981*
X000158047029*
Y000025243815*
X000158026074*
Y000025285649*
X000158005145*
Y000025327508*
X00015798424*
Y000025390246*
X000157963336*
Y000025453009*
X000157942407*
Y000025494843*
X000157921502*
Y000025578511*
X000157900573*
Y000025641274*
X000157879669*
Y000025745871*
X000157858739*
Y000025850469*
X000157837809*
Y0000259969*
X000157816905*
Y000074026801*
X000157795976*
Y000074319663*
X000157816905*
Y000074507928*
X000157837809*
Y000074612525*
X000157858739*
Y000074696218*
X000157879669*
Y000074758956*
X000157900573*
Y000074821719*
X000157921502*
Y000074884483*
X000157942407*
Y000074947221*
X000157963336*
Y000074989055*
X00015798424*
Y000075030914*
X000158005145*
Y000075072748*
X000158026074*
Y000075114581*
X000158047029*
Y000075156415*
X000158067933*
Y000075198249*
X000158088863*
Y000075219179*
X000158109767*
Y000075261012*
X000158130697*
Y000075302846*
X000158151626*
Y000075323776*
X000158172531*
Y00007536561*
X00015819346*
Y000075386539*
X000158214364*
Y000075407443*
X000158235269*
Y000075449277*
X000158256198*
Y000075470207*
X000158277128*
Y000075491136*
X000158298032*
Y000075512041*
X000158318962*
Y000075553874*
X000158339866*
Y000075574804*
X000158360795*
Y000075595708*
X000158381725*
Y000075616638*
X000158402629*
Y000075637567*
X000158423533*
Y000075658472*
X000158444463*
Y000075679401*
X000158465367*
Y000075700305*
X000158486297*
Y000075721235*
X000158507226*
Y000075742139*
X000158549086*
Y000075763069*
X00015856999*
Y000075783998*
X000158590894*
Y000075804903*
X000158611824*
Y000075825832*
X000158653657*
Y000075846736*
X000158674587*
Y000075867666*
X000158695491*
Y000075888596*
X000158716421*
Y0000759095*
X000158758255*
Y000075930429*
X000158779159*
Y000075951334*
X000158820993*
Y000075972263*
X000158862826*
Y000075993167*
X000158883756*
Y000076014097*
X00015892559*
Y000076035027*
X000158967449*
Y000076055931*
X000159009283*
Y00007607686*
X000159051117*
Y000076097765*
X00015909295*
Y000076118694*
X00015913481*
Y000076139598*
X000159176618*
Y000076160528*
X000159239381*
Y000076181458*
X000159302145*
Y000076202362*
X000159364908*
Y000076223291*
X000159427646*
Y000076244196*
X00015949041*
Y000076265125*
X000159595007*
Y000076286055*
X000159699604*
Y000076306959*
X000159825105*
Y000076327889*
X000200449713*
Y000076306959*
G37*
%LNmtrl_0mm_thru_legend_bot-2*%
%LPC*%
G36*
X000199110904Y000074445164D02*
X000161143035D01*
Y00007442426*
X000161017508*
Y000074403331*
X000160912911*
Y000074382426*
X000160829218*
Y000074361497*
X00016076648*
Y000074340593*
X000160724646*
Y000074319663*
X000160661883*
Y000074298759*
X000160620049*
Y000074277829*
X000160578215*
Y0000742569*
X000160536356*
Y000074235995*
X000160494522*
Y000074215066*
X000160452689*
Y000074194136*
X000160410855*
Y000074173232*
X000160368996*
Y000074152302*
X000160348091*
Y000074131398*
X000160306258*
Y000074110469*
X000160285328*
Y000074089564*
X000160264424*
Y000074068635*
X00016024352*
Y000074047705*
X00016020166*
Y000074026801*
X000160180756*
Y000074005871*
X000160159827*
Y000073984967*
X000160138897*
Y000073964038*
X000160117993*
Y000073943108*
X000160097063*
Y000073922204*
X000160076159*
Y0000739013*
X000160055229*
Y00007388037*
X0001600343*
Y00007385944*
X000160013396*
Y000073838536*
X000159992466*
Y000073817607*
X000159971536*
Y000073796677*
X000159950632*
Y000073775773*
X000159929728*
Y000073733939*
X000159908798*
Y000073713009*
X000159887869*
Y000073692105*
X000159866965*
Y000073650246*
X000159846035*
Y000073629342*
X000159825105*
Y000073587508*
X000159804201*
Y000073566578*
X000159783272*
Y000073524745*
X000159762367*
Y000073482911*
X000159741438*
Y000073461981*
X000159720534*
Y000073420147*
X000159699604*
Y000073378314*
X000159678674*
Y00007331555*
X00015965777*
Y000073273716*
X000159636841*
Y000073210953*
X000159615936*
Y000073148215*
X000159595007*
Y000073085452*
X000159574103*
Y000073022688*
X000159553173*
Y000072918091*
X000159532269*
Y00007277166*
X000159511339*
Y000034782861*
X000159532269*
Y000034657334*
X000159553173*
Y000034573667*
X000159574103*
Y000034489999*
X000159595007*
Y000034427236*
X000159615936*
Y000034364472*
X000159636841*
Y000034322639*
X00015965777*
Y000034259875*
X000159678674*
Y000034218041*
X000159699604*
Y000034176208*
X000159720534*
Y000034134374*
X000159741438*
Y000034113444*
X000159762367*
Y00003407161*
X000159783272*
Y000034029777*
X000159804201*
Y000034008847*
X000159825105*
Y000033967013*
X000159846035*
Y000033946109*
X000159866965*
Y000033925179*
X000159887869*
Y000033883346*
X000159908798*
Y000033862416*
X000159929728*
Y000033841512*
X000159950632*
Y000033820582*
X000159971536*
Y000033799678*
X000159992466*
Y000033778748*
X000160013396*
Y000033757819*
X0001600343*
Y000033736915*
X000160055229*
Y000033715985*
X000160076159*
Y000033695081*
X000160097063*
Y000033674151*
X000160117993*
Y000033653247*
X000160138897*
Y000033632317*
X000160159827*
Y000033611388*
X000160180756*
Y000033590484*
X00016020166*
Y000033569554*
X00016024352*
Y000033548624*
X000160264424*
Y00003352772*
X000160285328*
Y00003350679*
X000160327187*
Y000033485886*
X000160348091*
Y000033464957*
X000160389925*
Y000033444052*
X000160410855*
Y000033423123*
X000160452689*
Y000033402219*
X000160494522*
Y000033381289*
X000160536356*
Y000033360359*
X000160578215*
Y000033339455*
X000160620049*
Y000033318526*
X000160682813*
Y000033297596*
X000160724646*
Y000033276692*
X000160787384*
Y000033255788*
X000160850148*
Y000033234858*
X000160912911*
Y000033213929*
X000160996579*
Y000033193024*
X000161122106*
Y000033172095*
X000199173668*
Y000033193024*
X000199299169*
Y000033213929*
X000199382837*
Y000033234858*
X000199445575*
Y000033255788*
X000199529293*
Y000033276692*
X000199571127*
Y000033297596*
X000199633865*
Y000033318526*
X000199675699*
Y000033339455*
X000199717558*
Y000033360359*
X000199759392*
Y000033381289*
X000199801226*
Y000033402219*
X000199843059*
Y000033423123*
X000199884893*
Y000033444052*
X000199905797*
Y000033464957*
X000199947657*
Y000033485886*
X000199968586*
Y00003350679*
X00020001042*
Y00003352772*
X000200031324*
Y000033548624*
X000200052254*
Y000033569554*
X000200073158*
Y000033590484*
X000200094088*
Y000033611388*
X000200135921*
Y000033632317*
X000200156851*
Y000033653247*
X000200177755*
Y000033674151*
X000200198685*
Y000033695081*
X000200219589*
Y000033715985*
X000200240519*
Y000033736915*
X000200261423*
Y000033757819*
X000200282352*
Y000033778748*
X000200303257*
Y000033820582*
X000200324186*
Y000033841512*
X000200345116*
Y000033862416*
X00020036602*
Y000033883346*
X00020038695*
Y000033925179*
X000200407879*
Y000033946109*
X000200428783*
Y000033967013*
X000200449713*
Y000034008847*
X000200470617*
Y000034050706*
X000200491547*
Y00003407161*
X000200512476*
Y000034113444*
X000200533381*
Y000034155278*
X00020055431*
Y000034197137*
X000200575214*
Y000034238971*
X000200596144*
Y000034280805*
X000200617048*
Y000034322639*
X000200637978*
Y000034385402*
X000200658907*
Y000034427236*
X000200679812*
Y000034489999*
X000200700716*
Y000034573667*
X000200721645*
Y000034657334*
X000200742575*
Y000034782861*
X000200763479*
Y000072876257*
X000200742575*
Y000072980854*
X000200721645*
Y000073064522*
X000200700716*
Y000073148215*
X000200679812*
Y000073190049*
X000200658907*
Y000073252787*
X000200637978*
Y00007331555*
X000200617048*
Y000073357384*
X000200596144*
Y000073399218*
X000200575214*
Y000073441077*
X00020055431*
Y000073482911*
X000200533381*
Y000073524745*
X000200512476*
Y000073545649*
X000200491547*
Y000073587508*
X000200470617*
Y000073608412*
X000200449713*
Y000073650246*
X000200428783*
Y000073671176*
X000200407879*
Y000073692105*
X00020038695*
Y000073733939*
X00020036602*
Y000073754843*
X000200345116*
Y000073775773*
X000200324186*
Y000073796677*
X000200303257*
Y000073838536*
X000200282352*
Y00007385944*
X000200261423*
Y00007388037*
X000200240519*
Y0000739013*
X000200198685*
Y000073922204*
X000200177755*
Y000073943108*
X000200156851*
Y000073964038*
X000200135921*
Y000073984967*
X000200115017*
Y000074005871*
X000200094088*
Y000074026801*
X000200073158*
Y000074047705*
X000200052254*
Y000074068635*
X00020001042*
Y000074089564*
X000199989516*
Y000074110469*
X000199947657*
Y000074131398*
X000199926727*
Y000074152302*
X000199884893*
Y000074173232*
X000199843059*
Y000074194136*
X00019982213*
Y000074215066*
X000199780296*
Y000074235995*
X000199738462*
Y0000742569*
X000199696628*
Y000074277829*
X000199654795*
Y000074298759*
X000199592031*
Y000074319663*
X000199550197*
Y000074340593*
X000199487459*
Y000074361497*
X000199424671*
Y000074382426*
X000199341003*
Y000074403331*
X000199236406*
Y00007442426*
X000199110904*
Y000074445164*
G37*
G36*
X000185806435Y000031038368D02*
X000185513599D01*
Y000031017438*
X000185429906*
Y000030996534*
X000185367142*
Y000030975604*
X000185325308*
Y000030954675*
X000185304404*
Y000030933771*
X000185283475*
Y000030912841*
X000185262545*
Y000030891937*
X000185241641*
Y000030871007*
X000185220711*
Y000030850103*
X000185199807*
Y00003078734*
X000185178877*
Y000030724576*
X000185157948*
Y000030431714*
X000185178877*
Y000030368951*
X000185199807*
Y000030327117*
X000185220711*
Y000030306213*
X000185241641*
Y000030264379*
X000185262545*
Y000030243449*
X000185283475*
Y00003022252*
X000185325308*
Y000030201616*
X000185346238*
Y000030180686*
X000185388072*
Y000030159756*
X000185450835*
Y000030138852*
X000185534503*
Y000030117948*
X000185722768*
Y000030138852*
X000185848294*
Y000030159756*
X000185931962*
Y000030180686*
X000185973796*
Y000030201616*
X000185994725*
Y00003022252*
X000186036559*
Y000030243449*
X000186057489*
Y000030264379*
X000186078393*
Y000030306213*
X000186099323*
Y000030348047*
X000186120227*
Y00003038988*
X000186141156*
Y000030452644*
X000186162061*
Y000030703647*
X000186141156*
Y00003078734*
X000186120227*
Y000030829173*
X000186099323*
Y000030871007*
X000186078393*
Y000030891937*
X000186057489*
Y000030912841*
X000186036559*
Y000030933771*
X000186015655*
Y000030954675*
X000185973796*
Y000030975604*
X000185931962*
Y000030996534*
X000185890128*
Y000031017438*
X000185806435*
Y000031038368*
G37*
G36*
X000172606589D02*
X000171665239D01*
Y000029720489*
X000171686169*
Y000029385768*
X000171707073*
Y000029260266*
X000171665239*
Y00002928117*
X00017164431*
Y0000293021*
X000171623405*
Y000029343934*
X000171602476*
Y000029364838*
X000171581546*
Y000029385768*
X000171560642*
Y000029406697*
X000171539712*
Y000029427601*
X000171518808*
Y000029448531*
X000171497879*
Y000029469435*
X000171476949*
Y000029490365*
X000171456045*
Y000029511294*
X000171435141*
Y000029532199*
X000171393307*
Y000029553128*
X000171372377*
Y000029574032*
X000171351448*
Y000029594962*
X000171309614*
Y000029615866*
X000171267805*
Y000029636796*
X000171225946*
Y000029657725*
X000171184087*
Y00002967863*
X000171142253*
Y000029699559*
X00017107949*
Y000029720489*
X000170995848*
Y000029741393*
X000170849391*
Y000029762297*
X000170535625*
Y000029741393*
X000170410124*
Y000029720489*
X00017034736*
Y000029699559*
X000170263667*
Y00002967863*
X000170221833*
Y000029657725*
X00017015907*
Y000029636796*
X000170117236*
Y000029615866*
X000170096307*
Y000029594962*
X000170054498*
Y000029574032*
X000170033569*
Y000029553128*
X000169991735*
Y000029532199*
X000169970805*
Y000029511294*
X000169949901*
Y000029490365*
X000169928971*
Y000029469435*
X000169908067*
Y000029448531*
X000169887138*
Y000029427601*
X000169866208*
Y000029406697*
X000169845304*
Y000029385768*
X000169824374*
Y000029364838*
X000169803445*
Y000029343934*
X00016978254*
Y000029323004*
X000169761611*
Y00002928117*
X000169740707*
Y000029260266*
X000169719777*
Y000029218407*
X000169698847*
Y000029197503*
X000169677943*
Y000029155669*
X000169657039*
Y000029113835*
X000169636109*
Y000029071976*
X00016961518*
Y000029030142*
X000169594276*
Y000028988308*
X000169573346*
Y000028925545*
X000169552416*
Y000028883711*
X000169531512*
Y000028800044*
X000169510583*
Y00002873728*
X000169489678*
Y000028653613*
X000169468749*
Y000028549015*
X000169447845*
Y000028423489*
X000169426915*
Y00002817246*
X000169405985*
Y000027816835*
X000169426915*
Y000027565832*
X000169447845*
Y000027440305*
X000169468749*
Y000027335708*
X000169489678*
Y000027252041*
X000169510583*
Y000027168348*
X000169531512*
Y00002710561*
X000169552416*
Y000027063776*
X000169573346*
Y000027001012*
X000169594276*
Y000026959179*
X00016961518*
Y000026917345*
X000169636109*
Y000026875486*
X000169657039*
Y000026833652*
X000169677943*
Y000026791818*
X000169698847*
Y000026770888*
X000169719777*
Y000026729055*
X000169740707*
Y00002670815*
X000169761611*
Y000026687221*
X00016978254*
Y000026645387*
X000169803445*
Y000026624457*
X000169824374*
Y000026603553*
X000169845304*
Y000026582624*
X000169866208*
Y000026561719*
X000169887138*
Y00002654079*
X000169908067*
Y000026519886*
X000169928971*
Y000026498956*
X000169949901*
Y000026478026*
X000169970805*
Y000026457122*
X000170012639*
Y000026436193*
X000170033569*
Y000026415288*
X000170054498*
Y000026394359*
X000170096307*
Y000026373429*
X000170138166*
Y000026352525*
X00017018*
Y000026331595*
X000170221833*
Y000026310691*
X000170284597*
Y000026289762*
X00017034736*
Y000026268857*
X000170410124*
Y000026247928*
X000170535625*
Y000026226998*
X000170933084*
Y000026247928*
X000171058586*
Y000026268857*
X000171121349*
Y000026289762*
X000171184087*
Y000026310691*
X000171246876*
Y000026331595*
X00017128871*
Y000026352525*
X000171330543*
Y000026373429*
X000171372377*
Y000026394359*
X000171393307*
Y000026415288*
X000171435141*
Y000026436193*
X000171456045*
Y000026457122*
X000171476949*
Y000026478026*
X000171497879*
Y000026498956*
X000171539712*
Y000026519886*
X000171560642*
Y00002654079*
X000171581546*
Y000026561719*
X000171602476*
Y000026582624*
X000171623405*
Y000026624457*
X00017164431*
Y000026645387*
X000171748907*
Y000026582624*
X000171769836*
Y00002654079*
X000171790766*
Y000026498956*
X00017181167*
Y000026436193*
X0001718326*
Y000026394359*
X000171853504*
Y000026331595*
X000171874434*
Y000026289762*
X000171895338*
Y000026268857*
X000172585684*
Y000026289762*
X000172606589*
Y000031038368*
G37*
G36*
X000181434384Y000030745506D02*
X00018047213D01*
Y000029009238*
X000178714933*
Y000030745506*
X000177773584*
Y000026938249*
Y000026917345*
Y000026268857*
X000178694003*
Y000026289762*
X000178714933*
Y00002821432*
X00018047213*
Y000026289762*
X000180493035*
Y000026268857*
X000181413454*
Y000026289762*
X000181434384*
Y000030745506*
G37*
G36*
X00018875601Y000030808269D02*
X000188107523D01*
Y00003078734*
X000187982021*
Y00003076641*
X00018783559*
Y000030745506*
X000187730993*
Y000030724576*
X0001876473*
Y000030703647*
X000187584537*
Y000030682742*
X000187500869*
Y000030661838*
X000187417202*
Y000030640909*
X000187375368*
Y000030619979*
X00018731263*
Y000030599075*
X000187249841*
Y000030578145*
X000187187078*
Y000030557216*
X000187145244*
Y000030536311*
X00018712434*
Y000030515407*
X000187145244*
Y000030452644*
X000187166173*
Y000030410785*
X000187187078*
Y000030348047*
X000187208007*
Y000030306213*
X000187228937*
Y000030264379*
X000187249841*
Y000030201616*
X000187270771*
Y000030159756*
X0001872917*
Y000030097018*
X00018731263*
Y000030055185*
X000187333534*
Y000030013325*
X000187354438*
Y000029950587*
X000187375368*
Y000029908754*
X000187396297*
Y00002984599*
X000187417202*
Y000029804156*
X000187438131*
Y000029783227*
X000187459035*
Y000029804156*
X000187500869*
Y000029825061*
X000187563633*
Y00002984599*
X000187605466*
Y000029866894*
X00018766823*
Y000029887824*
X000187730993*
Y000029908754*
X000187793757*
Y000029929658*
X000187877424*
Y000029950587*
X000187940188*
Y000029971492*
X000188044759*
Y000029992421*
X000188170286*
Y000030013325*
X000188714176*
Y000029992421*
X000188818774*
Y000029971492*
X000188902467*
Y000029950587*
X0001889443*
Y000029929658*
X000189007038*
Y000029908754*
X000189048898*
Y000029887824*
X000189090706*
Y000029866894*
X000189132565*
Y00002984599*
X000189174399*
Y000029825061*
X000189195329*
Y000029804156*
X000189237162*
Y000029783227*
X000189258067*
Y000029762297*
X000189278996*
Y000029741393*
X00018932083*
Y000029720489*
X00018934176*
Y000029699559*
X000189362689*
Y00002967863*
X000189383593*
Y000029657725*
X000189404523*
Y000029636796*
X000189425427*
Y000029615866*
X000189446357*
Y000029594962*
X000189467286*
Y000029574032*
X000189488191*
Y000029532199*
X000189509095*
Y000029511294*
X000189530024*
Y000029490365*
X000189550929*
Y000029448531*
X000189571858*
Y000029406697*
X000189592788*
Y000029385768*
X000189613692*
Y000029343934*
X000189634622*
Y0000293021*
X000189655526*
Y000029260266*
X000189676455*
Y000029197503*
X000189697385*
Y000029155669*
X000189718289*
Y000029071976*
X000189739219*
Y000029009238*
X000189760148*
Y000028904641*
X000189781053*
Y00002875821*
X000189801982*
Y00002819339*
X000189781053*
Y000028046959*
X000189760148*
Y000027942362*
X000189739219*
Y000027858694*
X000189718289*
Y000027775001*
X000189697385*
Y000027712263*
X000189676455*
Y000027670429*
X000189655526*
Y00002762857*
X000189634622*
Y000027586736*
X000189613692*
Y000027544903*
X000189592788*
Y000027503069*
X000189571858*
Y000027461235*
X000189550929*
Y000027440305*
X000189530024*
Y000027398472*
X000189509095*
Y000027377542*
X000189488191*
Y000027356638*
X000189467286*
Y000027335708*
X000189446357*
Y000027314804*
X000189425427*
Y000027293874*
X000189404523*
Y000027272945*
X000189383593*
Y000027252041*
X000189362689*
Y000027231111*
X00018934176*
Y000027210207*
X000189299926*
Y000027189277*
X000189278996*
Y000027168348*
X000189237162*
Y000027147443*
X000189195329*
Y000027126539*
X000189153469*
Y00002710561*
X000189111636*
Y00002708468*
X000189048898*
Y000027063776*
X000188986134*
Y000027042846*
X000188902467*
Y000027021917*
X000188274883*
Y000027042846*
X000188149357*
Y000027063776*
X000188044759*
Y000028005125*
X000188881537*
Y000028800044*
X00018712434*
Y000026457122*
X000187208007*
Y000026436193*
X000187270771*
Y000026415288*
X000187333534*
Y000026394359*
X000187417202*
Y000026373429*
X000187500869*
Y000026352525*
X000187584537*
Y000026331595*
X000187689159*
Y000026310691*
X000187793757*
Y000026289762*
X000187919258*
Y000026268857*
X000188107523*
Y000026247928*
X000188316717*
Y000026226998*
X000189048898*
Y000026247928*
X000189195329*
Y000026268857*
X000189278996*
Y000026289762*
X000189383593*
Y000026310691*
X000189446357*
Y000026331595*
X000189509095*
Y000026352525*
X000189571858*
Y000026373429*
X000189634622*
Y000026394359*
X000189676455*
Y000026415288*
X000189718289*
Y000026436193*
X000189760148*
Y000026457122*
X000189801982*
Y000026478026*
X000189843816*
Y000026498956*
X00018988565*
Y000026519886*
X000189906554*
Y00002654079*
X000189948388*
Y000026561719*
X000189969317*
Y000026582624*
X000190011151*
Y000026603553*
X000190032081*
Y000026624457*
X000190052985*
Y000026645387*
X000190094819*
Y000026666317*
X000190115748*
Y000026687221*
X000190136653*
Y00002670815*
X000190157582*
Y000026729055*
X000190178486*
Y000026749984*
X000190199416*
Y000026770888*
X000190220346*
Y000026791818*
X000190241275*
Y000026812748*
X000190262205*
Y000026854581*
X000190283109*
Y000026875486*
X000190304013*
Y000026896415*
X000190324943*
Y000026917345*
X000190345847*
Y000026959179*
X000190366777*
Y000026980083*
X000190387706*
Y000027021917*
X00019040861*
Y000027042846*
X00019042954*
Y00002708468*
X00019045047*
Y00002710561*
X000190471374*
Y000027147443*
X000190492278*
Y000027189277*
X000190513208*
Y000027231111*
X000190534112*
Y000027272945*
X000190555041*
Y000027314804*
X000190575946*
Y000027377542*
X000190596875*
Y000027440305*
X000190617805*
Y000027482139*
X000190638709*
Y000027544903*
X000190659639*
Y00002762857*
X000190680568*
Y000027712263*
X000190701472*
Y000027795931*
X000190722402*
Y000027921458*
X000190743306*
Y000028067889*
X000190764236*
Y000028318917*
X000190785165*
Y000028716376*
X000190764236*
Y000028946475*
X000190743306*
Y000029092906*
X000190722402*
Y000029176573*
X000190701472*
Y00002928117*
X000190680568*
Y000029343934*
X000190659639*
Y000029406697*
X000190638709*
Y000029490365*
X000190617805*
Y000029532199*
X000190596875*
Y000029574032*
X000190575946*
Y000029636796*
X000190555041*
Y00002967863*
X000190534112*
Y000029720489*
X000190513208*
Y000029762297*
X000190492278*
Y000029783227*
X000190471374*
Y000029825061*
X00019045047*
Y000029866894*
X00019042954*
Y000029908754*
X00019040861*
Y000029929658*
X000190387706*
Y000029950587*
X000190366777*
Y000029992421*
X000190345847*
Y000030013325*
X000190324943*
Y000030034255*
X000190304013*
Y000030076089*
X000190283109*
Y000030097018*
X000190262205*
Y000030117948*
X000190241275*
Y000030138852*
X000190220346*
Y000030159756*
X000190199416*
Y000030180686*
X000190178486*
Y000030201616*
X000190157582*
Y00003022252*
X000190136653*
Y000030243449*
X000190115748*
Y000030264379*
X000190094819*
Y000030285283*
X000190073915*
Y000030306213*
X000190032081*
Y000030327117*
X000190011151*
Y000030348047*
X000189990247*
Y000030368951*
X000189948388*
Y00003038988*
X000189927484*
Y000030410785*
X000189906554*
Y000030431714*
X000189864746*
Y000030452644*
X000189843816*
Y000030473548*
X000189801982*
Y000030494478*
X000189760148*
Y000030515407*
X000189718289*
Y000030536311*
X000189697385*
Y000030557216*
X000189655526*
Y000030578145*
X000189613692*
Y000030599075*
X000189550929*
Y000030619979*
X000189509095*
Y000030640909*
X000189446357*
Y000030661838*
X000189383593*
Y000030682742*
X00018932083*
Y000030703647*
X000189258067*
Y000030724576*
X000189174399*
Y000030745506*
X000189069802*
Y00003076641*
X000188965205*
Y00003078734*
X00018875601*
Y000030808269*
G37*
G36*
X000183777305Y000030431714D02*
X000183191581D01*
Y000029699559*
X000182229302*
Y000028988308*
X000183191581*
Y000027314804*
X000183170677*
Y000027189277*
X000183149748*
Y000027147443*
X000183128843*
Y00002710561*
X000183107914*
Y00002708468*
X00018308701*
Y000027063776*
X00018306608*
Y000027042846*
X000183024246*
Y000027021917*
X000183003317*
Y000027001012*
X000182961483*
Y000026980083*
X000182856886*
Y000026959179*
X000182647691*
Y000026980083*
X00018250126*
Y000027001012*
X000182417567*
Y000027021917*
X000182312995*
Y000027042846*
X000182250232*
Y000027063776*
X000182187469*
Y000026373429*
X000182229302*
Y000026352525*
X000182292066*
Y000026331595*
X000182354829*
Y000026310691*
X000182417567*
Y000026289762*
X00018250126*
Y000026268857*
X000182626787*
Y000026247928*
X000182773193*
Y000026226998*
X000183296179*
Y000026247928*
X000183400776*
Y000026268857*
X000183484469*
Y000026289762*
X000183547207*
Y000026310691*
X000183609945*
Y000026331595*
X000183651804*
Y000026352525*
X000183693638*
Y000026373429*
X000183714567*
Y000026394359*
X000183756376*
Y000026415288*
X000183777305*
Y000026436193*
X00018379821*
Y000026457122*
X000183819139*
Y000026478026*
X000183840069*
Y000026498956*
X000183860973*
Y000026519886*
X000183881928*
Y00002654079*
X000183902832*
Y000026561719*
X000183923762*
Y000026603553*
X000183944666*
Y000026645387*
X00018396557*
Y000026666317*
X0001839865*
Y00002670815*
X000184007429*
Y000026770888*
X000184028334*
Y000026812748*
X000184049263*
Y000026896415*
X000184070167*
Y000026980083*
X000184091097*
Y00002710561*
X000184112027*
Y000028988308*
X00018455132*
Y000029406697*
X000184509486*
Y000029427601*
X000184488556*
Y000029448531*
X000184446722*
Y000029469435*
X000184425793*
Y000029490365*
X000184383959*
Y000029511294*
X000184342125*
Y000029532199*
X000184321196*
Y000029553128*
X000184279362*
Y000029574032*
X000184237528*
Y000029594962*
X000184216598*
Y000029615866*
X000184174765*
Y000029636796*
X000184132931*
Y000029657725*
X000184112027*
Y00002967863*
X000184070167*
Y000029699559*
X000184049263*
Y000029720489*
X000184028334*
Y000029783227*
X000184007429*
Y00002984599*
X0001839865*
Y000029887824*
X00018396557*
Y000029950587*
X000183944666*
Y000030013325*
X000183923762*
Y000030076089*
X000183902832*
Y000030117948*
X000183881928*
Y000030180686*
X000183860973*
Y000030243449*
X000183840069*
Y000030285283*
X000183819139*
Y000030348047*
X00018379821*
Y000030410785*
X000183777305*
Y000030431714*
G37*
G36*
X000176727637Y000029699559D02*
X000175807192D01*
Y0000276495*
X000175786288*
Y000027440305*
X000175765358*
Y000027335708*
X000175744428*
Y000027272945*
X000175723524*
Y000027231111*
X000175702595*
Y000027189277*
X000175681665*
Y000027147443*
X000175660761*
Y000027126539*
X000175639831*
Y00002710561*
X000175618927*
Y00002708468*
X000175597997*
Y000027063776*
X000175577093*
Y000027042846*
X000175535259*
Y000027021917*
X0001754934*
Y000027001012*
X000175451566*
Y000026980083*
X000175326065*
Y000026959179*
X000175158704*
Y000026980083*
X000175033178*
Y000027001012*
X00017497044*
Y000027021917*
X000174907676*
Y000027042846*
X000174865817*
Y000027063776*
X000174844913*
Y00002708468*
X000174803079*
Y00002710561*
X000174782175*
Y000027126539*
X000174761245*
Y000027147443*
X000174740316*
Y000027168348*
X000174719411*
Y000027189277*
X000174698482*
Y000027231111*
X000174677578*
Y000027252041*
X000174656648*
Y000027293874*
X000174635718*
Y000027335708*
X000174614814*
Y000027377542*
X000174593885*
Y000027440305*
X000174572955*
Y000027523998*
X000174552051*
Y0000276495*
X000174531121*
Y000027816835*
X000174510217*
Y000029699559*
X000173568868*
Y000026289762*
X000173589797*
Y000026268857*
X000174280118*
Y000026289762*
X000174301023*
Y000026352525*
X000174321952*
Y000026415288*
X000174342856*
Y000026498956*
X000174363786*
Y000026561719*
X000174384716*
Y000026645387*
X00017440562*
Y00002670815*
X000174489287*
Y000026666317*
X000174510217*
Y000026645387*
X000174531121*
Y000026624457*
X000174552051*
Y000026603553*
X000174572955*
Y000026582624*
X000174593885*
Y000026561719*
X000174614814*
Y00002654079*
X000174635718*
Y000026519886*
X000174656648*
Y000026498956*
X000174677578*
Y000026478026*
X000174698482*
Y000026457122*
X000174719411*
Y000026436193*
X000174761245*
Y000026415288*
X000174782175*
Y000026394359*
X000174824009*
Y000026373429*
X000174865817*
Y000026352525*
X00017492858*
Y000026331595*
X00017497044*
Y000026310691*
X000175033178*
Y000026289762*
X000175095941*
Y000026268857*
X000175158704*
Y000026247928*
X000175305135*
Y000026226998*
X000175807192*
Y000026247928*
X000175911789*
Y000026268857*
X000175995457*
Y000026289762*
X00017605822*
Y000026310691*
X000176100054*
Y000026331595*
X000176141888*
Y000026352525*
X000176183747*
Y000026373429*
X000176225581*
Y000026394359*
X000176267414*
Y000026415288*
X000176288344*
Y000026436193*
X000176330178*
Y000026457122*
X000176351082*
Y000026478026*
X000176372012*
Y000026498956*
X000176392916*
Y000026519886*
X000176413845*
Y00002654079*
X00017643475*
Y000026561719*
X000176455679*
Y000026582624*
X000176476609*
Y000026624457*
X000176497513*
Y000026645387*
X000176518443*
Y000026687221*
X000176539347*
Y00002670815*
X000176560276*
Y000026749984*
X000176581206*
Y000026791818*
X00017660211*
Y000026833652*
X00017662304*
Y000026875486*
X000176643969*
Y000026938249*
X000176664874*
Y000027021917*
X000176685803*
Y00002710561*
X000176706707*
Y000027231111*
X000176727637*
Y000029699559*
G37*
G36*
X000186120227D02*
X000185199807D01*
Y000027921458*
Y000027900528*
Y000026268857*
X000186120227*
Y000029699559*
G37*
%LNmtrl_0mm_thru_legend_bot-3*%
%LPD*%
G36*
X000191119861Y000069152693D02*
X000190241275D01*
Y000068274082*
X000189362689*
Y00006743733*
X000191119861*
Y000063881101*
X000190241275*
Y000063002515*
X00018934176*
Y000063922935*
X000190220346*
Y000064759713*
X000190199416*
Y000064801546*
X000190220346*
Y000065638299*
X000190199416*
Y000065680132*
X000190220346*
Y000066516885*
X000189362689*
Y000064759713*
X000188484078*
Y000063881101*
X000187605466*
Y000063044349*
X000188484078*
Y000062165763*
X000191098932*
Y000063044349*
X000192856129*
Y000063881101*
X000191977543*
Y000064801546*
X000192877059*
Y000063922935*
X000193734715*
Y000064801546*
X000196391428*
Y000063922935*
X000197270014*
Y000063044349*
X000198148625*
Y000060366732*
X000196370524*
Y000061245318*
X000196349594*
Y000061287152*
X000196370524*
Y000062123929*
X000195512842*
Y00005952998*
X000197270014*
Y000057751853*
X000198148625*
Y000054216554*
X000197249084*
Y000055095165*
X000196391428*
Y000054216554*
X000194634256*
Y000053358872*
X000195512842*
Y000052459356*
X000192877059*
Y000051601674*
X000193713811*
Y000051622604*
X000193755645*
Y000051601674*
X000194634256*
Y000050723088*
X000195471008*
Y000050744018*
X000195512842*
Y000050723088*
X000196349594*
Y000050744018*
X000196370524*
Y000051601674*
X000197228206*
Y000051622604*
X000197270014*
Y000051601674*
X000198148625*
Y000042794809*
X000197249084*
Y000043673395*
X000197228206*
Y000043715254*
X000197249084*
Y000044552006*
X000197228206*
Y00004459384*
X000197249084*
Y000045430592*
X000196370524*
Y000046309203*
X000195491912*
Y000047208719*
X000196349594*
Y000047229623*
X000196391428*
Y000047208719*
X000197228206*
Y000047229623*
X000197249084*
Y000048066375*
X000197228206*
Y000048108235*
X000197249084*
Y000048944987*
X000197228206*
Y000048986821*
X000197249084*
Y000049823573*
X000196391428*
Y000048944987*
X000194613326*
Y000049823573*
X000194592397*
Y000049865407*
X000194613326*
Y000050702184*
X000193755645*
Y000048087305*
X000194634256*
Y000045451522*
X000195512842*
Y000044572936*
X000196391428*
Y000043673395*
X000194634256*
Y000042794809*
X000193734715*
Y000043673395*
X000193713811*
Y000043715254*
X000193734715*
Y000044572936*
X000194592397*
Y00004459384*
X000194613326*
Y000045430592*
X000192877059*
Y000044552006*
X000191998447*
Y000043694324*
X000192877059*
Y000042794809*
X000191977543*
Y000043673395*
X000191119861*
Y000041916223*
X000190241275*
Y000041037611*
X00018934176*
Y000041916223*
X000188463148*
Y000042794809*
X000188442244*
Y000042836642*
X000188463148*
Y000043673395*
X000186726855*
Y000042794809*
X000185827365*
Y000043673395*
X000185806435*
Y000043715254*
X000185827365*
Y000044552006*
X000184969683*
Y000041058541*
X000185827365*
Y000041937127*
X000187605466*
Y000041058541*
X000188484078*
Y000040179955*
X000191119861*
Y000037523242*
X000190241275*
Y000035766044*
X000188463148*
Y00003666556*
X00018932083*
Y00003668649*
X00018934176*
Y000037523242*
X00018932083*
Y000037544146*
X00018934176*
Y000038401828*
X000188484078*
Y000037523242*
X000187605466*
Y000035766044*
X000184070167*
Y000036644656*
X000183212486*
Y000035766044*
X000182312995*
Y000036644656*
X000180555798*
Y000037544146*
X0001823339*
Y00003666556*
X000183191581*
Y000037523242*
X000183170677*
Y000037544146*
X000183191581*
Y000038401828*
X000180555798*
Y000039301343*
X000181413454*
Y000039322273*
X000181434384*
Y000041037611*
X000179677212*
Y000041916223*
X000178819505*
Y000041037611*
X000176183747*
Y000040179955*
X000177940919*
Y000039301343*
X000178798601*
Y000040179955*
X000179698116*
Y000039280439*
X000178819505*
Y000038401828*
X000177940919*
Y000037544146*
X000179698116*
Y000036644656*
X000177940919*
Y000035766044*
X000177041429*
Y00003666556*
X000177919989*
Y000037523242*
X000177041429*
Y000038401828*
X000176183747*
Y000037523242*
X000174426524*
Y000035766044*
X000173527034*
Y000036644656*
X000172669352*
Y000035766044*
X000171769836*
Y000036644656*
X000170912155*
Y000035766044*
X000170012639*
Y000036644656*
X000167397785*
Y000035766044*
X000165619658*
Y000036644656*
X000162983875*
Y000038422757*
X000163862486*
Y000039280439*
X000162983875*
Y000040159025*
X000162105289*
Y000041058541*
X000162983875*
Y000041916223*
X000162105289*
Y000042815738*
X000162983875*
Y000044572936*
X000163862486*
Y000045430592*
X000162983875*
Y000046309203*
X000162105289*
Y000047208719*
X000163004804*
Y000046330108*
X000163862486*
Y000047208719*
X000164741047*
Y000048087305*
X000165619658*
Y000048944987*
X000164741047*
Y000049844502*
X000165619658*
Y000049865407*
X000165640588*
Y000049844502*
X00016649827*
Y000050702184*
X000165619658*
Y000053337968*
X00016388339*
Y000052459356*
X000162105289*
Y000055116069*
X000162983875*
Y000055136999*
X000163025709*
Y000055116069*
X000163862486*
Y000055973751*
X000162105289*
Y000063044349*
X000162983875*
Y000063881101*
X000162105289*
Y000064801546*
X000164761976*
Y000063002515*
X00016388339*
Y000061287152*
X000164741047*
Y000062165763*
X000165619658*
Y000063922935*
X00016649827*
Y000064801546*
X000169134053*
Y000066558744*
X000170033569*
Y000064759713*
X000169154957*
Y000063922935*
X000171769836*
Y000064801546*
X000172669352*
Y000063922935*
X000173527034*
Y000064801546*
X000175305135*
Y000063922935*
X000176183747*
Y000063044349*
X000177041429*
Y000063922935*
X000177940919*
Y000063002515*
X000177062333*
Y000062165763*
X000177940919*
Y000061287152*
X000178798601*
Y000062165763*
X000179677212*
Y000063002515*
X000178798601*
Y000064759713*
X000177919989*
Y00006743733*
X000178819505*
Y000064801546*
X000179677212*
Y000065303603*
Y000065324507*
Y000066558744*
X000180555798*
Y00006743733*
X000181434384*
Y000068315916*
X000182312995*
Y000069152693*
X000181434384*
Y000070031279*
X000180576728*
Y000068274082*
X000177062333*
Y000067395496*
X000176183747*
Y000066558744*
X000177062333*
Y000065638299*
X000176162817*
Y000066516885*
X000175305135*
Y000065638299*
X00017440562*
Y000066516885*
X000173547938*
Y000065638299*
X000172648448*
Y000066516885*
X000171790766*
Y000065638299*
X000170891225*
Y000066558744*
X000171769836*
Y000067395496*
X000170891225*
Y000068274082*
X000170033569*
Y000067395496*
X000169134053*
Y000068315916*
X000170012639*
Y000069152693*
X000169134053*
Y000070951699*
X000170012639*
Y000071830311*
X000173547938*
Y000070951699*
X000174426524*
Y000070073113*
X000175305135*
Y000069152693*
X000170912155*
Y000068315916*
X000171790766*
Y00006743733*
X000172669352*
Y000066558744*
X000173527034*
Y00006743733*
X00017440562*
Y000068315916*
X000175305135*
Y00006743733*
X000176162817*
Y000070951699*
X000177041429*
Y000071830311*
X000177940919*
Y000069194527*
X000179677212*
Y000070951699*
X000181434384*
Y000071830311*
X0001823339*
Y000070951699*
X000184070167*
Y000071830311*
X000184969683*
Y000070073113*
X000185827365*
Y000070909865*
X000185806435*
Y000070951699*
X000185827365*
Y000071830311*
X000189362689*
Y000070951699*
X000190220346*
Y000071830311*
X000191119861*
Y000069152693*
G37*
G36*
X000198148625Y000065680132D02*
X000191998447D01*
Y000066224023*
Y000066244952*
Y000071830311*
X000198148625*
Y000065680132*
G37*
G36*
X000168276371D02*
X000162126218D01*
Y000071830311*
X000168276371*
Y000065680132*
G37*
G36*
X00016388339Y000050702184D02*
X000163004804D01*
Y000049865407*
X000163025709*
Y000049844502*
X00016388339*
Y000048066375*
X000162983875*
Y000048944987*
X000162105289*
Y000050723088*
X000162983875*
Y000051601674*
X00016388339*
Y000050702184*
G37*
G36*
X000198148625Y000035786974D02*
X000191998447D01*
Y000041937127*
X000198148625*
Y000035786974*
G37*
%LNmtrl_0mm_thru_legend_bot-4*%
%LPC*%
G36*
X000182312995Y000070909865D02*
X000181455314D01*
Y000070073113*
X000182312995*
Y000070909865*
G37*
G36*
X000171769836D02*
X000170912155D01*
Y000070888961*
Y000070868032*
Y000070073113*
X000171769836*
Y000070909865*
G37*
G36*
X000170891225Y000070031279D02*
X000170033569D01*
Y000069194527*
X000170891225*
Y000070031279*
G37*
G36*
X000184070167D02*
X0001823339D01*
Y000069194527*
X000183212486*
Y000068315916*
X000184948779*
Y000068336845*
Y000069152693*
X000184070167*
Y000070031279*
G37*
G36*
X000188463148D02*
X000187605466D01*
Y000069152693*
X000185848294*
Y000068315916*
X000187605466*
Y00006743733*
X000188463148*
Y000068274082*
X000188442244*
Y000068315916*
X000188463148*
Y000069152693*
X000188442244*
Y000069194527*
X000188463148*
Y000069696584*
Y000069717488*
Y000070031279*
G37*
G36*
X000183191581Y000068274082D02*
X0001823339D01*
Y00006743733*
X000183191581*
Y000068274082*
G37*
G36*
X000175284206Y000067395496D02*
X000174426524D01*
Y000066558744*
X000175284206*
Y000067395496*
G37*
G36*
X000181434384Y000066516885D02*
X000180576728D01*
Y000065680132*
X000181434384*
Y000066516885*
G37*
G36*
X000188463148D02*
X000187605466D01*
Y000065638299*
X000186705976*
Y000066516885*
X000185848294*
Y000065638299*
X000184948779*
Y000066516885*
X000184091097*
Y000065638299*
X000183191581*
Y000066516885*
X0001823339*
Y000064801546*
X000183212486*
Y000063881101*
X0001823339*
Y000063044349*
X000184948779*
Y000063922935*
X000185827365*
Y000064801546*
X000188463148*
Y000065638299*
X000188442244*
Y000065680132*
X000188463148*
Y000066516885*
G37*
G36*
X000186705976Y000063881101D02*
X000185848294D01*
Y000063169876*
Y000063148946*
Y000063044349*
X000186705976*
Y000063881101*
G37*
G36*
X00017440562D02*
X000173547938D01*
Y000063044349*
X00017440562*
Y000063881101*
G37*
G36*
X000195491912D02*
X000194634256D01*
Y000063107112*
Y000063086183*
Y000063002515*
X000192877059*
Y000062165763*
X000195491912*
Y000063002515*
X000195471008*
Y000063044349*
X000195491912*
Y000063881101*
G37*
G36*
X000180555798Y000064759713D02*
X000179698116D01*
Y000063044349*
X000180576728*
Y000062165763*
X000181434384*
Y000063504572*
Y000063525476*
Y000063881101*
X000180555798*
Y000064759713*
G37*
G36*
X000170891225Y000063002515D02*
X000170033569D01*
Y000062165763*
X000170891225*
Y000063002515*
G37*
G36*
X000169134053Y000063881101D02*
X000166519199D01*
Y000063044349*
X000168276371*
Y000062165763*
X000169134053*
Y000063881101*
G37*
G36*
X000192856129Y000062123929D02*
X000191998447D01*
Y000061287152*
X000192856129*
Y000062123929*
G37*
G36*
X000187584537D02*
X000186726855D01*
Y000061287152*
X000187584537*
Y000062123929*
G37*
G36*
X000172648448Y000063002515D02*
X000171790766D01*
Y000061287152*
X000172648448*
Y000061747374*
Y000061768304*
Y000063002515*
G37*
G36*
X000167376856Y000062123929D02*
X000165640588D01*
Y000061287152*
X000167376856*
Y000062061166*
Y00006208207*
Y000062123929*
G37*
G36*
X000191977543Y000061245318D02*
X000190241275D01*
Y000060408566*
X000191977543*
Y000060910622*
Y000060931526*
Y000061245318*
G37*
G36*
X000173527034D02*
X000172669352D01*
Y000060408566*
X000173527034*
Y000061245318*
G37*
G36*
X000171769836D02*
X000170912155D01*
Y000061057053*
Y000061036149*
Y000060408566*
X000171769836*
Y000061245318*
G37*
G36*
X000169134053D02*
X000168276371D01*
Y000060408566*
X000169134053*
Y000061182554*
Y000061203484*
Y000061245318*
G37*
G36*
X000163862486D02*
X000163004804D01*
Y000060408566*
X000163862486*
Y000061245318*
G37*
G36*
X000194613326Y000060366732D02*
X000191998447D01*
Y00005952998*
X000194613326*
Y000060366732*
G37*
G36*
X000165619658D02*
X00016388339D01*
Y00005952998*
X000165619658*
Y000060366732*
G37*
G36*
X000184070167Y000062123929D02*
X0001823339D01*
Y000061245318*
X000179698116*
Y000060408566*
X000180576728*
Y00005948812*
X000179677212*
Y000060366732*
X000177919989*
Y000061245318*
X000177062333*
Y00005948812*
X000176162817*
Y000061287152*
X000177041429*
Y000062123929*
X000174426524*
Y00005948812*
X000172669352*
Y000058651368*
X000172690256*
Y000058630464*
X000173547938*
Y000057730948*
X000171790766*
Y000055095165*
X000170891225*
Y000060366732*
X000169154957*
Y00005952998*
X000170033569*
Y000058609534*
X000168276371*
Y000057772782*
X000168297275*
Y000057751853*
X000169154957*
Y000056852337*
X000168276371*
Y000056015585*
X000168297275*
Y000055994655*
X000169113123*
Y000056015585*
X000169175887*
Y000055994655*
X000170033569*
Y000055095165*
X000169154957*
Y000054216554*
X000167397785*
Y000053379801*
X000167418715*
Y000053358872*
X000168255442*
Y000053379801*
X000168297275*
Y000053358872*
X000169113123*
Y000053379801*
X000169154957*
Y000053358872*
X000169991735*
Y000053379801*
X000170033569*
Y000053358872*
X000170870321*
Y000053379801*
X000170891225*
Y000054237483*
X000171790766*
Y000053358872*
X000172627518*
Y000053379801*
X000172669352*
Y000053358872*
X000173506104*
Y000053379801*
X000173527034*
Y000054216554*
X000172648448*
Y000055074235*
Y000055095165*
Y000055994655*
X000173547938*
Y000055136999*
X000173568868*
Y000055116069*
X000174426524*
Y000053337968*
X000173547938*
Y000052480286*
X000174426524*
Y000049823573*
X000173547938*
Y000048965891*
X000174426524*
Y000047208719*
X000175284206*
Y000047229623*
X000175305135*
Y000047208719*
X000176162817*
Y000048087305*
X000177062333*
Y000047187789*
X000176183747*
Y000046309203*
X000174426524*
Y000045451522*
X000175284206*
Y000045472426*
X000175305135*
Y000045451522*
X000176183747*
Y000044572936*
X000177041429*
Y000046330108*
X000177940919*
Y000044552006*
X000177062333*
Y000043694324*
X000177940919*
Y000041937127*
X000178798601*
Y000042815738*
X000181434384*
Y000043694324*
X000182292066*
Y000043715254*
X000182312995*
Y000044552006*
X000179698116*
Y000043673395*
X000178798601*
Y000048087305*
X000179698116*
Y000047208719*
X000180534894*
Y000047229623*
X000180555798*
Y000048087305*
X000181413454*
Y000048108235*
X000181455314*
Y000048087305*
X000182292066*
Y000048108235*
X0001823339*
Y000048087305*
X000183170677*
Y000048108235*
X000183212486*
Y000048087305*
X000184091097*
Y000047187789*
X0001823339*
Y000046330108*
X000183212486*
Y000043694324*
X000184049263*
Y000043715254*
X000184070167*
Y000044572936*
X000184927849*
Y00004459384*
X000184948779*
Y000045430592*
X000184070167*
Y000046330108*
X000184927849*
Y000046351037*
X000184969683*
Y000046330108*
X000185806435*
Y000046351037*
X000185827365*
Y000047187789*
X000185806435*
Y000047229623*
X000185827365*
Y000048066375*
X000185806435*
Y000048108235*
X000185827365*
Y000048965891*
X000186685047*
Y000048986821*
X000186705976*
Y000049823573*
X000185827365*
Y000050702184*
X000185806435*
Y000050744018*
X000185827365*
Y00005158077*
X000185806435*
Y000051622604*
X000185827365*
Y000052480286*
X000186685047*
Y000052501215*
X000186726855*
Y000052480286*
X000187563633*
Y000052501215*
X000187584537*
Y000053337968*
X000185827365*
Y000054237483*
X000186685047*
Y000054258387*
X000186705976*
Y000055095165*
X000185827365*
Y000055994655*
X000186726855*
Y000055116069*
X000187563633*
Y000055136999*
X000187584537*
Y000055994655*
X000188484078*
Y000055095165*
X000187605466*
Y000054237483*
X000188442244*
Y000054258387*
X000188484078*
Y000054237483*
X00018932083*
Y000054258387*
X00018934176*
Y000055116069*
X000190199416*
Y000055136999*
X000190241275*
Y000055116069*
X000191119861*
Y000054216554*
X000189362689*
Y000053358872*
X000190241275*
Y000052480286*
X000191078027*
Y000052501215*
X000191119861*
Y000052480286*
X000191956613*
Y000052501215*
X000191998447*
Y000052480286*
X000192835225*
Y000052501215*
X000192856129*
Y000053337968*
X000191977543*
Y000054237483*
X000192835225*
Y000054258387*
X000192856129*
Y000055095165*
X000191977543*
Y000055973751*
X000191098932*
Y000056873267*
X000191956613*
Y000056894171*
X000191977543*
Y000057751853*
X000192835225*
Y000057772782*
X000192856129*
Y000058609534*
X000191119861*
Y000057730948*
X000190241275*
Y000056852337*
X000188463148*
Y000057730948*
X000187605466*
Y000056852337*
X000186705976*
Y000057730948*
X000185827365*
Y000058609534*
X000185806435*
Y000058651368*
X000185827365*
Y00005948812*
X000184948779*
Y000060366732*
X000184070167*
Y000061245318*
X000184049263*
Y000061287152*
X000184070167*
Y000062123929*
G37*
G36*
X000191098932Y00005948812D02*
X000190241275D01*
Y000058630464*
X000191078027*
Y000058651368*
X000191098932*
Y000058776895*
Y000058797799*
Y00005948812*
G37*
G36*
X000188463148Y000061245318D02*
X000187605466D01*
Y000060366732*
X000185848294*
Y000059843746*
Y000059822842*
Y00005952998*
X000187605466*
Y000058630464*
X000188442244*
Y000058651368*
X000188484078*
Y000058630464*
X00018932083*
Y000058651368*
X00018934176*
Y00005948812*
X000188463148*
Y000060366732*
X000188442244*
Y000060408566*
X000188463148*
Y000061245318*
G37*
G36*
X000168255442Y000060366732D02*
X000167397785D01*
Y000058651368*
X000167418715*
Y000058630464*
X000168234537*
Y000058651368*
X000168255442*
Y000058776895*
Y000058797799*
Y000060366732*
G37*
G36*
X000187584537Y000058609534D02*
X000186726855D01*
Y000057751853*
X000187563633*
Y000057772782*
X000187584537*
Y000058609534*
G37*
G36*
X000194613326D02*
X000193755645D01*
Y000058274839*
Y000058253909*
Y000056873267*
X000194592397*
Y000056894171*
X000194613326*
Y000057730948*
X000194592397*
Y000057772782*
X000194613326*
Y000058609534*
G37*
G36*
X000168255442Y000057730948D02*
X000167397785D01*
Y000056894171*
X000167418715*
Y000056873267*
X000168234537*
Y000056894171*
X000168255442*
Y000057730948*
G37*
G36*
X000164741047Y000058609534D02*
X000163004804D01*
Y000056894171*
X000163025709*
Y000056873267*
X000163841557*
Y000056894171*
X000163862486*
Y000057751853*
X000164720168*
Y000057772782*
X000164741047*
Y000058609534*
G37*
G36*
X000197249084Y000057730948D02*
X000196391428D01*
Y000056852337*
X000195512842*
Y000056538545*
Y000056517641*
Y000055994655*
X000196349594*
Y000056015585*
X000196391428*
Y000055994655*
X000197228206*
Y000056015585*
X000197249084*
Y000056852337*
X000197228206*
Y000056894171*
X000197249084*
Y000057730948*
G37*
G36*
X00016649827Y00005948812D02*
X000165640588D01*
Y000057730948*
X000164761976*
Y000056015585*
X000164782906*
Y000055994655*
X000165598729*
Y000056015585*
X000165619658*
Y000056873267*
X00016647734*
Y000056894171*
X00016649827*
Y000058149312*
Y000058170241*
Y00005948812*
G37*
G36*
X000193734715Y000056852337D02*
X000191998447D01*
Y000055994655*
X000192877059*
Y000055199737*
Y000055178833*
Y000055116069*
X000193755645*
Y000054237483*
X000194592397*
Y000054258387*
X000194613326*
Y000055095165*
X000194592397*
Y000055136999*
X000194613326*
Y000055973751*
X000193734715*
Y000056852337*
G37*
G36*
X000167376856Y000055973751D02*
X000166519199D01*
Y000054258387*
X000166540103*
Y000054237483*
X000167355951*
Y000054258387*
X000167376856*
Y000054676776*
Y000054697706*
Y000055973751*
G37*
G36*
X000164741047Y000055095165D02*
X00016388339D01*
Y000054258387*
X00016390432*
Y000054237483*
X000164720168*
Y000054258387*
X000164741047*
Y000054300221*
Y000054321151*
Y000055095165*
G37*
G36*
X000163862486Y000054216554D02*
X000163004804D01*
Y000053379801*
X000163025709*
Y000053358872*
X000163862486*
Y000054216554*
G37*
G36*
X000171769836Y000053337968D02*
X000170912155D01*
Y000052480286*
X000171748907*
Y000052501215*
X000171769836*
Y000053337968*
G37*
G36*
X000167376856D02*
X000166519199D01*
Y000052501215*
X000166540103*
Y000052480286*
X000167376856*
Y000053337968*
G37*
G36*
X000168255442Y000052459356D02*
X000167397785D01*
Y000051894562*
Y000051873632*
Y000051601674*
X000168255442*
Y000052459356*
G37*
G36*
X000172648448D02*
X000171790766D01*
Y00005158077*
X000170891225*
Y000052459356*
X000170033569*
Y00005158077*
X000168276371*
Y000049823573*
X000166519199*
Y000048986821*
X000166540103*
Y000048965891*
X000167397785*
Y000047187789*
X00016649827*
Y000048066375*
X000165640588*
Y000046351037*
X000165661492*
Y000046330108*
X000166519199*
Y000045472426*
X000166540103*
Y000045451522*
X000167376856*
Y000045472426*
X000167397785*
Y000045451522*
X000168255442*
Y000045472426*
X000168276371*
Y000045451522*
X000169134053*
Y000046309203*
X000168255442*
Y000047208719*
X000169134053*
Y000048066375*
X000168255442*
Y000048965891*
X000169134053*
Y000048986821*
X000169154957*
Y000048965891*
X000170012639*
Y000049844502*
X000170912155*
Y000048965891*
X000171790766*
Y000048066375*
X000170912155*
Y000046309203*
X000170033569*
Y000045451522*
X000170891225*
Y000045472426*
X000170912155*
Y000045451522*
X000171748907*
Y000045472426*
X000171769836*
Y000047208719*
X000172648448*
Y000047229623*
X000172669352*
Y000047208719*
X000173527034*
Y000048944987*
X000172648448*
Y000049823573*
X000171769836*
Y000050723088*
X000172648448*
Y000050744018*
X000172669352*
Y000050723088*
X000173506104*
Y000050744018*
X000173527034*
Y00005158077*
X000172648448*
Y000052459356*
G37*
G36*
X000192856129Y00005158077D02*
X000191119861D01*
Y000050723088*
X000191956613*
Y000050744018*
X000191998447*
Y000050723088*
X000192835225*
Y000050744018*
X000192856129*
Y00005158077*
G37*
G36*
X000167376856D02*
X000166519199D01*
Y000050723088*
X000167355951*
Y000050744018*
X000167376856*
Y00005158077*
G37*
G36*
X000191098932Y000050702184D02*
X000189362689D01*
Y000050555728*
Y000050534824*
Y000049844502*
X000190199416*
Y000049865407*
X000190241275*
Y000049844502*
X000191078027*
Y000049865407*
X000191098932*
Y000050702184*
G37*
G36*
X00018934176Y000052459356D02*
X000188484078D01*
Y00005158077*
X000186726855*
Y000050723088*
X000187605466*
Y000049844502*
X000188442244*
Y000049865407*
X000188463148*
Y000050723088*
X00018932083*
Y000050744018*
X00018934176*
Y00005158077*
X00018932083*
Y000051622604*
X00018934176*
Y000052459356*
G37*
G36*
X000192856129Y000049823573D02*
X000191998447D01*
Y000049426114*
Y000049405209*
Y000048965891*
X000192835225*
Y000048986821*
X000192856129*
Y000049823573*
G37*
G36*
X00018934176D02*
X000188484078D01*
Y000048965891*
X00018932083*
Y000048986821*
X00018934176*
Y000049823573*
G37*
G36*
X000170891225Y000048944987D02*
X000170033569D01*
Y000048087305*
X000170891225*
Y000048944987*
G37*
G36*
X000191977543D02*
X000191119861D01*
Y000048066375*
X000190220346*
Y000048944987*
X000189362689*
Y000048066375*
X000188463148*
Y000048944987*
X000187605466*
Y000048066375*
X000186726855*
Y000046309203*
X000185848294*
Y000044572936*
X000186685047*
Y00004459384*
X000186726855*
Y000044572936*
X000187563633*
Y00004459384*
X000187605466*
Y000044572936*
X000188442244*
Y00004459384*
X000188463148*
Y000045430592*
X000187584537*
Y000046330108*
X000188442244*
Y000046351037*
X000188463148*
Y000047208719*
X000189362689*
Y000046309203*
X000188484078*
Y000045451522*
X000189362689*
Y000044572936*
X000190199416*
Y00004459384*
X000190241275*
Y000044572936*
X000191078027*
Y00004459384*
X000191098932*
Y000045430592*
X000190220346*
Y000046330108*
X000191078027*
Y000046351037*
X000191098932*
Y000047208719*
X000191956613*
Y000047229623*
X000191998447*
Y000047208719*
X000192835225*
Y000047229623*
X000192856129*
Y000048066375*
X000191977543*
Y000048944987*
G37*
G36*
X000181434384Y000047187789D02*
X000180576728D01*
Y000047062288*
Y000047041358*
Y000046330108*
X000181413454*
Y000046351037*
X000181434384*
Y000047187789*
G37*
G36*
X00017440562D02*
X000173547938D01*
Y000046330108*
X00017440562*
Y000047187789*
G37*
G36*
X000170012639D02*
X000169154957D01*
Y000046330108*
X000170012639*
Y000047187789*
G37*
G36*
X000192856129Y000046309203D02*
X000191119861D01*
Y000045451522*
X000191956613*
Y000045472426*
X000191998447*
Y000045451522*
X000192835225*
Y000045472426*
X000192856129*
Y000046309203*
G37*
G36*
X000182312995D02*
X000181455314D01*
Y000045556119*
Y000045535189*
Y000045451522*
X000182292066*
Y000045472426*
X000182312995*
Y000046309203*
G37*
G36*
X000180555798D02*
X000179698116D01*
Y000045451522*
X000180534894*
Y000045472426*
X000180555798*
Y000045556119*
Y000045577048*
Y000046309203*
G37*
G36*
X000173527034D02*
X000172669352D01*
Y000045451522*
X000173506104*
Y000045472426*
X000173527034*
Y000046309203*
G37*
G36*
X000170012639Y000045430592D02*
X000169154957D01*
Y000044572936*
X000170012639*
Y000045430592*
G37*
G36*
X00018934176Y000044552006D02*
X000188484078D01*
Y000043819826*
Y000043798921*
Y000043694324*
X00018932083*
Y000043715254*
X00018934176*
Y000044552006*
G37*
G36*
X00016649827D02*
X000165640588D01*
Y000043694324*
X00016649827*
Y000044552006*
G37*
G36*
X000164741047D02*
X00016388339D01*
Y000044468338*
Y000044447409*
Y000043715254*
X00016390432*
Y000043694324*
X000164741047*
Y000044552006*
G37*
G36*
X000176162817D02*
X000174426524D01*
Y000042815738*
X000175284206*
Y000043694324*
X000176141888*
Y000043715254*
X000176162817*
Y000044552006*
G37*
G36*
X000165619658Y000043673395D02*
X000164761976D01*
Y000042836642*
X000164782906*
Y000042815738*
X000165619658*
Y000043673395*
G37*
G36*
X000190220346D02*
X000189362689D01*
Y000041937127*
X000190199416*
Y000041958056*
X000190220346*
Y000042794809*
X000190199416*
Y000042836642*
X000190220346*
Y000043673395*
G37*
G36*
X000173527034Y000044552006D02*
X000171790766D01*
Y000043673395*
X000170912155*
Y000042815738*
X000172669352*
Y000041937127*
X000173527034*
Y000044552006*
G37*
G36*
X000177041429Y000042794809D02*
X000175305135D01*
Y000041058541*
X000176162817*
Y000041937127*
X000177020474*
Y000041958056*
X000177041429*
Y000042794809*
G37*
G36*
X00017440562Y000041916223D02*
X000173547938D01*
Y000041058541*
X00017440562*
Y000041916223*
G37*
G36*
X000184948779Y000041037611D02*
X000184091097D01*
Y000040179955*
X000184948779*
Y000041037611*
G37*
G36*
X000175284206D02*
X000174426524D01*
Y000040702915*
Y000040681986*
Y000040179955*
X000175284206*
Y000041037611*
G37*
G36*
X000170891225Y000042794809D02*
X000170033569D01*
Y000040681986*
Y000040661082*
Y000040179955*
X000170891225*
Y000041058541*
X000171769836*
Y000041916223*
X000170891225*
Y000042794809*
G37*
G36*
X000169134053D02*
X000166519199D01*
Y000040179955*
X000169134053*
Y000042794809*
G37*
G36*
X000187584537Y000041037611D02*
X000185848294D01*
Y000040179955*
X000186726855*
Y000039824329*
Y0000398034*
Y000039301343*
X000187563633*
Y000039322273*
X000187584537*
Y000040159025*
X000187563633*
Y000040179955*
X000187584537*
Y000041037611*
G37*
G36*
X000185827365Y000040159025D02*
X000184969683D01*
Y00003942687*
Y000039405941*
Y000039301343*
X000185827365*
Y000040159025*
G37*
G36*
X000182312995Y000042794809D02*
X000181455314D01*
Y000041058541*
X0001823339*
Y000039510538*
Y000039489608*
Y000039301343*
X000183170677*
Y000039322273*
X000183191581*
Y000040159025*
X000183170677*
Y000040179955*
X000183191581*
Y000041058541*
X000184070167*
Y000041916223*
X000182312995*
Y000042794809*
G37*
G36*
X000176162817Y000040159025D02*
X000175305135D01*
Y000039301343*
X000176141888*
Y000039322273*
X000176162817*
Y000040159025*
G37*
G36*
X000164741047Y000041916223D02*
X00016388339D01*
Y000039301343*
X000164741047*
Y000040179955*
X000165619658*
Y000041037611*
X000164741047*
Y000041916223*
G37*
G36*
X000190220346Y000039280439D02*
X000189362689D01*
Y000038422757*
X000190199416*
Y000038443662*
X000190220346*
Y000039280439*
G37*
G36*
X000173527034Y000041037611D02*
X000172669352D01*
Y000040159025*
X000170912155*
Y000039301343*
X000171790766*
Y000038401828*
X000170891225*
Y000039280439*
X000170033569*
Y000038401828*
X000169154957*
Y000037544146*
X000170033569*
Y00003666556*
X000170891225*
Y000037544146*
X000171790766*
Y00003666556*
X000172648448*
Y000037544146*
X000173527034*
Y000038401828*
X000172648448*
Y000039301343*
X000173547938*
Y000038422757*
X000175263302*
Y000038443662*
X000175284206*
Y000039280439*
X00017440562*
Y000040159025*
X000173527034*
Y000041037611*
G37*
G36*
X000168255442Y000039280439D02*
X000167397785D01*
Y000038422757*
X000168255442*
Y000039280439*
G37*
G36*
X00016649827D02*
X000165640588D01*
Y000038422757*
X00016649827*
Y000038443662*
Y000039280439*
G37*
G36*
X000186705976D02*
X000185848294D01*
Y000037544146*
X000186685047*
Y000037565076*
X000186705976*
Y000038401828*
X000186685047*
Y000038422757*
X000186705976*
Y000038757453*
Y000038778383*
Y000039280439*
G37*
G36*
X000184948779D02*
X000184091097D01*
Y000037669673*
Y000037648769*
Y000037544146*
X000184948779*
Y000038401828*
X000184927849*
Y000038422757*
X000184948779*
Y000039280439*
G37*
G36*
X000165619658Y000038401828D02*
X000164761976D01*
Y000037544146*
X000165619658*
Y000038401828*
G37*
G36*
X000185827365Y000037523242D02*
X000184969683D01*
Y00003666556*
X000185806435*
Y00003668649*
X000185827365*
Y00003723038*
Y000037251284*
Y000037523242*
G37*
G36*
X000167376856D02*
X000166519199D01*
Y000036791087*
Y000036770157*
Y00003666556*
X000167376856*
Y000037523242*
G37*
%LNmtrl_0mm_thru_legend_bot-5*%
%LPD*%
G36*
X000180576728Y000058735036D02*
X000180785897D01*
Y000058714132*
X000180911398*
Y000058693202*
X000181036925*
Y000058672298*
X000181141522*
Y000058651368*
X00018122519*
Y000058630464*
X000181308857*
Y000058609534*
X00018139255*
Y000058588605*
X000181476218*
Y000058567701*
X000181559911*
Y000058546771*
X000181601745*
Y000058525867*
X000181664508*
Y000058504937*
X000181727246*
Y000058484008*
X000181790009*
Y000058463103*
X000181852773*
Y000058442199*
X000181894607*
Y00005842127*
X00018193644*
Y00005840034*
X000181999204*
Y000058379436*
X000182041038*
Y000058358506*
X000182103801*
Y000058337577*
X000182124705*
Y000058316672*
X000182187469*
Y000058295743*
X000182229302*
Y000058274839*
X000182271136*
Y000058253909*
X000182312995*
Y000058233005*
X000182354829*
Y000058212075*
X000182396663*
Y000058191146*
X000182417567*
Y000058170241*
X000182459426*
Y000058149312*
X00018250126*
Y000058128408*
X000182543094*
Y000058107478*
X000182584928*
Y000058086548*
X000182605857*
Y000058065644*
X000182626787*
Y000058044715*
X000182668595*
Y00005802381*
X000182710455*
Y000058002881*
X000182731359*
Y000057981977*
X000182773193*
Y000057961047*
X000182794122*
Y000057940117*
X000182835956*
Y000057919213*
X000182856886*
Y000057898284*
X000182898719*
Y000057877379*
X000182919649*
Y00005785645*
X000182940553*
Y000057835546*
X000182982387*
Y000057814616*
X000183003317*
Y000057793686*
X000183024246*
Y000057772782*
X00018306608*
Y000057751853*
X00018308701*
Y000057730948*
X000183107914*
Y000057710019*
X000183149748*
Y000057689115*
X000183170677*
Y000057668185*
X000183191581*
Y000057647255*
X000183212486*
Y000057626351*
X000183233415*
Y000057605422*
X000183254345*
Y000057584517*
X000183296179*
Y000057563588*
X000183317108*
Y000057542658*
X000183338012*
Y000057521754*
X000183358917*
Y000057500824*
X000183379846*
Y00005747992*
X000183400776*
Y000057458991*
X000183421705*
Y000057438086*
X00018344261*
Y000057417157*
X000183463539*
Y000057396227*
X000183505373*
Y000057354393*
X000183526303*
Y000057333489*
X000183547207*
Y00005731256*
X000183589041*
Y000057291655*
X000183609945*
Y000057249796*
X000183630874*
Y000057228892*
X000183651804*
Y000057207962*
X000183672708*
Y000057187058*
X000183693638*
Y000057166129*
X000183714567*
Y000057145199*
X000183735446*
Y000057124295*
X000183756376*
Y000057103365*
X000183777305*
Y000057061531*
X00018379821*
Y000057040627*
X000183819139*
Y000057019698*
X000183840069*
Y000056998768*
X000183860973*
Y000056977864*
X000183881928*
Y000056936005*
X000183902832*
Y0000569151*
X000183923762*
Y000056894171*
X000183944666*
Y000056873267*
X00018396557*
Y000056831433*
X0001839865*
Y000056810503*
X000184007429*
Y000056789599*
X000184028334*
Y00005674774*
X000184049263*
Y000056726836*
X000184070167*
Y000056684976*
X000184091097*
Y000056664072*
X000184112027*
Y000056643168*
X000184132931*
Y000056601309*
X000184153835*
Y000056580405*
X000184174765*
Y000056538545*
X000184195669*
Y000056517641*
X000184216598*
Y000056475807*
X000184237528*
Y000056433974*
X000184258432*
Y000056413044*
X000184279362*
Y00005637121*
X000184300266*
Y000056329376*
X000184321196*
Y000056308447*
X000184342125*
Y000056266613*
X000184363029*
Y000056224779*
X000184383959*
Y000056182945*
X000184404889*
Y000056162016*
X000184425793*
Y000056120182*
X000184446722*
Y000056078348*
X000184467627*
Y000056036514*
X000184488556*
Y000055994655*
X000184509486*
Y000055952821*
X00018453039*
Y000055910988*
X00018455132*
Y000055869154*
X000184572224*
Y00005580639*
X000184593128*
Y000055764557*
X000184614058*
Y000055701793*
X000184634987*
Y000055680889*
X000184655891*
Y000055618126*
X000184676821*
Y000055555362*
X000184697725*
Y000055492599*
X000184718655*
Y000055450765*
X000184739584*
Y000055388027*
X000184760489*
Y000055325264*
X000184781418*
Y0000552625*
X000184802348*
Y000055199737*
X000184823252*
Y000055116069*
X000184844182*
Y000055032402*
X000184865086*
Y000054969638*
X000184886015*
Y000054885971*
X000184906945*
Y000054781373*
X000184927849*
Y000054655847*
X000184948779*
Y000054530345*
X000184969683*
Y000054404818*
X000184990613*
Y000054195649*
X000185011517*
Y000053965525*
X000185032446*
Y000053442565*
X000185011517*
Y000053170607*
X000184990613*
Y000052961413*
X000184969683*
Y000052814982*
X000184948779*
Y000052710384*
X000184927849*
Y000052584883*
X000184906945*
Y000052459356*
X000184886015*
Y000052396618*
X000184865086*
Y000052333855*
X000184844182*
Y000052250187*
X000184823252*
Y000052166494*
X000184802348*
Y000052082827*
X000184781418*
Y000052040993*
X000184760489*
Y000051978229*
X000184739584*
Y000051915466*
X000184718655*
Y000051873632*
X000184697725*
Y000051810869*
X000184676821*
Y000051727201*
X000184655891*
Y000051685367*
X000184634987*
Y000051664438*
X000184614058*
Y000051601674*
X000184593128*
Y000051559841*
X000184572224*
Y000051497103*
X00018455132*
Y000051455269*
X00018453039*
Y00005141341*
X000184509486*
Y000051371576*
X000184488556*
Y000051329742*
X000184467627*
Y000051287908*
X000184446722*
Y000051246074*
X000184425793*
Y000051204215*
X000184404889*
Y000051183311*
X000184383959*
Y000051141477*
X000184363029*
Y000051099643*
X000184342125*
Y00005105781*
X000184321196*
Y00005101595*
X000184300266*
Y000050995046*
X000184279362*
Y000050953212*
X000184258432*
Y000050932283*
X000184237528*
Y000050890449*
X000184216598*
Y000050869519*
X000184195669*
Y000050827686*
X000184174765*
Y000050806756*
X000184153835*
Y000050764922*
X000184132931*
Y000050744018*
X000184112027*
Y000050702184*
X000184091097*
Y000050681255*
X000184070167*
Y000050639421*
X000184049263*
Y000050618491*
X000184028334*
Y000050597587*
X000184007429*
Y000050576657*
X0001839865*
Y000050534824*
X00018396557*
Y000050513919*
X000183944666*
Y00005049299*
X000183923762*
Y000050451156*
X000183902832*
Y000050430226*
X000183881928*
Y000050409297*
X000183860973*
Y000050367463*
X000183840069*
Y000050346559*
X000183819139*
Y000050325629*
X00018379821*
Y000050304725*
X000183777305*
Y000050283795*
X000183756376*
Y000050241962*
X000183735446*
Y000050221032*
X000183714567*
Y000050200128*
X000183693638*
Y000050179198*
X000183672708*
Y000050158269*
X000183651804*
Y000050137364*
X000183630874*
Y000050116435*
X000183609945*
Y000050095531*
X000183589041*
Y000050074601*
X000183568111*
Y000050053697*
X000183547207*
Y000050032767*
X000183526303*
Y000050011838*
X000183505373*
Y000049990933*
X000183484469*
Y000049970004*
X000183463539*
Y0000499491*
X00018344261*
Y00004992817*
X000183421705*
Y000049907266*
X000183400776*
Y000049886336*
X000183379846*
Y000049865407*
X000183358917*
Y000049844502*
X000183338012*
Y000049823573*
X000183317108*
Y000049802669*
X000183296179*
Y000049781739*
X000183275249*
Y000049760835*
X000183233415*
Y000049739905*
X000183212486*
Y000049718976*
X000183191581*
Y000049698071*
X000183170677*
Y000049677142*
X000183149748*
Y000049656238*
X000183107914*
Y000049635308*
X00018308701*
Y000049614378*
X00018306608*
Y000049593474*
X00018304515*
Y000049572545*
X000183003317*
Y00004955164*
X000182982387*
Y000049530711*
X000182961483*
Y000049509807*
X000182919649*
Y000049488877*
X000182898719*
Y000049467947*
X000182856886*
Y000049447043*
X000182835956*
Y000049426114*
X000182815026*
Y000049405209*
X000182773193*
Y00004938428*
X000182752288*
Y00004936335*
X000182710455*
Y000049342446*
X000182689525*
Y000049321516*
X000182647691*
Y000049300612*
X000182605857*
Y000049279683*
X000182564024*
Y000049258778*
X000182543094*
Y000049237849*
X00018250126*
Y000049216919*
X000182459426*
Y000049196015*
X000182438497*
Y000049175085*
X000182396663*
Y000049154156*
X000182354829*
Y000049133252*
X000182292066*
Y000049112347*
X000182250232*
Y000049091418*
X000182229302*
Y000049070488*
X000182187469*
Y000049049584*
X000182124705*
Y000049028654*
X000182082871*
Y000049007725*
X000182041038*
Y000048986821*
X000181999204*
Y000048965891*
X00018193644*
Y000048944987*
X000181873677*
Y000048924057*
X000181831843*
Y000048903153*
X00018176908*
Y000048882223*
X000181727246*
Y000048861319*
X000181622649*
Y00004884039*
X000181559911*
Y000048861319*
X000181476218*
Y000048882223*
X000181455314*
Y000048903153*
X000181413454*
Y000048924057*
X00018139255*
Y000048965891*
X000181371621*
Y000049028654*
X000181350716*
Y000050032767*
X000181371621*
Y000050053697*
X00018139255*
Y000050032767*
X000181497147*
Y000050011838*
X000181706316*
Y000049990933*
X000181915536*
Y000050011838*
X000182145635*
Y000050032767*
X000182271136*
Y000050053697*
X000182375733*
Y000050074601*
X000182438497*
Y000050095531*
X000182480331*
Y000050116435*
X000182543094*
Y000050137364*
X000182584928*
Y000050158269*
X000182605857*
Y000050179198*
X000182647691*
Y000050200128*
X000182668595*
Y000050221032*
X000182710455*
Y000050241962*
X000182731359*
Y000050262866*
X000182752288*
Y000050283795*
X000182773193*
Y000050304725*
X000182794122*
Y000050325629*
X000182815026*
Y000050346559*
X000182835956*
Y000050367463*
X000182856886*
Y000050388393*
X00018287779*
Y000050409297*
X000182898719*
Y000050451156*
X000182919649*
Y00005049299*
X000182940553*
Y000050534824*
X000182961483*
Y000050576657*
X000182982387*
Y000050618491*
X000183003317*
Y000050681255*
X000183024246*
Y000050723088*
X00018304515*
Y000050785852*
X00018306608*
Y000050827686*
X00018308701*
Y000050869519*
X000183107914*
Y000050890449*
X000183128843*
Y000050932283*
X000183149748*
Y000050974117*
X000183170677*
Y00005101595*
X000183191581*
Y00005103688*
X000183212486*
Y000051078714*
X000183233415*
Y000051099643*
X000183254345*
Y000051141477*
X000183275249*
Y000051162381*
X000183296179*
Y000051183311*
X000183317108*
Y000051225145*
X000183338012*
Y000051246074*
X000183358917*
Y000051266979*
X000183379846*
Y000051287908*
X000183400776*
Y000051308838*
X00018344261*
Y000051329742*
X000183463539*
Y000051350646*
X000183484469*
Y000051371576*
X000183526303*
Y000051392505*
X000183568111*
Y00005141341*
X000183589041*
Y000051434339*
X000183609945*
Y000051455269*
X000183630874*
Y000051476173*
X000183651804*
Y000051497103*
X000183672708*
Y000051518007*
X000183693638*
Y000051559841*
X000183714567*
Y00005158077*
X000183735446*
Y000051643534*
X000183714567*
Y000051664438*
X000183693638*
Y000051685367*
X000183609945*
Y000051706297*
X000183463539*
Y000051685367*
X000183358917*
Y000051664438*
X000183296179*
Y000051643534*
X000183254345*
Y000051622604*
X000183212486*
Y000051601674*
X000183170677*
Y00005158077*
X000183149748*
Y000051559841*
X000183107914*
Y000051538936*
X00018308701*
Y000051518007*
X00018304515*
Y000051497103*
X000183024246*
Y000051476173*
X000183003317*
Y000051455269*
X000182982387*
Y000051434339*
X000182961483*
Y00005141341*
X000182919649*
Y000051392505*
X000182898719*
Y000051350646*
X00018287779*
Y000051329742*
X000182856886*
Y000051308838*
X000182835956*
Y000051287908*
X000182815026*
Y000051246074*
X000182794122*
Y000051225145*
X000182773193*
Y000051183311*
X000182752288*
Y000051141477*
X000182731359*
Y000051120548*
X000182710455*
Y000051078714*
X000182689525*
Y00005103688*
X000182668595*
Y00005101595*
X000182647691*
Y000050995046*
X000182626787*
Y000050974117*
X000182605857*
Y000050932283*
X000182584928*
Y000050911379*
X000182564024*
Y000050890449*
X000182543094*
Y000050869519*
X000182522164*
Y000050848615*
X00018250126*
Y000050827686*
X000182459426*
Y000050806756*
X000182438497*
Y000050785852*
X000182417567*
Y000050764922*
X000182375733*
Y000050744018*
X000182354829*
Y000050723088*
X000182312995*
Y000050702184*
X000182271136*
Y000050681255*
X000182229302*
Y000050660325*
X000182145635*
Y000050639421*
X000182041038*
Y000050618491*
X000181894607*
Y000050639421*
X000181706316*
Y000050660325*
X000181580815*
Y000050681255*
X000181497147*
Y000050702184*
X000181434384*
Y000050723088*
X00018139255*
Y000050744018*
X000181350716*
Y000050785852*
X000181329787*
Y000050848615*
X000181308857*
Y000050953212*
X000181287953*
Y00005103688*
X000181267023*
Y000051099643*
X000181246119*
Y000051141477*
X00018122519*
Y000051183311*
X00018120426*
Y000051225145*
X000181183356*
Y000051246074*
X000181162426*
Y000051287908*
X000181141522*
Y000051329742*
X000181120618*
Y000051350646*
X000181099688*
Y000051371576*
X000181078759*
Y000051392505*
X000181057854*
Y00005141341*
X000181036925*
Y000051434339*
X000181078759*
Y000051455269*
X000181183356*
Y000051476173*
X000181350716*
Y000051497103*
X000181455314*
Y000051518007*
X000181559911*
Y000051538936*
X000181643578*
Y000051559841*
X000181727246*
Y00005158077*
X000181790009*
Y000051601674*
X000181852773*
Y000051622604*
X000181894607*
Y000051643534*
X00018195737*
Y000051664438*
X000181999204*
Y000051685367*
X000182041038*
Y000051706297*
X000182082871*
Y000051727201*
X000182124705*
Y000051748105*
X000182166539*
Y000051769035*
X000182208398*
Y000051789965*
X000182250232*
Y000051810869*
X000182292066*
Y000051831798*
X000182312995*
Y000051852728*
X000182354829*
Y000051873632*
X000182396663*
Y000051894562*
X000182417567*
Y000051915466*
X000182438497*
Y000051936396*
X000182480331*
Y0000519573*
X00018250126*
Y000051978229*
X000182522164*
Y000051999159*
X000182564024*
Y000052020063*
X000182584928*
Y000052040993*
X000182605857*
Y000052061897*
X000182626787*
Y000052082827*
X000182647691*
Y000052103756*
X000182668595*
Y00005212466*
X000182689525*
Y000052145565*
X000182710455*
Y000052166494*
X000182731359*
Y000052208328*
X000182752288*
Y000052229258*
X000182773193*
Y000052250187*
X000182794122*
Y000052271091*
X000182815026*
Y000052312925*
X000182835956*
Y000052333855*
X000182856886*
Y000052375689*
X00018287779*
Y000052396618*
X000182898719*
Y000052438452*
X000182919649*
Y000052480286*
X000182940553*
Y00005252212*
X000182961483*
Y000052543049*
X000182982387*
Y000052605787*
X000183003317*
Y000052647646*
X000183024246*
Y00005268948*
X00018304515*
Y000052752218*
X00018306608*
Y000052814982*
X00018308701*
Y000052877745*
X000183107914*
Y000052919579*
X000183128843*
Y000053003246*
X000183149748*
Y000053086939*
X000183170677*
Y000053170607*
X000183191581*
Y000053275204*
X000183212486*
Y000053400706*
X000183233415*
Y0000536099*
X000183254345*
Y000054195649*
X000183233415*
Y000054342055*
X000183212486*
Y000054446678*
X000183191581*
Y000054530345*
X000183170677*
Y000054593109*
X000183149748*
Y000054676776*
X000183128843*
Y00005473954*
X000183107914*
Y000054760444*
X00018308701*
Y000054823207*
X00018306608*
Y000054865041*
X00018304515*
Y000054906875*
X000183024246*
Y000054948709*
X000183003317*
Y000054990568*
X000182982387*
Y000055011472*
X000182961483*
Y000055053306*
X000182940553*
Y000055074235*
X000182919649*
Y000055116069*
X000182898719*
Y000055157903*
X00018287779*
Y000055178833*
X000182856886*
Y000055199737*
X000182835956*
Y000055220666*
X000182815026*
Y000055241596*
X000182794122*
Y00005528343*
X000182773193*
Y000055304334*
X000182752288*
Y000055325264*
X000182773193*
Y000055388027*
X000182794122*
Y000055450765*
X000182815026*
Y000055555362*
X000182835956*
Y000055701793*
X000182856886*
Y000056099278*
X000182835956*
Y000056245709*
X000182815026*
Y000056350281*
X000182794122*
Y000056433974*
X000182773193*
Y000056496712*
X000182752288*
Y000056580405*
X000182731359*
Y000056622238*
X000182710455*
Y000056664072*
X000182626787*
Y000056684976*
X000182543094*
Y000056664072*
X000182417567*
Y000056643168*
X0001823339*
Y000056622238*
X000182271136*
Y000056601309*
X000182208398*
Y000056580405*
X000182145635*
Y000056559475*
X000182103801*
Y000056538545*
X000182061967*
Y000056517641*
X000182020108*
Y000056496712*
X000181978274*
Y000056475807*
X000181915536*
Y000056454878*
X000181873677*
Y000056433974*
X000181831843*
Y000056413044*
X000181790009*
Y000056392114*
X000181748176*
Y00005637121*
X000181706316*
Y000056350281*
X000181664508*
Y000056329376*
X000181643578*
Y000056308447*
X000181601745*
Y000056287543*
X000181559911*
Y000056266613*
X000181538981*
Y000056245709*
X000181518077*
Y000056224779*
X000181476218*
Y00005620385*
X000181434384*
Y000056182945*
X000181413454*
Y000056162016*
X00018139255*
Y000056141086*
X000181287953*
Y000056162016*
X00018122519*
Y000056182945*
X000181162426*
Y00005620385*
X000181057854*
Y000056224779*
X000180932328*
Y000056245709*
X000180806801*
Y000056266613*
X000180681299*
Y000056287543*
X00018047213*
Y000056308447*
X000179802713*
Y000056287543*
X000179593519*
Y000056266613*
X000179468018*
Y000056245709*
X000179342491*
Y000056224779*
X000179216989*
Y00005620385*
X000179112392*
Y000056182945*
X000179049629*
Y000056162016*
X000178986865*
Y000056141086*
X000178882268*
Y000056162016*
X000178861364*
Y000056182945*
X000178840434*
Y00005620385*
X000178798601*
Y000056224779*
X000178756767*
Y000056245709*
X000178735837*
Y000056266613*
X000178694003*
Y000056287543*
X000178673099*
Y000056308447*
X00017863124*
Y000056329376*
X000178589406*
Y000056350281*
X000178568502*
Y00005637121*
X000178526668*
Y000056392114*
X000178484809*
Y000056413044*
X000178442975*
Y000056433974*
X000178422046*
Y000056454878*
X000178380212*
Y000056475807*
X000178317448*
Y000056496712*
X000178275615*
Y000056517641*
X000178233781*
Y000056538545*
X000178191947*
Y000056559475*
X000178129209*
Y000056580405*
X00017808735*
Y000056601309*
X000178003682*
Y000056622238*
X000177961848*
Y000056643168*
X000177878155*
Y000056664072*
X000177773584*
Y000056684976*
X000177627127*
Y000056664072*
X000177564389*
Y000056601309*
X000177543485*
Y000056559475*
X00017752253*
Y000056496712*
X000177501626*
Y000056413044*
X000177480696*
Y000056329376*
X000177459767*
Y000056224779*
X000177438862*
Y000056078348*
X000177417933*
Y000055701793*
X000177438862*
Y000055555362*
X000177459767*
Y000055450765*
X000177480696*
Y000055388027*
X000177501626*
Y000055325264*
X00017752253*
Y000055304334*
X000177501626*
Y00005528343*
X000177480696*
Y000055241596*
X000177459767*
Y000055220666*
X000177438862*
Y000055199737*
X000177417933*
Y000055178833*
X000177397029*
Y000055136999*
X000177376124*
Y000055116069*
X000177355195*
Y000055074235*
X000177334265*
Y000055053306*
X000177313361*
Y000055011472*
X000177292431*
Y000054990568*
X000177271527*
Y000054948709*
X000177250598*
Y000054906875*
X000177229668*
Y000054865041*
X000177208764*
Y000054802278*
X000177187834*
Y000054760444*
X00017716693*
Y00005473954*
X000177146026*
Y000054676776*
X000177125096*
Y000054593109*
X000177104167*
Y000054530345*
X000177083262*
Y000054446678*
X000177062333*
Y000054342055*
X000177041429*
Y000054195649*
X000177020474*
Y0000536099*
X000177041429*
Y000053400706*
X000177062333*
Y000053275204*
X000177083262*
Y000053170607*
X000177104167*
Y000053086939*
X000177125096*
Y000052982342*
X000177146026*
Y000052919579*
X00017716693*
Y000052856815*
X000177187834*
Y000052814982*
X000177208764*
Y000052752218*
X000177229668*
Y00005268948*
X000177250598*
Y000052647646*
X000177271527*
Y000052605787*
X000177292431*
Y000052543049*
X000177313361*
Y00005252212*
X000177334265*
Y000052480286*
X000177355195*
Y000052438452*
X000177376124*
Y000052396618*
X000177397029*
Y000052375689*
X000177417933*
Y000052333855*
X000177438862*
Y000052312925*
X000177459767*
Y000052271091*
X000177480696*
Y000052250187*
X000177501626*
Y000052229258*
X00017752253*
Y000052208328*
X000177543485*
Y000052187424*
X000177564389*
Y000052145565*
X000177585319*
Y00005212466*
X000177606223*
Y000052103756*
X000177627127*
Y000052082827*
X000177648057*
Y000052061897*
X000177668986*
Y000052040993*
X00017771082*
Y000052020063*
X000177731724*
Y000051999159*
X000177752654*
Y000051978229*
X000177773584*
Y0000519573*
X000177815417*
Y000051936396*
X000177836322*
Y000051915466*
X000177857226*
Y000051894562*
X000177899085*
Y000051873632*
X000177919989*
Y000051852728*
X000177961848*
Y000051831798*
X000178003682*
Y000051810869*
X000178024586*
Y000051789965*
X000178066446*
Y000051769035*
X000178108279*
Y000051748105*
X000178150113*
Y000051727201*
X000178191947*
Y000051706297*
X000178233781*
Y000051685367*
X000178275615*
Y000051664438*
X000178317448*
Y000051643534*
X000178380212*
Y000051622604*
X000178422046*
Y000051601674*
X000178484809*
Y00005158077*
X000178568502*
Y000051559841*
X00017863124*
Y000051538936*
X000178714933*
Y000051518007*
X000178819505*
Y000051497103*
X000178945032*
Y000051476173*
X000179091463*
Y000051455269*
X00017919606*
Y000051434339*
X000179237919*
Y00005141341*
X000179216989*
Y000051392505*
X00017919606*
Y000051371576*
X000179175156*
Y000051350646*
X000179154226*
Y000051308838*
X000179133296*
Y000051287908*
X000179112392*
Y000051246074*
X000179091463*
Y000051225145*
X000179070558*
Y000051183311*
X000179049629*
Y000051141477*
X000179028699*
Y000051099643*
X000179007795*
Y00005103688*
X000178986865*
Y000050953212*
X000178965961*
Y000050848615*
X000178945032*
Y000050764922*
X000178924127*
Y000049049584*
X000178903198*
Y000048965891*
X000178882268*
Y000048944987*
X000178861364*
Y000048924057*
X000178840434*
Y000048903153*
X000178819505*
Y000048882223*
X000178798601*
Y000048861319*
X000178714933*
Y00004884039*
X00017865217*
Y000048861319*
X000178547572*
Y000048882223*
X000178505739*
Y000048903153*
X000178442975*
Y000048924057*
X000178401141*
Y000048944987*
X000178338378*
Y000048965891*
X000178275615*
Y000048986821*
X000178233781*
Y000049007725*
X000178191947*
Y000049028654*
X000178150113*
Y000049049584*
X00017808735*
Y000049070488*
X000178045516*
Y000049091418*
X000178024586*
Y000049112347*
X000177982753*
Y000049133252*
X000177919989*
Y000049154156*
X000177878155*
Y000049175085*
X000177836322*
Y000049196015*
X000177815417*
Y000049216919*
X000177773584*
Y000049237849*
X000177731724*
Y000049258778*
X00017771082*
Y000049279683*
X000177668986*
Y000049300612*
X000177627127*
Y000049321516*
X000177585319*
Y000049342446*
X000177564389*
Y00004936335*
X00017752253*
Y00004938428*
X000177501626*
Y000049405209*
X000177459767*
Y000049426114*
X000177438862*
Y000049447043*
X000177417933*
Y000049467947*
X000177376124*
Y000049488877*
X000177355195*
Y000049509807*
X000177313361*
Y000049530711*
X000177292431*
Y00004955164*
X000177271527*
Y000049572545*
X000177229668*
Y000049593474*
X000177208764*
Y000049614378*
X000177187834*
Y000049635308*
X00017716693*
Y000049656238*
X000177125096*
Y000049677142*
X000177104167*
Y000049698071*
X000177083262*
Y000049718976*
X000177062333*
Y000049739905*
X000177041429*
Y000049760835*
X000176999569*
Y000049781739*
X000176978665*
Y000049802669*
X000176957736*
Y000049823573*
X000176936806*
Y000049844502*
X000176915902*
Y000049865407*
X000176894972*
Y000049886336*
X000176874068*
Y000049907266*
X000176853138*
Y00004992817*
X000176832209*
Y0000499491*
X000176811305*
Y000049970004*
X0001767904*
Y000049990933*
X000176769471*
Y000050011838*
X000176748567*
Y000050032767*
X000176727637*
Y000050053697*
X000176706707*
Y000050074601*
X000176685803*
Y000050095531*
X000176664874*
Y000050116435*
X000176643969*
Y000050137364*
X00017662304*
Y000050158269*
X00017660211*
Y000050179198*
X000176581206*
Y000050200128*
X000176560276*
Y000050221032*
X000176539347*
Y000050241962*
X000176518443*
Y000050283795*
X000176497513*
Y000050304725*
X000176476609*
Y000050325629*
X000176455679*
Y000050346559*
X00017643475*
Y000050367463*
X000176413845*
Y000050409297*
X000176392916*
Y000050430226*
X000176372012*
Y000050451156*
X000176351082*
Y00005049299*
X000176330178*
Y000050513919*
X000176309248*
Y000050534824*
X000176288344*
Y000050576657*
X000176267414*
Y000050597587*
X000176246485*
Y000050618491*
X000176225581*
Y000050639421*
X000176204651*
Y000050681255*
X000176183747*
Y000050702184*
X000176162817*
Y000050744018*
X000176141888*
Y000050764922*
X000176120983*
Y000050806756*
X000176100054*
Y000050827686*
X00017607915*
Y000050869519*
X00017605822*
Y000050890449*
X00017603729*
Y000050932283*
X000176016386*
Y000050953212*
X000175995457*
Y000050995046*
X000175974552*
Y00005101595*
X000175953623*
Y00005105781*
X000175932719*
Y000051099643*
X000175911789*
Y000051141477*
X000175890859*
Y000051183311*
X000175869955*
Y000051204215*
X000175849026*
Y000051246074*
X000175828096*
Y000051287908*
X000175807192*
Y000051329742*
X000175786288*
Y000051371576*
X000175765358*
Y00005141341*
X000175744428*
Y000051455269*
X000175723524*
Y000051497103*
X000175702595*
Y000051559841*
X000175681665*
Y000051601674*
X000175660761*
Y000051664438*
X000175639831*
Y000051685367*
X000175618927*
Y000051727201*
X000175597997*
Y000051810869*
X000175577093*
Y000051873632*
X000175556164*
Y000051915466*
X000175535259*
Y000051978229*
X00017551433*
Y000052040993*
X0001754934*
Y000052103756*
X000175472496*
Y000052166494*
X000175451566*
Y000052250187*
X000175430637*
Y000052333855*
X000175409733*
Y000052396618*
X000175388803*
Y000052459356*
X000175367899*
Y000052584883*
X000175346969*
Y000052710384*
X000175326065*
Y000052814982*
X000175305135*
Y000052961413*
X000175284206*
Y000053170607*
X000175263302*
Y000053442565*
X000175242397*
Y000053965525*
X000175263302*
Y000054195649*
X000175284206*
Y000054404818*
X000175305135*
Y000054530345*
X000175326065*
Y000054655847*
X000175346969*
Y000054781373*
X000175367899*
Y000054885971*
X000175388803*
Y000054969638*
X000175409733*
Y000055032402*
X000175430637*
Y000055116069*
X000175451566*
Y000055199737*
X000175472496*
Y0000552625*
X0001754934*
Y000055325264*
X00017551433*
Y000055388027*
X000175535259*
Y000055450765*
X000175556164*
Y000055492599*
X000175577093*
Y000055555362*
X000175597997*
Y000055618126*
X000175618927*
Y000055680889*
X000175639831*
Y000055701793*
X000175660761*
Y000055764557*
X000175681665*
Y00005580639*
X000175702595*
Y000055869154*
X000175723524*
Y000055910988*
X000175744428*
Y000055952821*
X000175765358*
Y000055994655*
X000175786288*
Y000056036514*
X000175807192*
Y000056078348*
X000175828096*
Y000056120182*
X000175849026*
Y000056162016*
X000175869955*
Y000056182945*
X000175890859*
Y000056224779*
X000175911789*
Y000056266613*
X000175932719*
Y000056308447*
X000175953623*
Y000056329376*
X000175974552*
Y00005637121*
X000175995457*
Y000056413044*
X000176016386*
Y000056433974*
X00017603729*
Y000056475807*
X00017605822*
Y000056517641*
X00017607915*
Y000056538545*
X000176100054*
Y000056580405*
X000176120983*
Y000056601309*
X000176141888*
Y000056643168*
X000176162817*
Y000056664072*
X000176183747*
Y000056684976*
X000176204651*
Y000056726836*
X000176225581*
Y00005674774*
X000176246485*
Y000056789599*
X000176267414*
Y000056810503*
X000176288344*
Y000056831433*
X000176309248*
Y000056873267*
X000176330178*
Y000056894171*
X000176351082*
Y0000569151*
X000176372012*
Y000056936005*
X000176392916*
Y000056977864*
X000176413845*
Y000056998768*
X00017643475*
Y000057019698*
X000176455679*
Y000057040627*
X000176476609*
Y000057061531*
X000176497513*
Y000057103365*
X000176518443*
Y000057124295*
X000176539347*
Y000057145199*
X000176560276*
Y000057166129*
X000176581206*
Y000057187058*
X00017660211*
Y000057207962*
X00017662304*
Y000057228892*
X000176643969*
Y000057249796*
X000176664874*
Y000057291655*
X000176685803*
Y00005731256*
X000176727637*
Y000057333489*
X000176748567*
Y000057354393*
X000176769471*
Y000057375323*
X0001767904*
Y000057396227*
X000176811305*
Y000057417157*
X000176832209*
Y000057438086*
X000176853138*
Y000057458991*
X000176874068*
Y00005747992*
X000176894972*
Y000057500824*
X000176915902*
Y000057521754*
X000176936806*
Y000057542658*
X000176957736*
Y000057563588*
X000176978665*
Y000057584517*
X000177020474*
Y000057605422*
X000177041429*
Y000057626351*
X000177062333*
Y000057647255*
X000177083262*
Y000057668185*
X000177104167*
Y000057689115*
X000177125096*
Y000057710019*
X00017716693*
Y000057730948*
X000177187834*
Y000057751853*
X000177208764*
Y000057772782*
X000177250598*
Y000057793686*
X000177271527*
Y000057814616*
X000177292431*
Y000057835546*
X000177334265*
Y00005785645*
X000177355195*
Y000057877379*
X000177376124*
Y000057898284*
X000177417933*
Y000057919213*
X000177438862*
Y000057940117*
X000177480696*
Y000057961047*
X000177501626*
Y000057981977*
X000177543485*
Y000058002881*
X000177564389*
Y00005802381*
X000177606223*
Y000058044715*
X000177648057*
Y000058065644*
X000177668986*
Y000058086548*
X000177689891*
Y000058107478*
X000177731724*
Y000058128408*
X000177773584*
Y000058149312*
X000177815417*
Y000058170241*
X000177857226*
Y000058191146*
X000177878155*
Y000058212075*
X000177919989*
Y000058233005*
X000177961848*
Y000058253909*
X000178003682*
Y000058274839*
X000178045516*
Y000058295743*
X00017808735*
Y000058316672*
X000178150113*
Y000058337577*
X000178171043*
Y000058358506*
X000178233781*
Y000058379436*
X000178275615*
Y00005840034*
X000178338378*
Y00005842127*
X000178380212*
Y000058442199*
X000178422046*
Y000058463103*
X000178484809*
Y000058484008*
X000178547572*
Y000058504937*
X000178610336*
Y000058525867*
X000178673099*
Y000058546771*
X000178714933*
Y000058567701*
X000178798601*
Y000058588605*
X000178882268*
Y000058609534*
X000178965961*
Y000058630464*
X000179049629*
Y000058651368*
X000179133296*
Y000058672298*
X000179237919*
Y000058693202*
X00017936342*
Y000058714132*
X000179488922*
Y000058735036*
X000179698116*
Y000058755965*
X000180576728*
Y000058735036*
G37*
G36*
X000168276371Y000041518763D02*
Y000041497834D01*
Y000041037611*
X000167376856*
Y000041937127*
X000168276371*
Y000041518763*
G37*
%LNmtrl_0mm_thru_legend_bot-6*%
%LPC*%
G36*
X000197270014Y000070951699D02*
X000192877059D01*
Y000066558744*
X000197270014*
Y00006963382*
Y000069654724*
Y000070951699*
G37*
%LNmtrl_0mm_thru_legend_bot-7*%
%LPD*%
G36*
X000196391428Y00006743733D02*
X000193755645D01*
Y000070073113*
X000196391428*
Y00006743733*
G37*
%LNmtrl_0mm_thru_legend_bot-8*%
%LPC*%
G36*
X000167397785Y000070951699D02*
X000163004804D01*
Y000066558744*
X000167397785*
Y000068587874*
Y000068608778*
Y000070951699*
G37*
%LNmtrl_0mm_thru_legend_bot-9*%
%LPD*%
G36*
X000166519199Y00006743733D02*
X00016388339D01*
Y000070073113*
X000166519199*
Y00006743733*
G37*
%LNmtrl_0mm_thru_legend_bot-10*%
%LPC*%
G36*
X000197270014Y000041058541D02*
X000192877059D01*
Y00003666556*
X000197270014*
Y000041058541*
G37*
%LNmtrl_0mm_thru_legend_bot-11*%
%LPD*%
G36*
X000196391428Y000037544146D02*
X000193755645D01*
Y000040179955*
X000196391428*
Y000037544146*
G37*
G36*
X000171184087Y000028988308D02*
X000171267805D01*
Y000028967379*
X000171309614*
Y000028946475*
X000171351448*
Y000028925545*
X000171393307*
Y000028904641*
X000171414211*
Y000028883711*
X000171435141*
Y000028862807*
X000171456045*
Y000028841877*
X000171476949*
Y000028820948*
X000171497879*
Y000028800044*
X000171518808*
Y00002875821*
X000171539712*
Y00002873728*
X000171560642*
Y000028695446*
X000171581546*
Y000028632683*
X000171602476*
Y00002856992*
X000171623405*
Y000028486252*
X00017164431*
Y000028339821*
X000171665239*
Y000028256153*
Y000028235224*
Y000027712263*
X00017164431*
Y000027565832*
X000171623405*
Y000027461235*
X000171602476*
Y000027398472*
X000171581546*
Y000027335708*
X000171560642*
Y000027293874*
X000171539712*
Y000027252041*
X000171518808*
Y000027210207*
X000171497879*
Y000027189277*
X000171476949*
Y000027168348*
X000171456045*
Y000027147443*
X000171435141*
Y000027126539*
X000171414211*
Y00002710561*
X000171393307*
Y00002708468*
X000171372377*
Y000027063776*
X000171330543*
Y000027042846*
X00017128871*
Y000027021917*
X000171225946*
Y000027001012*
X000171142253*
Y000026980083*
X000170891225*
Y000027001012*
X000170807583*
Y000027021917*
X000170765749*
Y000027042846*
X00017072389*
Y000027063776*
X000170682031*
Y00002708468*
X000170661126*
Y00002710561*
X000170640222*
Y000027126539*
X000170619293*
Y000027147443*
X000170598388*
Y000027168348*
X000170577459*
Y000027189277*
X000170556529*
Y000027231111*
X000170535625*
Y000027252041*
X000170514695*
Y000027293874*
X000170493766*
Y000027335708*
X000170472862*
Y000027377542*
X000170451957*
Y000027440305*
X000170431028*
Y000027503069*
X000170410124*
Y000027586736*
X000170389194*
Y000027733167*
X000170368264*
Y000028297987*
X000170389194*
Y000028423489*
X000170410124*
Y000028507182*
X000170431028*
Y00002856992*
X000170451957*
Y000028632683*
X000170472862*
Y000028674517*
X000170493766*
Y000028716376*
X000170514695*
Y00002875821*
X000170535625*
Y000028779114*
X000170556529*
Y000028800044*
X000170577459*
Y000028820948*
X000170598388*
Y000028862807*
X000170619293*
Y000028883711*
X000170640222*
Y000028904641*
X000170661126*
Y000028925545*
X00017070296*
Y000028946475*
X000170744819*
Y000028967379*
X000170786653*
Y000028988308*
X000170849391*
Y000029009238*
X000171184087*
Y000028988308*
G37*
M02*