%FSTAX66Y66*%
%MOMM*%
%SFA1B1*%

%IPPOS*%
%ADD25C,6.203188*%
%LNmtrl_0mm_thru_soldermask_top-1*%
%LPD*%
G36*
X000210587996Y00009951819D02*
Y000095483375D01*
X000210105396Y000095000775*
X000208657596*
X000208174996Y000095483375*
Y000099500791*
X000207674997*
Y000095000775*
X000202324995*
Y000099500791*
X000201824996*
Y000095483375*
X000201342396Y000095000775*
X000199894596*
X000199411996Y000095483375*
Y00009951819*
X000199894596Y00010000079*
X000210105396*
X000210587996Y00009951819*
G37*
G36*
X000180588005Y000099517581D02*
Y000095482791D01*
X000180105405Y000095000191*
X000178657605*
X00017817498Y000095482791*
Y000099500182*
X000177674981*
Y000095000191*
X000172324979*
Y000099500182*
X000171825005*
Y000095482791*
X000171342405Y000095000191*
X000169894605*
X00016941198Y000095482791*
Y000099517581*
X000169894605Y000100000181*
X000180105405*
X000180588005Y000099517581*
G37*
G36*
X000150587989Y0000995172D02*
Y000095482384D01*
X000150105389Y000094999784*
X000148657589*
X000148174989Y000095482384*
Y000099499775*
X00014767499*
Y000094999784*
X000142324988*
Y000099499775*
X000141824989*
Y000095482384*
X000141342389Y000094999784*
X000139894589*
X000139411989Y000095482384*
Y0000995172*
X000139894589Y0000999998*
X000150105389*
X000150587989Y0000995172*
G37*
G36*
X000187221977Y00007500018D02*
X000162778008D01*
Y000094500192*
X000187221977*
Y00007500018*
G37*
G36*
X000217221968Y000075000789D02*
Y00006500241D01*
X000192777999*
Y000075000789*
Y000094500776*
X000217221968*
Y000075000789*
G37*
G36*
X000120587998Y000064516787D02*
Y000060481972D01*
X000120105398Y000059999372*
X000118657598*
X000118174998Y000060481972*
Y000064499388*
X000117674999*
Y000059999372*
X000112324997*
Y000064499388*
X000111824998*
Y000060481972*
X000111342398Y000059999372*
X000109894598*
X000109411998Y000060481972*
Y000064516787*
X000109894598Y000064999387*
X000120105398*
X000120587998Y000064516787*
G37*
G36*
X000090587982Y000059516365D02*
Y000055481575D01*
X000090105382Y000054998975*
X000088657582*
X000088174982Y000055481575*
Y000059498966*
X000087674983*
Y000054998975*
X000082324981*
Y000059498966*
X000081824982*
Y000055481575*
X000081342382Y000054998975*
X000079894582*
X000079411982Y000055481575*
Y000059516365*
X000079894582Y000059998965*
X000090105382*
X000090587982Y000059516365*
G37*
G36*
X000060587991Y000052015974D02*
Y000047981184D01*
X000060105391Y000047498584*
X000058657591*
X000058174991Y000047981184*
Y000051998575*
X000057674992*
Y000047498584*
X00005232499*
Y000051998575*
X000051824991*
Y000047981184*
X000051342391Y000047498584*
X000049894591*
X000049411991Y000047981184*
Y000052015974*
X000049894591Y000052498574*
X000060105391*
X000060587991Y000052015974*
G37*
G36*
X000030587975Y000049515776D02*
Y000045480986D01*
X000030105375Y000044998386*
X000028657575*
X000028174975Y000045480986*
Y000049498377*
X000027674976*
Y000044998386*
X000022324999*
Y000049498377*
X000021824975*
Y000045480986*
X000021342375Y000044998386*
X000019894575*
X000019411975Y000045480986*
Y000049515776*
X000019894575Y000049998376*
X000030105375*
X000030587975Y000049515776*
G37*
G36*
X000217221968Y000025002388D02*
Y000005502402D01*
X000192777999*
Y000025002388*
Y000035000793*
X000217221968*
Y000025002388*
G37*
G36*
X000187221977Y000005501792D02*
X000162778008D01*
Y000025001804*
X000187221977*
Y000005501792*
G37*
G36*
X000157221961Y000074999799D02*
Y000025001397D01*
Y000005501386*
X000132778017*
Y000025001397*
Y000074999799*
Y000094499785*
X000157221961*
Y000074999799*
G37*
G36*
X00012722197Y000039999386D02*
Y000025000991D01*
Y000005500979*
X000102778001*
Y000025000991*
Y000039999386*
Y000059499398*
X00012722197*
Y000039999386*
G37*
G36*
X000097221979Y000034998964D02*
Y000025000585D01*
Y000005500598*
X00007277801*
Y000025000585*
Y000034998964*
Y000054498976*
X000097221979*
Y000034998964*
G37*
G36*
X000067221989Y000027498573D02*
Y000025000178D01*
Y000005500192*
X000042777994*
Y000025000178*
Y000027498573*
Y000046998585*
X000067221989*
Y000027498573*
G37*
G36*
X000037221972Y000024998375D02*
Y000005499785D01*
X000012778003*
Y000024998375*
Y000044498387*
X000037221972*
Y000024998375*
G37*
G36*
X000210587996Y000004519803D02*
Y000000484987D01*
X000210105396Y000000002387*
X000199894596*
X000199411996Y000000484987*
Y000004519803*
X000199894596Y000005002403*
X000201342396*
X000201824996Y000004519803*
Y000000502386*
X000202324995*
Y000005002403*
X000207674997*
Y000000502386*
X000208174996*
Y000004519803*
X000208657596Y000005002403*
X000210105396*
X000210587996Y000004519803*
G37*
G36*
X000180588005Y000004519193D02*
Y000000484403D01*
X000180105405Y000000001803*
X000169894605*
X00016941198Y000000484403*
Y000004519193*
X000169894605Y000005001793*
X000171342405*
X000171825005Y000004519193*
Y000000501802*
X000172324979*
Y000005001793*
X000177674981*
Y000000501802*
X00017817498*
Y000004519193*
X000178657605Y000005001793*
X000180105405*
X000180588005Y000004519193*
G37*
G36*
X000150587989Y000004518787D02*
Y000000483997D01*
X000150105389Y000000001397*
X000139894589*
X000139411989Y000000483997*
Y000004518787*
X000139894589Y000005001387*
X000141342389*
X000141824989Y000004518787*
Y000000501396*
X000142324988*
Y000005001387*
X00014767499*
Y000000501396*
X000148174989*
Y000004518787*
X000148657589Y000005001387*
X000150105389*
X000150587989Y000004518787*
G37*
G36*
X000120587998Y000004518406D02*
Y00000048359D01*
X000120105398Y00000000099*
X000109894598*
X000109411998Y00000048359*
Y000004518406*
X000109894598Y000005001006*
X000111342398*
X000111824998Y000004518406*
Y000000500989*
X000112324997*
Y000005001006*
X000117674999*
Y000000500989*
X000118174998*
Y000004518406*
X000118657598Y000005001006*
X000120105398*
X000120587998Y000004518406*
G37*
G36*
X000090587982Y000004517999D02*
Y000000483184D01*
X000090105382Y000000000584*
X000079894582*
X000079411982Y000000483184*
Y000004517999*
X000079894582Y000005000599*
X000081342382*
X000081824982Y000004517999*
Y000000500583*
X000082324981*
Y000005000599*
X000087674983*
Y000000500583*
X000088174982*
Y000004517999*
X000088657582Y000005000599*
X000090105382*
X000090587982Y000004517999*
G37*
G36*
X000060587991Y000004517593D02*
Y000000482777D01*
X000060105391Y000000000177*
X000049894591*
X000049411991Y000000482777*
Y000004517593*
X000049894591Y000005000193*
X000051342391*
X000051824991Y000004517593*
Y000000500176*
X00005232499*
Y000005000193*
X000057674992*
Y000000500176*
X000058174991*
Y000004517593*
X000058657591Y000005000193*
X000060105391*
X000060587991Y000004517593*
G37*
G36*
X000030587975Y000004517186D02*
Y000000482396D01*
X000030105375Y-000000000177*
X000019894575*
X000019411975Y000000482396*
Y000004517186*
X000019894575Y000004999786*
X000021342375*
X000021824975Y000004517186*
Y000000499795*
X000022324999*
Y000004999786*
X000027674976*
Y000000499795*
X000028174975*
Y000004517186*
X000028657575Y000004999786*
X000030105375*
X000030587975Y000004517186*
G37*
G54D25*
X00000499999Y000044999986D03*
X000224999981Y000094999987D03*
X000224999956Y000005001615D03*
X00000499999Y000005000015D03*
M02*